<svg xmlns="http://www.w3.org/2000/svg" width="74.378" height="83.892" viewBox="0 0 74.378 83.892">
  <defs>
    <style>
      .cls-1 {
        fill: #fff;
      }
    </style>
  </defs>
  <path id="Icon_awesome-node-js" data-name="Icon awesome-node-js" class="cls-1" d="M37.222,84.177a6.521,6.521,0,0,1-3.229-.866L23.721,77.235c-1.532-.866-.782-1.165-.283-1.332a20.233,20.233,0,0,0,4.644-2.114.751.751,0,0,1,.766.067l7.891,4.678a.964.964,0,0,0,.949,0L68.435,60.788a.986.986,0,0,0,.466-.832V24.464a.992.992,0,0,0-.483-.849L37.688,5.886a.964.964,0,0,0-.949,0L6.025,23.632a.972.972,0,0,0-.483.849V59.956a.919.919,0,0,0,.483.816l8.423,4.861c4.578,2.281,7.375-.4,7.375-3.113V27.494a.881.881,0,0,1,.9-.882h3.9a.892.892,0,0,1,.9.882V62.536c0,6.093-3.329,9.589-9.106,9.589-1.781,0-3.18,0-7.075-1.931L3.279,65.549a6.473,6.473,0,0,1-3.229-5.61V24.464a6.493,6.493,0,0,1,3.229-5.61L33.992,1.109a6.74,6.74,0,0,1,6.459,0L71.2,18.871a6.473,6.473,0,0,1,3.229,5.61V59.956a6.514,6.514,0,0,1-3.229,5.61L40.451,83.311a6.474,6.474,0,0,1-3.229.866ZM62.042,49.2c0-6.642-4.495-8.407-13.933-9.655-9.555-1.265-10.521-1.914-10.521-4.145,0-1.848.816-4.312,7.891-4.312,6.309,0,8.64,1.365,9.605,5.627a.891.891,0,0,0,.866.7h4a.869.869,0,0,0,.649-.283.927.927,0,0,0,.233-.683C60.211,29.109,55.334,25.7,45.479,25.7c-8.773,0-14,3.7-14,9.9,0,6.725,5.21,8.59,13.617,9.422,10.071.982,10.854,2.464,10.854,4.445,0,3.429-2.763,4.894-9.239,4.894-8.14,0-9.922-2.048-10.521-6.093a.881.881,0,0,0-.882-.749H31.329a.877.877,0,0,0-.882.882c0,5.177,2.813,11.353,16.281,11.353,9.722-.017,15.315-3.862,15.315-10.554Z" transform="translate(-0.049 -0.285)"/>
</svg>
