<svg xmlns="http://www.w3.org/2000/svg" width="74.912" height="73.039" viewBox="0 0 74.912 73.039">
  <defs>
    <style>
      .cls-1 {
        fill: #fff;
      }
    </style>
  </defs>
  <path id="Icon_simple-adobexd" data-name="Icon simple-adobexd" class="cls-1" d="M61.646.45H13.266A13.254,13.254,0,0,0,0,13.716V60.223A13.254,13.254,0,0,0,13.266,73.489h48.38A13.254,13.254,0,0,0,74.912,60.223V13.716A13.254,13.254,0,0,0,61.646.45ZM71.759,59.006a11.309,11.309,0,0,1-11.3,11.362H14.452a11.35,11.35,0,0,1-11.33-11.33V14.9a11.35,11.35,0,0,1,11.33-11.33H60.429A11.33,11.33,0,0,1,71.759,14.9ZM29.621,34.628l8.74,16.793c.156.25.062.5-.187.5H32.743a.613.613,0,0,1-.655-.406c-2-4.12-4.026-8.24-6.118-12.673h-.062c-1.873,4.183-3.933,8.584-5.931,12.7a.6.6,0,0,1-.562.343h-5.15c-.312,0-.343-.25-.187-.437L22.63,35.159,14.358,18.678a.252.252,0,0,1,.187-.437h5.369a.492.492,0,0,1,.562.343C22.442,22.7,24.44,26.95,26.313,31.1h.062c1.81-4.12,3.808-8.4,5.743-12.485.156-.25.25-.406.562-.406h5.025c.25,0,.343.187.187.437ZM39.89,39.716c0-7.273,4.838-12.953,12.516-12.953a13.842,13.842,0,0,1,1.623.062V18.554a.313.313,0,0,1,.312-.312h4.932c.25,0,.312.094.312.25V47.145a22.232,22.232,0,0,0,.156,3.059c0,.187-.062.25-.25.343a18.593,18.593,0,0,1-7.991,1.81C44.728,52.389,39.89,48.206,39.89,39.716Zm14.14-7.991a4.72,4.72,0,0,0-1.81-.312c-3.933,0-6.68,3.028-6.68,8.053,0,5.743,2.809,8.053,6.336,8.053a5.889,5.889,0,0,0,2.154-.343V31.726Z" transform="translate(0 -0.45)"/>
</svg>
