<svg xmlns="http://www.w3.org/2000/svg" width="79.694" height="79.853" viewBox="0 0 79.694 79.853">
  <defs>
    <style>
      .cls-1 {
        fill: #fff;
      }
    </style>
  </defs>
  <path id="Icon_zocial-github" data-name="Icon zocial-github" class="cls-1" d="M0,39.667A38.438,38.438,0,0,1,3.194,24.175,38.569,38.569,0,0,1,24.355,3.014a39.164,39.164,0,0,1,30.983,0A38.9,38.9,0,0,1,76.5,24.175a39.164,39.164,0,0,1,0,30.983A39.19,39.19,0,0,1,55.338,76.479a39.164,39.164,0,0,1-30.983,0A38.85,38.85,0,0,1,3.194,55.158,38.438,38.438,0,0,1,0,39.667Zm6.229,0A32.481,32.481,0,0,0,12.936,59.79,35.9,35.9,0,0,0,30.264,72.167V65.779q0-4.791,3.194-6.947a22.922,22.922,0,0,1-3.753-.559,18.867,18.867,0,0,1-6.947-2.555q-7.267-4.392-7.267-15.891a14.359,14.359,0,0,1,3.993-10.221,13.434,13.434,0,0,1,.4-10.221h1.6a6.569,6.569,0,0,1,2,.4A27.458,27.458,0,0,1,30.424,23.3a37.667,37.667,0,0,1,9.582-1.278A38.589,38.589,0,0,1,49.669,23.3,34.021,34.021,0,0,1,55.5,20.1a8.656,8.656,0,0,1,3.673-.8l.958.08a13.946,13.946,0,0,1,.4,10.221,14.359,14.359,0,0,1,3.993,10.221q0,8.944-4.392,13.5a16.057,16.057,0,0,1-6.308,3.993,27.461,27.461,0,0,1-7.267,1.517,7.949,7.949,0,0,1,3.274,6.947v6.388A36.165,36.165,0,0,0,66.837,59.63a32.542,32.542,0,0,0,6.548-19.963,33.653,33.653,0,0,0-2.635-13.1,33.975,33.975,0,0,0-30.9-20.522,33.961,33.961,0,0,0-13.1,2.715,35.11,35.11,0,0,0-10.7,7.107,37.042,37.042,0,0,0-7.187,10.7,33.653,33.653,0,0,0-2.635,13.1Z" transform="translate(0 0.18)"/>
</svg>
