<svg xmlns="http://www.w3.org/2000/svg" width="78.026" height="58.525" viewBox="0 0 78.026 58.525">
  <defs>
    <style>
      .cls-1 {
        fill: #fff;
      }
    </style>
  </defs>
  <path id="Icon_awesome-sass" data-name="Icon awesome-sass" class="cls-1" d="M36.8,45.371C36.763,45.444,36.726,45.5,36.8,45.371ZM67.172,34.764A15.991,15.991,0,0,0,60.1,36.41a15.016,15.016,0,0,1-1.585-3.67,9.8,9.8,0,0,1-.134-3.084,25.975,25.975,0,0,1,.927-3.316c-.012-.134-.171-.8-1.743-.817s-2.926.3-3.083.719a14.975,14.975,0,0,0-.646,2.329c-.28,1.426-3.144,6.523-4.766,9.18a9.466,9.466,0,0,1-1.085-2.682,9.8,9.8,0,0,1-.134-3.084,25.976,25.976,0,0,1,.927-3.316c-.012-.134-.171-.8-1.742-.817s-2.926.3-3.084.719-.329,1.39-.646,2.329-4.132,9.424-5.13,11.631c-.512,1.122-.951,2.024-1.268,2.633-.049.1-.085.158-.11.207.037-.061.061-.122.061-.1-.268.524-.427.817-.427.817V46.1c-.207.39-.439.744-.549.744a5.058,5.058,0,0,1,.037-2.426c.573-2.95,1.926-7.534,1.914-7.693-.012-.085.256-.878-.89-1.3a1.435,1.435,0,0,0-1.609.268c-.1,0-.171.244-.171.244s1.231-5.169-2.364-5.169c-2.243,0-5.364,2.463-6.9,4.694-.963.524-3.048,1.658-5.242,2.865-.841.463-1.707.939-2.524,1.39-.061-.061-.11-.122-.171-.183-4.363-4.657-12.42-7.949-12.078-14.2.122-2.28.914-8.266,15.492-15.532,11.948-5.95,21.5-4.316,23.145-.683,2.365,5.181-5.107,14.825-17.515,16.215-4.729.524-7.215-1.3-7.837-1.987-.646-.719-.744-.756-.988-.622-.4.219-.146.853,0,1.231a7.346,7.346,0,0,0,4.485,3.523c2.28.744,7.825,1.158,14.529-1.439,7.532-2.9,13.4-10.985,11.676-17.751C47.123,1.408,35.721-.848,24.94,2.98,18.517,5.26,11.57,8.845,6.572,13.514.636,19.073-.314,23.913.077,25.937,1.465,33.118,11.362,37.8,15.324,41.262c-.2.11-.378.207-.549.3-1.986.988-9.531,4.938-11.42,9.107-2.134,4.73.354,8.12,1.986,8.583,5.095,1.414,10.312-1.134,13.115-5.316s2.463-9.644,1.17-12.131c-.012-.037-.037-.061-.049-.1.512-.3,1.036-.61,1.561-.914,1.011-.6,2-1.146,2.864-1.621a18.937,18.937,0,0,0-1.024,5.194c-.219,2.682.89,6.157,2.329,7.522a2.559,2.559,0,0,0,1.876.61c1.682,0,2.438-1.39,3.278-3.048,1.036-2.024,1.951-4.377,1.951-4.377s-1.146,6.364,1.987,6.364c1.145,0,2.291-1.475,2.8-2.231v.012s.024-.049.085-.146c.122-.183.183-.293.183-.293v-.037c.463-.792,1.475-2.609,3-5.608,1.975-3.877,3.864-8.717,3.864-8.717a24.535,24.535,0,0,0,.756,3.145,29.449,29.449,0,0,0,1.634,3.657c-.463.634-.744,1-.744,1a.038.038,0,0,0,.012.024c-.366.488-.78,1.012-1.207,1.524a43.032,43.032,0,0,0-3.658,4.584,1.246,1.246,0,0,0,.341,1.67,2.963,2.963,0,0,0,1.913.3,8.454,8.454,0,0,0,2.865-.658,10.022,10.022,0,0,0,2.461-1.292,5.5,5.5,0,0,0,2.365-4.852,10.1,10.1,0,0,0-.89-3.438c.134-.2.28-.4.415-.61a64.812,64.812,0,0,0,4.278-7.391,24.534,24.534,0,0,0,.756,3.145,21.505,21.505,0,0,0,1.389,3.133,13.4,13.4,0,0,0-4.156,5.377c-.9,2.6-.2,3.767,1.134,4.035a4.091,4.091,0,0,0,2.085-.427A9.688,9.688,0,0,0,58.714,46c1.524-1.122,3-2.694,2.9-4.828a9.07,9.07,0,0,0-.658-2.853,14.881,14.881,0,0,1,7.57-.878c6.788.792,8.117,5.035,7.861,6.8a4.507,4.507,0,0,1-2.158,3.048c-.475.293-.622.4-.585.622.061.317.28.3.683.232a5.3,5.3,0,0,0,3.693-4.718c.2-4.145-3.79-8.7-10.851-8.668ZM14.848,52.405c-2.242,2.451-5.388,3.377-6.74,2.6-1.451-.844-.878-4.45,1.888-7.061a36.123,36.123,0,0,1,5.29-3.95c.329-.2.8-.488,1.39-.841.1-.061.146-.085.146-.085.11-.073.232-.134.354-.207A9.731,9.731,0,0,1,14.848,52.4ZM31.229,41.262c-.78,1.914-2.425,6.791-3.425,6.535-.853-.219-1.378-3.938-.171-7.6a16.815,16.815,0,0,1,2.67-4.889c1.23-1.378,2.583-1.817,2.9-1.268C33.631,34.764,31.716,40.067,31.229,41.262Zm13.533,6.462c-.329.171-.634.28-.78.2-.11-.061.134-.293.134-.293s1.695-1.817,2.365-2.646c.39-.488.841-1.061,1.328-1.695,0,.061.012.122.012.2-.016,2.182-2.112,3.658-3.063,4.243ZM55.2,45.346c-.244-.171-.207-.744.61-2.524a9.476,9.476,0,0,1,2.316-2.987,4.411,4.411,0,0,1,.232,1.317A4.3,4.3,0,0,1,55.2,45.346Z" transform="translate(0 -1.125)"/>
</svg>
