<svg xmlns="http://www.w3.org/2000/svg" width="82.82" height="72.471" viewBox="0 0 82.82 72.471">
  <defs>
    <style>
      .cls-1 {
        fill: #fff;
      }
    </style>
  </defs>
  <path id="Icon_awesome-react" data-name="Icon awesome-react" class="cls-1" d="M67.647,25.736q-1.31-.437-2.62-.825c.146-.6.275-1.2.4-1.8,1.99-9.641.679-17.389-3.737-19.945C57.44.728,50.5,3.268,43.48,9.382c-.7.6-1.375,1.229-2.022,1.86-.437-.421-.89-.841-1.343-1.246C32.756,3.462,25.38.712,20.964,3.284c-4.238,2.459-5.5,9.754-3.72,18.877.178.906.372,1.8.6,2.7-1.035.291-2.054.615-3.009.954C6.2,28.809,0,33.533,0,38.418,0,43.465,6.6,48.528,15.577,51.6c.728.243,1.456.485,2.2.7-.243.971-.453,1.925-.647,2.912C15.432,64.186,16.758,71.3,21,73.745c4.367,2.523,11.711-.065,18.861-6.325.566-.5,1.132-1.019,1.7-1.569.712.7,1.456,1.359,2.2,2.006,6.923,5.953,13.766,8.363,17.987,5.92C66.11,71.254,67.534,63.6,65.69,54.286q-.218-1.068-.485-2.184c.518-.146,1.019-.307,1.521-.469,9.333-3.09,16.095-8.088,16.095-13.216,0-4.9-6.373-9.657-15.173-12.682ZM45.761,12c6.017-5.241,11.63-7.3,14.186-5.823,2.734,1.569,3.785,7.91,2.07,16.24-.113.55-.226,1.084-.372,1.618a82.808,82.808,0,0,0-10.886-1.715,81.728,81.728,0,0,0-6.891-8.589c.631-.6,1.246-1.165,1.893-1.731ZM27.046,46.813c.825,1.407,1.666,2.815,2.556,4.19A73.247,73.247,0,0,1,22.1,49.789a75.563,75.563,0,0,1,2.637-7.2c.744,1.423,1.5,2.831,2.313,4.222Zm-4.9-19.459c2.329-.518,4.8-.938,7.376-1.262-.857,1.343-1.7,2.718-2.491,4.109-.793,1.375-1.569,2.782-2.3,4.206-1.019-2.41-1.876-4.772-2.588-7.053ZM26.577,38.5c1.068-2.232,2.232-4.416,3.462-6.567s2.556-4.238,3.947-6.292c2.426-.178,4.9-.275,7.425-.275s5.014.1,7.425.275Q50.9,28.7,52.765,31.9t3.51,6.535q-1.626,3.348-3.494,6.6c-1.229,2.151-2.54,4.238-3.915,6.309-2.41.178-4.917.259-7.457.259s-5-.081-7.376-.226q-2.111-3.081-3.979-6.309C28.809,42.915,27.66,40.731,26.577,38.5ZM55.79,46.781c.825-1.423,1.6-2.863,2.362-4.319a75.09,75.09,0,0,1,2.734,7.166,71.05,71.05,0,0,1-7.6,1.294C54.156,49.563,54.981,48.172,55.79,46.781Zm2.329-12.374c-.76-1.423-1.537-2.847-2.345-4.238q-1.189-2.062-2.475-4.076a74.437,74.437,0,0,1,7.425,1.294,71.587,71.587,0,0,1-2.6,7.02Zm-16.677-18.2A71.03,71.03,0,0,1,46.23,22c-3.2-.146-6.422-.146-9.625,0C38.191,19.913,39.825,17.972,41.442,16.208ZM22.678,6.293c2.718-1.585,8.751.679,15.108,6.309.4.356.809.744,1.229,1.132a82.181,82.181,0,0,0-6.939,8.589,85.267,85.267,0,0,0-10.87,1.682c-.21-.825-.388-1.666-.566-2.507-1.521-7.829-.518-13.733,2.038-15.205ZM18.715,48.932c-.679-.194-1.343-.4-2.006-.631A32.991,32.991,0,0,1,6.519,43.254a7.258,7.258,0,0,1-3.041-4.837c0-2.96,5.112-6.745,12.488-9.317.922-.324,1.86-.615,2.8-.89A86.013,86.013,0,0,0,22.727,38.5a88.42,88.42,0,0,0-4.012,10.433ZM37.576,64.784a29.607,29.607,0,0,1-9.123,5.71,7.16,7.16,0,0,1-5.71.21c-2.572-1.488-3.64-7.2-2.184-14.882.178-.906.372-1.812.6-2.7a80.922,80.922,0,0,0,10.983,1.585,85.363,85.363,0,0,0,6.988,8.638C38.611,63.846,38.094,64.331,37.576,64.784Zm3.963-3.931c-1.65-1.779-3.3-3.753-4.9-5.872,1.553.065,3.154.1,4.772.1,1.666,0,3.3-.032,4.917-.113a69.759,69.759,0,0,1-4.788,5.888Zm21.142,4.853a7.189,7.189,0,0,1-2.669,5.063c-2.572,1.488-8.055-.453-13.976-5.532-.679-.582-1.359-1.213-2.054-1.86a80.019,80.019,0,0,0,6.826-8.67,79.74,79.74,0,0,0,11.032-1.7c.162.663.307,1.326.437,1.973a29.487,29.487,0,0,1,.4,10.724Zm2.944-17.389c-.453.146-.906.291-1.375.421a82.172,82.172,0,0,0-4.125-10.32,81.761,81.761,0,0,0,3.963-10.175c.841.243,1.65.5,2.426.76,7.538,2.588,12.827,6.438,12.827,9.382,0,3.17-5.645,7.263-13.717,9.932ZM41.41,45.891A7.408,7.408,0,1,0,34,38.482,7.407,7.407,0,0,0,41.41,45.891Z" transform="translate(0 -2.251)"/>
</svg>
