<svg xmlns="http://www.w3.org/2000/svg" width="65.496" height="65.496" viewBox="0 0 65.496 65.496">
  <defs>
    <style>
      .cls-1 {
        fill: #297eff;
      }
    </style>
  </defs>
  <path id="Icon_awesome-js-square" data-name="Icon awesome-js-square" class="cls-1" d="M58.479,2.25H7.017A7.019,7.019,0,0,0,0,9.267V60.729a7.019,7.019,0,0,0,7.017,7.017H58.479A7.019,7.019,0,0,0,65.5,60.729V9.267A7.019,7.019,0,0,0,58.479,2.25ZM35.643,53.331c0,6.374-3.743,9.284-9.2,9.284a9.562,9.562,0,0,1-9.24-5.629l5.015-3.026c.965,1.711,1.842,3.158,3.962,3.158,2.018,0,3.3-.789,3.3-3.874V32.323h6.155ZM50.2,62.615c-5.716,0-9.415-2.719-11.213-6.286l5.015-2.895c1.316,2.149,3.041,3.743,6.067,3.743,2.544,0,4.181-1.272,4.181-3.041,0-2.105-1.667-2.851-4.488-4.094l-1.535-.658c-4.444-1.886-7.383-4.269-7.383-9.284,0-4.62,3.523-8.129,9.006-8.129,3.918,0,6.725,1.36,8.743,4.927l-4.8,3.07c-1.053-1.886-2.193-2.632-3.962-2.632A2.672,2.672,0,0,0,46.9,39.969c0,1.842,1.14,2.588,3.787,3.743l1.535.658c5.234,2.237,8.172,4.532,8.172,9.678,0,5.526-4.357,8.567-10.19,8.567Z" transform="translate(0 -2.25)"/>
</svg>
