<svg id="Group_29" data-name="Group 29" xmlns="http://www.w3.org/2000/svg" width="869.539" height="557.917" viewBox="0 0 869.539 557.917">
  <defs>
    <style>
      .cls-1 {
        fill: #e6e6e6;
      }

      .cls-2 {
        fill: #fff;
      }

      .cls-3 {
        fill: #6c63ff;
      }

      .cls-4 {
        fill: #ccc;
      }

      .cls-5 {
        fill: #ffb9b9;
      }

      .cls-6 {
        fill: #2f2e41;
      }

      .cls-7 {
        fill: #3f3d56;
      }
    </style>
  </defs>
  <rect id="Rectangle_104" data-name="Rectangle 104" class="cls-1" width="598.835" height="383.521" transform="translate(270.704 0.339)"/>
  <rect id="Rectangle_105" data-name="Rectangle 105" class="cls-2" width="564.589" height="312.729" transform="translate(287.828 48.443)"/>
  <rect id="Rectangle_106" data-name="Rectangle 106" class="cls-3" width="598.835" height="25.441" transform="translate(270.448)"/>
  <circle id="Ellipse_29" data-name="Ellipse 29" class="cls-2" cx="4.715" cy="4.715" r="4.715" transform="translate(284.638 8.291)"/>
  <circle id="Ellipse_30" data-name="Ellipse 30" class="cls-2" cx="4.715" cy="4.715" r="4.715" transform="translate(302.537 8.291)"/>
  <circle id="Ellipse_31" data-name="Ellipse 31" class="cls-2" cx="4.715" cy="4.715" r="4.715" transform="translate(320.434 8.291)"/>
  <path id="Path_229" data-name="Path 229" class="cls-4" d="M859.425,244.465H675.613a1.631,1.631,0,0,1,0-3.235H859.425a1.631,1.631,0,0,1,0,3.235Z" transform="translate(-166.762 -166.731)"/>
  <path id="Path_230" data-name="Path 230" class="cls-4" d="M730.788,262.632H613.92a1.631,1.631,0,0,1,0-3.235H730.788a1.631,1.631,0,0,1,0,3.235Z" transform="translate(-165.488 -167.106)"/>
  <path id="Path_231" data-name="Path 231" class="cls-4" d="M860.836,262.962H743.968a1.631,1.631,0,0,1,0-3.235H860.836a1.631,1.631,0,0,1,0,3.235Z" transform="translate(-168.173 -167.113)"/>
  <path id="Path_232" data-name="Path 232" class="cls-4" d="M731.077,280.8H614.21a1.631,1.631,0,0,1,0-3.235H731.077a1.631,1.631,0,0,1,0,3.235Z" transform="translate(-165.494 -167.481)"/>
  <path id="Path_233" data-name="Path 233" class="cls-4" d="M731.367,298.967H614.5a1.631,1.631,0,0,1,0-3.235H731.367a1.631,1.631,0,0,1,0,3.235Z" transform="translate(-165.5 -167.856)"/>
  <path id="Path_234" data-name="Path 234" class="cls-4" d="M787.288,280.8H753.816a1.631,1.631,0,0,1,0-3.235h33.472a1.631,1.631,0,0,1,0,3.235Z" transform="translate(-168.377 -167.481)"/>
  <path id="Path_235" data-name="Path 235" class="cls-4" d="M787.288,298.637H753.816a1.631,1.631,0,0,1,0-3.235h33.472a1.631,1.631,0,0,1,0,3.235Z" transform="translate(-168.377 -167.849)"/>
  <path id="Path_236" data-name="Path 236" class="cls-4" d="M844.638,298.637H811.165a1.631,1.631,0,0,1,0-3.235h33.472a1.632,1.632,0,0,1,0,3.235Z" transform="translate(-169.561 -167.849)"/>
  <path id="Path_237" data-name="Path 237" class="cls-4" d="M646.523,244.465H613.052a1.631,1.631,0,0,1,0-3.235h33.472a1.631,1.631,0,0,1,0,3.235Z" transform="translate(-165.47 -166.731)"/>
  <path id="Path_238" data-name="Path 238" class="cls-4" d="M730.353,452.77H613.485a1.631,1.631,0,0,1,0-3.235H730.353a1.632,1.632,0,0,1,0,3.235Z" transform="translate(-165.479 -171.032)"/>
  <path id="Path_239" data-name="Path 239" class="cls-4" d="M729.774,489.1H612.906a1.632,1.632,0,0,1,0-3.235H729.774a1.631,1.631,0,0,1,0,3.235Z" transform="translate(-165.467 -171.782)"/>
  <path id="Path_240" data-name="Path 240" class="cls-4" d="M730.064,507.273H613.2a1.631,1.631,0,0,1,0-3.235H730.064a1.631,1.631,0,0,1,0,3.235Z" transform="translate(-165.473 -172.157)"/>
  <path id="Path_241" data-name="Path 241" class="cls-4" d="M782.8,489.436H749.327a1.631,1.631,0,0,1,0-3.235H782.8a1.631,1.631,0,0,1,0,3.235Z" transform="translate(-168.284 -171.789)"/>
  <path id="Path_242" data-name="Path 242" class="cls-4" d="M782.8,507.273H749.327a1.631,1.631,0,0,1,0-3.235H782.8a1.631,1.631,0,0,1,0,3.235Z" transform="translate(-168.284 -172.157)"/>
  <path id="Path_243" data-name="Path 243" class="cls-4" d="M840.147,489.436H806.676a1.631,1.631,0,0,1,0-3.235h33.472a1.632,1.632,0,0,1,0,3.235Z" transform="translate(-169.468 -171.789)"/>
  <path id="Path_244" data-name="Path 244" class="cls-4" d="M859.57,470.938H675.758a1.631,1.631,0,0,1,0-3.235H859.57a1.631,1.631,0,0,1,0,3.235Z" transform="translate(-166.765 -171.407)"/>
  <path id="Path_245" data-name="Path 245" class="cls-4" d="M646.667,470.938H613.2a1.631,1.631,0,0,1,0-3.235h33.472a1.631,1.631,0,0,1,0,3.235Z" transform="translate(-165.473 -171.407)"/>
  <path id="Path_246" data-name="Path 246" class="cls-1" d="M547.008,163.221,501.622,208.04l45.386,44.818,10.212-10.212L522.9,208.323,557.5,173.717Z" transform="translate(-10.358 -3.37)"/>
  <path id="Path_247" data-name="Path 247" class="cls-1" d="M616.1,163.221l45.385,44.819L616.1,252.858l-10.212-10.212,34.322-34.323L605.6,173.717Z" transform="translate(-12.505 -3.37)"/>
  <path id="Path_248" data-name="Path 248" class="cls-3" d="M547.008,163.221,501.622,208.04l45.386,44.818,10.212-10.212L522.9,208.323,557.5,173.717Z" transform="translate(-10.358 -3.37)"/>
  <path id="Path_249" data-name="Path 249" class="cls-3" d="M616.1,163.221l45.385,44.819L616.1,252.858l-10.212-10.212,34.322-34.323L605.6,173.717Z" transform="translate(-12.505 -3.37)"/>
  <path id="Path_250" data-name="Path 250" class="cls-1" d="M626.474,710.192c14.122,18.912,43.436,20.9,43.436,20.9s6.418-28.672-7.7-47.585-43.436-20.9-43.436-20.9S612.352,691.28,626.474,710.192Z" transform="translate(-165.588 -175.431)"/>
  <path id="Path_251" data-name="Path 251" class="cls-1" d="M699.5,717.793c-9.319,12.48-28.662,13.793-28.662,13.793s-4.235-18.92,5.083-31.4,28.662-13.793,28.662-13.793S708.817,705.313,699.5,717.793Z" transform="translate(-166.673 -175.923)"/>
  <path id="Path_252" data-name="Path 252" class="cls-5" d="M149.332,460.945v49.091H135.306l-9.35-51.429Z" transform="translate(-2.601 -9.469)"/>
  <path id="Path_253" data-name="Path 253" class="cls-5" d="M35.952,460.945v49.091H21.927l-9.351-51.429Z" transform="translate(-0.26 -9.469)"/>
  <path id="Path_254" data-name="Path 254" class="cls-5" d="M267.521,256.42s-22.539-16.2-25.356-8.452,16.9,21.835,16.9,21.835Z" transform="translate(-157.836 -166.826)"/>
  <path id="Path_255" data-name="Path 255" class="cls-6" d="M186.433,276.789c0,28.008,12.059,28.878,31.7,28.878s39.435-.87,39.435-28.878S241.646,226.077,222,226.077,186.433,248.781,186.433,276.789Z" transform="translate(-156.691 -166.418)"/>
  <path id="Path_256" data-name="Path 256" class="cls-5" d="M235,277.459s-2.817,21.13,10.565,22.539-43.669,5.635-43.669,5.635,14.791-13.383,7.043-23.948S235,277.459,235,277.459Z" transform="translate(-157.01 -167.44)"/>
  <path id="Path_257" data-name="Path 257" class="cls-6" d="M307.775,662.983l4.93,41.556s24.652,30.287,9.156,28.174-25.356.449-25.356-2.368-.364-12.883-2.477-12.883-3.862,15.895-3.862,15.895-6.339-.48-7.043-1.184-1.409-41.015-1.409-41.015-2.113-11.974,2.113-17.608,3.522-10.565,3.522-10.565Z" transform="translate(-158.647 -175.439)"/>
  <path id="Path_258" data-name="Path 258" class="cls-6" d="M193.2,662.517l4.93,41.556s24.652,30.286,9.156,28.173-25.356.449-25.356-2.368-.364-12.883-2.477-12.883-3.862,15.895-3.862,15.895-6.339-.48-7.043-1.184-1.409-41.016-1.409-41.016-2.113-11.974,2.113-17.608,3.522-10.565,3.522-10.565Z" transform="translate(-156.281 -175.43)"/>
  <path id="Path_259" data-name="Path 259" class="cls-6" d="M268.75,410.548s22.539,64.095,23.948,78.181-1.409,61.982-1.409,61.982,20.426,82.754,16.2,83.458-27.76,4.044-28.465.522-3.215-8.974-2.511-11.087-2.113-9.86-2.113-14.086-9.876-26.407-9.172-29.929-11.974-55.643-14.087-59.869-7.748-33.808-7.748-33.808-31.7,86.634-32.4,88.747-3.522,5.635-2.113,6.339-2.113,5.635-2.113,5.635-7.3,29.224-7.3,30.633,1.409,17.353-1.409,18.058-31.6.659-33-4.271S180,569.025,180,569.025s11.974-35.921,8.452-45.078,3.522-64.095,6.339-68.321,3.522-29.582,3.522-29.582Z" transform="translate(-156.248 -170.227)"/>
  <circle id="Ellipse_32" data-name="Ellipse 32" class="cls-5" cx="22.539" cy="22.539" r="22.539" transform="translate(43.125 76.563)"/>
  <path id="Path_260" data-name="Path 260" class="cls-3" d="M234.362,295.441s-25.356.7-26.765-1.409-36.626,4.93-36.626,19.017S191.4,382.074,191.4,382.074s7.748,39.443,5.635,43.669,78.181-9.156,76.068-16.2S259.013,387,274.509,373.622s21.834-27.469,21.834-27.469l-18.313-48.6s-18.313-2.817-22.539,0S234.362,295.441,234.362,295.441Z" transform="translate(-156.371 -167.813)"/>
  <path id="Path_261" data-name="Path 261" class="cls-3" d="M293.1,348.85l4.93-3.522s45.782-47.9,33.808-57.051-29.583-17.609-38.034-18.313-15.5-7.043-15.5-7.043-9.156-16.2-16.2-5.635-14.791,14.087-4.93,17.608,16.2,2.113,21.13,5.635,23.947,9.156,15.5,11.269a75.6,75.6,0,0,0-14.087,4.93l-9.156,16.2Z" transform="translate(-158.055 -166.988)"/>
  <path id="Path_262" data-name="Path 262" class="cls-5" d="M212.372,472.4s18.313,26.765,4.93,25.356-19.721-19.722-19.721-19.722Z" transform="translate(-156.921 -171.504)"/>
  <path id="Path_263" data-name="Path 263" class="cls-3" d="M175.749,309.862l-4.93,3.522s-16.2,88.747,0,111.99,17.608,21.834,17.608,21.834,2.817-2.113,4.226,11.974-.7,19.721,3.522,19.721,23.243-4.226,21.834-7.748-10.565-23.948-11.269-28.878-4.226-16.2-5.635-22.539,6.339-9.861,2.817-23.243-8.452-37.33-8.452-42.26S175.749,309.862,175.749,309.862Z" transform="translate(-156.22 -168.148)"/>
  <path id="Path_264" data-name="Path 264" class="cls-6" d="M200.817,245.564c0,7.585,10.406,13.735,23.243,13.735s24.652,4.064,24.652-3.522S236.9,231.83,224.06,231.83,200.817,237.979,200.817,245.564Z" transform="translate(-156.988 -166.537)"/>
  <path id="Path_265" data-name="Path 265" class="cls-6" d="M258.121,282.712s.949,25.533-24.424,24.124,3.429-21.825,3.429-21.825Z" transform="translate(-157.451 -167.587)"/>
  <rect id="Rectangle_107" data-name="Rectangle 107" class="cls-7" width="688.392" height="2.194" transform="translate(0 555.664)"/>
</svg>
