<svg xmlns="http://www.w3.org/2000/svg" width="225.028" height="179.859" viewBox="0 0 225.028 179.859">
  <defs>
    <style>
      .cls-1, .cls-2 {
        fill: #6c63ff;
      }

      .cls-1, .cls-5 {
        opacity: 0.1;
      }

      .cls-3 {
        fill: #46455b;
      }

      .cls-4 {
        fill: #3f3d56;
      }

      .cls-6 {
        fill: #323444;
      }

      .cls-7 {
        fill: #fbb3b2;
      }

      .cls-8 {
        fill: #5b5583;
      }

      .cls-9 {
        fill: #3c354c;
      }

      .cls-10 {
        fill: #cbceda;
      }

      .cls-11 {
        fill: #a8a8a8;
      }

      .cls-12 {
        opacity: 0.2;
      }
    </style>
  </defs>
  <g id="Group_17" data-name="Group 17" transform="translate(0)">
    <rect id="Rectangle_49" data-name="Rectangle 49" class="cls-1" width="20.406" height="6.169" rx="3.085" transform="translate(46.002 30.847)"/>
    <rect id="Rectangle_50" data-name="Rectangle 50" class="cls-1" width="20.406" height="6.169" rx="3.085" transform="translate(67.357 37.016)"/>
    <rect id="Rectangle_51" data-name="Rectangle 51" class="cls-1" width="20.406" height="6.169" rx="3.085" transform="translate(88.712 43.185)"/>
    <rect id="Rectangle_52" data-name="Rectangle 52" class="cls-1" width="20.406" height="6.169" rx="3.085" transform="translate(46.002 21.593)"/>
    <rect id="Rectangle_53" data-name="Rectangle 53" class="cls-1" width="20.406" height="6.169" rx="3.085" transform="translate(67.357 27.762)"/>
    <rect id="Rectangle_54" data-name="Rectangle 54" class="cls-1" width="20.406" height="6.169" rx="3.085" transform="translate(88.712 33.931)"/>
    <rect id="Rectangle_55" data-name="Rectangle 55" class="cls-1" width="20.406" height="6.169" rx="3.085" transform="translate(112.44 30.847)"/>
    <rect id="Rectangle_56" data-name="Rectangle 56" class="cls-1" width="20.406" height="6.169" rx="3.085" transform="translate(133.796 37.016)"/>
    <rect id="Rectangle_57" data-name="Rectangle 57" class="cls-1" width="20.406" height="6.169" rx="3.085" transform="translate(155.151 43.185)"/>
    <rect id="Rectangle_58" data-name="Rectangle 58" class="cls-1" width="20.406" height="6.169" rx="3.085" transform="translate(112.44 21.593)"/>
    <rect id="Rectangle_59" data-name="Rectangle 59" class="cls-1" width="20.406" height="6.169" rx="3.085" transform="translate(133.796 27.762)"/>
    <rect id="Rectangle_60" data-name="Rectangle 60" class="cls-1" width="20.406" height="6.169" rx="3.085" transform="translate(155.151 33.931)"/>
    <rect id="Rectangle_61" data-name="Rectangle 61" class="cls-1" width="20.406" height="6.169" rx="3.085" transform="translate(46.002 9.254)"/>
    <rect id="Rectangle_62" data-name="Rectangle 62" class="cls-1" width="20.406" height="6.169" rx="3.085" transform="translate(67.357 15.423)"/>
    <rect id="Rectangle_63" data-name="Rectangle 63" class="cls-1" width="20.406" height="6.169" rx="3.085" transform="translate(88.712 21.593)"/>
    <rect id="Rectangle_64" data-name="Rectangle 64" class="cls-1" width="20.406" height="6.169" rx="3.085" transform="translate(46.002)"/>
    <rect id="Rectangle_65" data-name="Rectangle 65" class="cls-1" width="20.406" height="6.169" rx="3.085" transform="translate(67.357 6.169)"/>
    <rect id="Rectangle_66" data-name="Rectangle 66" class="cls-1" width="20.406" height="6.169" rx="3.085" transform="translate(88.712 12.339)"/>
    <rect id="Rectangle_67" data-name="Rectangle 67" class="cls-1" width="20.406" height="6.169" rx="3.085" transform="translate(112.44 9.254)"/>
    <rect id="Rectangle_68" data-name="Rectangle 68" class="cls-1" width="20.406" height="6.169" rx="3.085" transform="translate(133.796 15.423)"/>
    <rect id="Rectangle_69" data-name="Rectangle 69" class="cls-1" width="20.406" height="6.169" rx="3.085" transform="translate(155.151 21.593)"/>
    <rect id="Rectangle_70" data-name="Rectangle 70" class="cls-1" width="20.406" height="6.169" rx="3.085" transform="translate(112.44)"/>
    <rect id="Rectangle_71" data-name="Rectangle 71" class="cls-1" width="20.406" height="6.169" rx="3.085" transform="translate(133.796 6.169)"/>
    <rect id="Rectangle_72" data-name="Rectangle 72" class="cls-1" width="20.406" height="6.169" rx="3.085" transform="translate(155.151 12.339)"/>
    <rect id="Rectangle_73" data-name="Rectangle 73" class="cls-1" width="20.406" height="6.169" rx="3.085" transform="translate(46.002 140.708)"/>
    <rect id="Rectangle_74" data-name="Rectangle 74" class="cls-1" width="20.406" height="6.169" rx="3.085" transform="translate(67.357 146.877)"/>
    <rect id="Rectangle_75" data-name="Rectangle 75" class="cls-1" width="20.406" height="6.169" rx="3.085" transform="translate(88.712 153.046)"/>
    <rect id="Rectangle_76" data-name="Rectangle 76" class="cls-1" width="20.406" height="6.169" rx="3.085" transform="translate(46.002 131.454)"/>
    <rect id="Rectangle_77" data-name="Rectangle 77" class="cls-1" width="20.406" height="6.169" rx="3.085" transform="translate(67.357 137.623)"/>
    <rect id="Rectangle_78" data-name="Rectangle 78" class="cls-1" width="20.406" height="6.169" rx="3.085" transform="translate(88.712 143.792)"/>
    <rect id="Rectangle_79" data-name="Rectangle 79" class="cls-1" width="20.406" height="6.169" rx="3.085" transform="translate(112.44 140.708)"/>
    <rect id="Rectangle_80" data-name="Rectangle 80" class="cls-1" width="20.406" height="6.169" rx="3.085" transform="translate(133.796 146.877)"/>
    <rect id="Rectangle_81" data-name="Rectangle 81" class="cls-1" width="20.406" height="6.169" rx="3.085" transform="translate(155.151 153.046)"/>
    <rect id="Rectangle_82" data-name="Rectangle 82" class="cls-1" width="20.406" height="6.169" rx="3.085" transform="translate(112.44 131.454)"/>
    <rect id="Rectangle_83" data-name="Rectangle 83" class="cls-1" width="20.406" height="6.169" rx="3.085" transform="translate(133.796 137.623)"/>
    <rect id="Rectangle_84" data-name="Rectangle 84" class="cls-1" width="20.406" height="6.169" rx="3.085" transform="translate(155.151 143.792)"/>
    <rect id="Rectangle_85" data-name="Rectangle 85" class="cls-1" width="20.406" height="6.169" rx="3.085" transform="translate(46.002 119.115)"/>
    <rect id="Rectangle_86" data-name="Rectangle 86" class="cls-1" width="20.406" height="6.169" rx="3.085" transform="translate(67.357 125.284)"/>
    <rect id="Rectangle_87" data-name="Rectangle 87" class="cls-1" width="20.406" height="6.169" rx="3.085" transform="translate(88.712 131.454)"/>
    <rect id="Rectangle_88" data-name="Rectangle 88" class="cls-1" width="20.406" height="6.169" rx="3.085" transform="translate(46.002 109.861)"/>
    <rect id="Rectangle_89" data-name="Rectangle 89" class="cls-1" width="20.406" height="6.169" rx="3.085" transform="translate(67.357 116.03)"/>
    <rect id="Rectangle_90" data-name="Rectangle 90" class="cls-1" width="20.406" height="6.169" rx="3.085" transform="translate(88.712 122.2)"/>
    <rect id="Rectangle_91" data-name="Rectangle 91" class="cls-1" width="20.406" height="6.169" rx="3.085" transform="translate(112.44 119.115)"/>
    <rect id="Rectangle_92" data-name="Rectangle 92" class="cls-1" width="20.406" height="6.169" rx="3.085" transform="translate(133.796 125.284)"/>
    <rect id="Rectangle_93" data-name="Rectangle 93" class="cls-1" width="20.406" height="6.169" rx="3.085" transform="translate(155.151 131.454)"/>
    <rect id="Rectangle_94" data-name="Rectangle 94" class="cls-1" width="20.406" height="6.169" rx="3.085" transform="translate(112.44 109.861)"/>
    <rect id="Rectangle_95" data-name="Rectangle 95" class="cls-1" width="20.406" height="6.169" rx="3.085" transform="translate(133.796 116.03)"/>
    <rect id="Rectangle_96" data-name="Rectangle 96" class="cls-1" width="20.406" height="6.169" rx="3.085" transform="translate(155.151 122.2)"/>
    <ellipse id="Ellipse_25" data-name="Ellipse 25" class="cls-1" cx="104.048" cy="8.542" rx="104.048" ry="8.542" transform="translate(10.41 162.775)"/>
    <path id="Path_175" data-name="Path 175" class="cls-2" d="M145.906,248.88c9.812,4.252,15.449,13.05,15.449,13.05s-10.272,1.9-20.086-2.351-15.449-13.05-15.449-13.05S136.092,244.628,145.906,248.88Z" transform="translate(-125.82 -204.556)"/>
    <path id="Path_176" data-name="Path 176" class="cls-2" d="M328.385,165.356a20.978,20.978,0,0,1,8.2-7.356,21.138,21.138,0,0,1-2.788,10.649,20.927,20.927,0,0,1-8.205,7.339A20.94,20.94,0,0,1,328.385,165.356Z" transform="translate(-278.188 -137.357)"/>
    <path id="Path_177" data-name="Path 177" class="cls-3" d="M240.471,162.549a29.073,29.073,0,0,0,8.155,12.851,26.4,26.4,0,0,0-7.864-28.07A29.047,29.047,0,0,0,240.471,162.549Z" transform="translate(-212.583 -129.218)"/>
    <rect id="Rectangle_97" data-name="Rectangle 97" class="cls-4" width="172.978" height="86.608" rx="7.21" transform="translate(28.206 32.982)"/>
    <path id="Path_178" data-name="Path 178" class="cls-5" d="M118.87,482H291.848v3.509a1.711,1.711,0,0,1-1.711,1.711H120.581a1.711,1.711,0,0,1-1.711-1.711Z" transform="translate(-90.664 -367.63)"/>
    <rect id="Rectangle_98" data-name="Rectangle 98" class="cls-2" width="12.813" height="6.407" rx="2.5" transform="translate(45.053 107.963)"/>
    <rect id="Rectangle_99" data-name="Rectangle 99" class="cls-2" width="8.779" height="0.949" rx="0.475" transform="translate(61.425 113.42)"/>
    <path id="Path_179" data-name="Path 179" class="cls-2" d="M306.626,268.286c6.262,1.156,12.649,0,18.885-.783l18.952-2.373c.766-.1,1.882-.555,2.332.382a7.226,7.226,0,0,1,.1,2.264c.05,1.661.045,3.322,0,4.983-.085,3.175-.318,6.343-.615,9.5-.577,6.186-1.393,12.339-1.8,18.548-.209,3.161-.313,6.331-.221,9.491.021.755.052,1.509.1,2.261.05.842.427,2.093-.491,2.655a6.79,6.79,0,0,1-2.157.4c-.949.149-1.9.268-2.866.365-6.38.638-12.844.373-19.248.335l-19.338-.1-4.717-.026c-.427,0-1.967.256-2.23-.251a5.023,5.023,0,0,1,.237-1.5q.109-.669.237-1.336c.551-3.12,1.2-6.221,1.856-9.32a165.2,165.2,0,0,0,3.426-20.107c.287-3.4.1-6.841.448-10.239.164-1.578.358-5.1,2.458-5.239,1.78-.119,3.611,0,5.4,0a.356.356,0,0,0,0-.712c-1.685,0-3.372-.045-5.056-.012a2.406,2.406,0,0,0-2.432,1.317c-1.364,2.643-1.224,6.169-1.267,9.055a109.863,109.863,0,0,1-2.544,20.423c-.7,3.4-1.445,6.789-2.136,10.191-.325,1.625-.636,3.255-.921,4.89-.133.778-.8,2.494-.214,3.208s2.408.33,3.222.335l5.662.033,10.848.062c7.009.04,14.042.237,21.049.031a49.228,49.228,0,0,0,10.139-1.037,1.624,1.624,0,0,0,1.476-1.718c.057-1.6-.2-3.258-.237-4.869-.237-13.786,3-27.38,2.669-41.171-.021-.937.332-3.3-.693-3.868a2.589,2.589,0,0,0-1.542-.059c-.925.107-1.848.237-2.774.346l-12.018,1.5c-3.842.475-7.681.987-11.53,1.424a40.839,40.839,0,0,1-12.248,0c-.448-.083-.641.6-.19.686Z" transform="translate(-252.996 -218.367)"/>
    <path id="Path_180" data-name="Path 180" class="cls-2" d="M318.9,306.965l47.414-2.325c.458-.024.46-.736,0-.712L318.9,306.254C318.443,306.275,318.441,306.987,318.9,306.965Z" transform="translate(-272.824 -248.658)"/>
    <path id="Path_181" data-name="Path 181" class="cls-2" d="M380.52,284.627a1.186,1.186,0,0,0,.42,1.915,3.118,3.118,0,0,0,2.022-.112c.949-.237,1.9-.448,2.873-.622a39.184,39.184,0,0,1,6.428-.6c.982-.012,1.958.033,2.94.076a3.176,3.176,0,0,0,2.081-.356,1.344,1.344,0,0,0,.237-2.1c-.949-.866-2.995-.363-4.091-.273a91.736,91.736,0,0,0-11.831,1.765c-.446.095-.259.783.19.686q3.861-.833,7.78-1.338,1.927-.237,3.861-.4c.607-.05,1.215-.095,1.822-.13.237-.014.489-.04.731-.033.752.017.84-.119.389.79-.4.8-.273.712-.968.686-.294,0-.588-.033-.883-.047q-.9-.038-1.808-.04-1.924,0-3.839.185c-1.082.1-2.162.252-3.232.441-.669.119-1.334.256-2,.408-.292.069-.586.14-.878.214-.14.038-.282.071-.422.107q-.778.27-1.326-.712c.318-.33-.183-.835-.5-.5Z" transform="translate(-319.838 -232.188)"/>
    <path id="Path_182" data-name="Path 182" class="cls-2" d="M381.419,332.918c-3.433-.133-7.142.795-9.4,3.559-1.77,2.162-2.779,5.87-.9,8.3,2.015,2.61,6.433,2.15,9.1,1.037,2.819-1.186,5.9-3.633,6.751-6.694,1.056-3.823-2.373-6.713-5.944-6.755a.356.356,0,0,0,0,.712A5.431,5.431,0,0,1,386,335.875c.994,2,.138,4.1-1.186,5.695a11.759,11.759,0,0,1-8.817,4.411c-2.029-.031-4.271-.726-4.9-2.866a6.625,6.625,0,0,1,.778-5.168c1.95-3.322,5.92-4.447,9.56-4.3.458.017.458-.7,0-.712Z" transform="translate(-312.142 -270.352)"/>
    <path id="Path_183" data-name="Path 183" class="cls-2" d="M399.4,349.259a.925.925,0,0,0-1.243.949c.071.925,1.091,1.186,1.858,1.132.662-.057,1.436-.3,1.2-1.129a1.063,1.063,0,0,0-.579-.669,1.341,1.341,0,0,0-.669-.083c-.088,0-.892.294-.55-.059l-.56-.074a.584.584,0,0,1,.171.475.358.358,0,0,0,.534.306.475.475,0,0,1,.643.555.358.358,0,0,0,.65.275c.237-.427.524-1.277.168-1.723a.759.759,0,0,0-.98-.036,3.435,3.435,0,0,0-.489.42c-.287.254-.475.373-.368-.114a3.077,3.077,0,0,1,1.794-1.943l-.522-.4a7.5,7.5,0,0,1-1.436,2.812l.607.251a1.585,1.585,0,0,1,.968-1.545h-.349l.185.3c-.069.448.617.641.686.187.09-.586-.28-1.348-.966-1.061a2.235,2.235,0,0,0-1.227,2.114c0,.285.4.505.61.254a8.367,8.367,0,0,0,1.616-3.13.361.361,0,0,0-.524-.4,3.979,3.979,0,0,0-1.727,1.5c-.29.475-.653,1.215-.358,1.761a.755.755,0,0,0,1.032.292,2.777,2.777,0,0,0,.6-.475c.088-.078.185-.214.3-.237.1-.071.1-.031-.017.126a1.293,1.293,0,0,1-.206.693l.65.273a1.186,1.186,0,0,0-1.687-1.36l.536.308a1.293,1.293,0,0,0-.268-.838.361.361,0,0,0-.558-.074.931.931,0,0,0,.024,1.379c.339.259.505,0,.878-.059,1.265-.164.527.406.081.425a1.681,1.681,0,0,1-.6-.043q-.743-.251-.093-.648c.425.173.607-.515.19-.686Z" transform="translate(-333.535 -281.42)"/>
    <path id="Path_184" data-name="Path 184" class="cls-2" d="M389.625,360.972c.292.949-.914,1.262-1.485,1.59a3.308,3.308,0,0,0-1.027.9,6.87,6.87,0,0,0-1.018,2.783c-.09.448.6.638.688.19a8.07,8.07,0,0,1,.6-2.048,3.616,3.616,0,0,1,1.837-1.571,1.725,1.725,0,0,0,1.091-2.034C390.177,360.345,389.489,360.533,389.625,360.972Z" transform="translate(-324.33 -291.833)"/>
    <path id="Path_185" data-name="Path 185" class="cls-2" d="M393.8,360.37a.688.688,0,0,0-.593.712c0,.282.187.463.316.688a5.434,5.434,0,0,1,.688,1.5,3.23,3.23,0,0,1-.04,1.9c-.491.88-1.379.712-2.136.712-.712,0-1.262.237-1.239-.755a3.156,3.156,0,0,1,.712-1.561l-.65-.085a12.4,12.4,0,0,1,.216,2.2c0,.33.505.513.662.178a13.745,13.745,0,0,0,.9-2.5l-.7-.095.123,1.8a.358.358,0,0,0,.662.18.807.807,0,0,0,.178-.32c.024-.112-.195-.864-.282-.6l.7.095.05-1.713-.712.095a3.545,3.545,0,0,1,.133,1.495c-.045.4.622.486.712.095l.446-2.3-.65.083a1.573,1.573,0,0,1,.121,1.025c-.052.456.66.451.712,0a2.5,2.5,0,0,0-.218-1.383.358.358,0,0,0-.65.085l-.448,2.3.7.095a3.882,3.882,0,0,0-.159-1.682.356.356,0,0,0-.7.093l-.05,1.713a.358.358,0,0,0,.7.095l.038-.116a.361.361,0,0,0-.09-.346c-.738-.8-.887.475-1.144.828l.664.18-.123-1.8a.358.358,0,0,0-.7-.095,12.757,12.757,0,0,1-.83,2.332l.664.18a13.414,13.414,0,0,0-.237-2.387c-.062-.327-.491-.313-.65-.085-.475.683-1.3,2.176-.662,2.995.553.712,2.292.437,3.035.391,1.172-.066,1.6-.809,1.725-1.915a4.689,4.689,0,0,0-.088-1.585c-.064-.28-.712-2.055-.906-2.019.451-.083.259-.771-.19-.688Z" transform="translate(-327.32 -291.708)"/>
    <path id="Path_186" data-name="Path 186" class="cls-2" d="M393.468,363.96l-1.943,2.565.615.358,1.424-2.06-.65-.275-.709,2.707a.358.358,0,0,0,.65.275A12.51,12.51,0,0,1,393.938,366l-.593-.346a3.875,3.875,0,0,1-.895,1.644l.6.346a3.179,3.179,0,0,1,.259-.949c.183-.411-.4-.774-.615-.361a8.354,8.354,0,0,1-.686,1.077l.65.085.145-.676-.65-.085.1.593a.358.358,0,0,0,.6.157,7.086,7.086,0,0,0,1.424-2.147h-.612a3.2,3.2,0,0,1,.335.949c.085.427.652.268.7-.095a19.291,19.291,0,0,0,.157-2.4h-.712v1.492c0,.387.634.5.7.095a2.72,2.72,0,0,1,.349-1.02h-.624a1.582,1.582,0,0,1,.237.807.356.356,0,1,0,.712,0l.09-.475h-.686c.069.42.33,2.786-.6,2.508-.157-.038-.2-.028-.135.026l.211-.451.5-1.051-.664-.18a2.6,2.6,0,0,1-.206,1.6,1.229,1.229,0,0,1-1.341.275,2.372,2.372,0,0,1-.619-.65l-.486.475c.394.287,1.032.992,1.54,1.032.387.031.712-.289.966-.546a4.136,4.136,0,0,0,1.16-3.044.356.356,0,1,0-.712,0v.811a.356.356,0,0,0,.712,0v-1.991a.356.356,0,1,0-.712,0,8.546,8.546,0,0,1-.123,1.424l.7.095a16.391,16.391,0,0,1-.078-1.706.356.356,0,0,0-.7-.095c-.107.453-.237.9-.363,1.343l.65-.085-.05-.19c-.033-.453-.745-.456-.712,0a1.3,1.3,0,0,0,.147.551.36.36,0,0,0,.65-.085c.135-.446.256-.892.363-1.343l-.7-.095a16.382,16.382,0,0,0,.078,1.706c.036.365.624.522.7.095a9.8,9.8,0,0,0,.15-1.623h-.712V365.5h.712v-.811h-.712a3.422,3.422,0,0,1-.866,2.439,2.916,2.916,0,0,1-.3.294c-.168.161-.323.138-.458-.074a5.929,5.929,0,0,1-.98-.712c-.294-.211-.7.206-.489.486.546.726,1.36,1.535,2.373,1.186,1.065-.377,1.21-1.82,1.129-2.769-.026-.316-.5-.529-.662-.178-.237.5-.475,1-.712,1.5a1.327,1.327,0,0,0-.214.626c.078.534.726.446,1.125.415,1.545-.116,1.3-2.306,1.122-3.407-.059-.365-.591-.308-.686,0a2.094,2.094,0,0,0-.116.674h.712a2.821,2.821,0,0,0-.335-1.165.358.358,0,0,0-.615,0,3.46,3.46,0,0,0-.422,1.186l.712.095V363.8a.356.356,0,1,0-.712,0,19.3,19.3,0,0,1-.157,2.4l.7-.095a4.073,4.073,0,0,0-.406-1.11.358.358,0,0,0-.615,0,6.492,6.492,0,0,1-1.312,2l.6.157-.1-.593c-.055-.316-.5-.325-.65-.085a1.561,1.561,0,0,0-.216,1.224c.059.337.486.3.65.085a8.325,8.325,0,0,0,.686-1.075l-.615-.361a4.05,4.05,0,0,0-.332,1.118c-.043.313.33.641.6.346a4.745,4.745,0,0,0,1.077-1.96c.088-.323-.358-.629-.6-.346a13.6,13.6,0,0,0-1.186,1.661l.65.275.724-2.7a.358.358,0,0,0-.65-.275l-1.424,2.062c-.266.382.344.712.615.358l1.936-2.563c.275-.365-.342-.712-.615-.361Z" transform="translate(-328.365 -293.698)"/>
    <path id="Path_187" data-name="Path 187" class="cls-2" d="M526.044,322.7c2.847-1.742,5.111-4.34,7.626-6.513,2.729-2.356,5.593-4.551,8.542-6.63,5.728-4.034,11.743-7.643,17.753-11.242a.356.356,0,0,0-.358-.615c-6.01,3.6-12.028,7.2-17.756,11.242-2.7,1.9-5.341,3.91-7.871,6.046-2.752,2.325-5.2,5.22-8.3,7.1-.391.237-.033.854.358.615Z" transform="translate(-430.668 -243.879)"/>
    <path id="Path_188" data-name="Path 188" class="cls-2" d="M678.829,253.843c-3.085.313-6.407,1.1-8.3,3.8a8.624,8.624,0,0,0-.064,8.751c1.749,2.707,5.322,2.8,8.1,1.929s5.65-2.411,5.624-5.728a13.842,13.842,0,0,0-1.367-5.246c-.612-1.393-1.7-2.61-3.339-2.456-.453.043-.458.755,0,.712,2.2-.2,2.907,2.408,3.429,4.058.475,1.54.914,3.362.169,4.893s-2.541,2.311-4.077,2.871a8.526,8.526,0,0,1-5.22.475c-3.436-.961-4.385-5.315-3.4-8.4,1.139-3.559,5.173-4.606,8.459-4.938.451-.045.456-.757,0-.712Z" transform="translate(-540.342 -210.457)"/>
    <path id="Path_189" data-name="Path 189" class="cls-2" d="M698.829,369.843c-3.085.313-6.407,1.1-8.3,3.8a8.624,8.624,0,0,0-.064,8.751c1.749,2.707,5.322,2.8,8.1,1.929s5.65-2.411,5.624-5.728a13.843,13.843,0,0,0-1.367-5.246c-.612-1.393-1.7-2.61-3.339-2.456-.453.043-.458.755,0,.712,2.2-.2,2.907,2.408,3.429,4.058.475,1.54.914,3.362.168,4.893s-2.541,2.311-4.076,2.871a8.526,8.526,0,0,1-5.22.475c-3.436-.961-4.385-5.315-3.4-8.4,1.139-3.559,5.173-4.606,8.459-4.938.451-.045.456-.757,0-.712Z" transform="translate(-555.597 -298.932)"/>
    <path id="Path_190" data-name="Path 190" class="cls-2" d="M689.574,244.048l2.247,2.563a.358.358,0,0,0,.593-.159,13.737,13.737,0,0,0,.5-3.853,12.688,12.688,0,0,1,1.008-3.932,13.271,13.271,0,0,1,5.31-6.086c.391-.237.033-.854-.358-.615a13.933,13.933,0,0,0-5.37,5.9,13.634,13.634,0,0,0-1.186,3.766c-.237,1.54-.021,3.153-.591,4.632l.6-.159-2.235-2.558c-.3-.344-.8.161-.5.5Z" transform="translate(-555.74 -193.73)"/>
    <path id="Path_191" data-name="Path 191" class="cls-2" d="M531.493,411.453q18.358-.56,36.726-.237a.356.356,0,0,0,0-.712q-18.363-.327-36.726.237C531.035,410.755,531.033,411.467,531.493,411.453Z" transform="translate(-434.972 -329.854)"/>
    <path id="Path_192" data-name="Path 192" class="cls-2" d="M697.43,383.021a73.539,73.539,0,0,1,12.023,6.041c.389.237.747-.373.358-.615a74.319,74.319,0,0,0-12.182-6.112c-.425-.168-.61.52-.187.686Z" transform="translate(-561.625 -308.441)"/>
    <path id="Path_193" data-name="Path 193" class="cls-2" d="M707.747,371.342a29.066,29.066,0,0,0-6.978,17.685c-.019.458.693.458.712,0a28.27,28.27,0,0,1,6.77-17.182C708.547,371.5,708.046,370.993,707.747,371.342Z" transform="translate(-564.344 -299.987)"/>
    <path id="Path_194" data-name="Path 194" class="cls-2" d="M329.1,400.328l26.521-.346,3.049-.04c.548,0,1.1-.019,1.644-.021a1.308,1.308,0,0,1,1.277,1.424c-.036,1.661-1.08,1.6-2.446,1.661l-3.3.149-13.421.591c-2.4.107-4.81.237-7.213.32-2.169.066-6.293-.641-5.329-3.8.133-.439-.553-.626-.688-.19a3.5,3.5,0,0,0,1.718,3.941c1.92,1.153,4.449.762,6.568.667l16.477-.747,4-.178c1.025-.047,2.451.161,3.393-.316,1.106-.558,1.3-2.771.6-3.7a1.649,1.649,0,0,0-1.424-.539c-1.476-.057-2.978.04-4.456.059l-8.215.109-18.771.237a.356.356,0,0,0,0,.712Z" transform="translate(-280.593 -321.313)"/>
    <g id="Michel" transform="translate(152.321 53.298)">
      <path id="Path_195" data-name="Path 195" class="cls-6" d="M771.1,755.344c-.6.375-1.281.586-1.9.916a2.6,2.6,0,0,0-1.393,1.509.949.949,0,0,0,.031.645,1.252,1.252,0,0,0,.664.527,10.082,10.082,0,0,0,7.975.09,10.5,10.5,0,0,1,1.376-.546,8.947,8.947,0,0,1,1.763-.18,13.55,13.55,0,0,0,1.853-.237,1.63,1.63,0,0,0,.84-.349,1.558,1.558,0,0,0,.377-.906,7.463,7.463,0,0,0-1.186-5.287,1.788,1.788,0,0,0-.517-.548,2,2,0,0,0-.823-.221c-1.186-.145-2.43-.411-3.628-.439a2.437,2.437,0,0,0-1.9.98C773.375,752.553,772.642,754.378,771.1,755.344Z" transform="translate(-767.762 -642.427)"/>
      <path id="Path_196" data-name="Path 196" class="cls-6" d="M855.051,754.8a5.424,5.424,0,0,0,.845,3.322,4.387,4.387,0,0,0,1.153,1.008,5.2,5.2,0,0,0,5.035.494,1.5,1.5,0,0,0,.626-.527,1.8,1.8,0,0,0-.021-1.383l-2.273-7.878c-1.469.225-3.628.384-4.933,1.129C854.536,751.508,855.051,753.765,855.051,754.8Z" transform="translate(-834.232 -642.063)"/>
      <path id="Path_197" data-name="Path 197" class="cls-7" d="M772.454,559.447c-.138.434-.636.636-.909,1a1.9,1.9,0,0,0-.171,1.547,4.091,4.091,0,0,0,1.042,2.053,2.461,2.461,0,0,0,2.135.726,1.779,1.779,0,0,0,1.45-1.6,3.023,3.023,0,0,0-.223-1.027l-1.618-4.679a.177.177,0,0,0-.292-.128c-.382.18-1.148.37-1.371.766S772.616,559.018,772.454,559.447Z" transform="translate(-770.454 -495.213)"/>
      <path id="Path_198" data-name="Path 198" class="cls-6" d="M773,552.883a7.673,7.673,0,0,0,1.661-.667,1.714,1.714,0,0,1,1.711.064c.133.109.261.259.434.256a16.986,16.986,0,0,0-1.063-3.379.263.263,0,0,0-.093-.13.268.268,0,0,0-.2,0l-1.6.418c-.591.154-.66.107-.615.688C773.249,550.391,773.382,552.883,773,552.883Z" transform="translate(-771.757 -488.883)"/>
      <path id="Path_199" data-name="Path 199" class="cls-8" d="M769.192,422.638a2.249,2.249,0,0,0-.237,1.25,42.512,42.512,0,0,0,.332,6.29c.074.5.166,1,.214,1.5a17.3,17.3,0,0,1,.033,2.1l-.237,9.135a5.282,5.282,0,0,1-.776,3.2,1.528,1.528,0,0,0-.278,1.013c.18,2.292.56,4.565.937,6.831a4.221,4.221,0,0,1,3.83.183,42.155,42.155,0,0,0,1.967-11.627,46.159,46.159,0,0,1,.271-5.818,37.016,37.016,0,0,0-.071-9.8,5.414,5.414,0,0,0-1.023-2.888,4.378,4.378,0,0,0-2.373-1.367A10.379,10.379,0,0,0,769.192,422.638Z" transform="translate(-768.125 -392.428)"/>
      <path id="Path_200" data-name="Path 200" class="cls-5" d="M769.192,422.638a2.249,2.249,0,0,0-.237,1.25,42.512,42.512,0,0,0,.332,6.29c.074.5.166,1,.214,1.5a17.3,17.3,0,0,1,.033,2.1l-.237,9.135a5.282,5.282,0,0,1-.776,3.2,1.528,1.528,0,0,0-.278,1.013c.18,2.292.56,4.565.937,6.831a4.221,4.221,0,0,1,3.83.183,42.155,42.155,0,0,0,1.967-11.627,46.159,46.159,0,0,1,.271-5.818,37.016,37.016,0,0,0-.071-9.8,5.414,5.414,0,0,0-1.023-2.888,4.378,4.378,0,0,0-2.373-1.367A10.379,10.379,0,0,0,769.192,422.638Z" transform="translate(-768.125 -392.428)"/>
      <path id="Path_201" data-name="Path 201" class="cls-9" d="M781.986,524.317a41.906,41.906,0,0,0,2.5,24.26,6.582,6.582,0,0,1,.579,1.794,9.347,9.347,0,0,1-.712,3.4c-.712,2.558-.3,5.282.154,7.9q.285,1.637.586,3.272a5,5,0,0,1-.107,3.182c.425,1.77.676,3.524,1.1,5.294a1.006,1.006,0,0,1,.04.434,1.278,1.278,0,0,1-.434.581,2.6,2.6,0,0,0-.662,2.484c1.084-.778,2.6-.505,3.835,0a10.393,10.393,0,0,0,3.8,1.186,9.611,9.611,0,0,1,.2-4.693,7.113,7.113,0,0,0,.914-2.574,19.311,19.311,0,0,0-.638-2.359,5.968,5.968,0,0,1,.057-1.509,37.725,37.725,0,0,0-.4-8.737,5.218,5.218,0,0,0-.4-1.661,2.453,2.453,0,0,1-.415-1.051c0-.444.358-.8.491-1.227.237-.778-.2-1.836.458-2.318,1.732-1.272,1.068-4.309,1.03-6.456q-.045-2.779-.237-5.552a23.649,23.649,0,0,1,1.31,9.572,6.853,6.853,0,0,0,.2,3.163,13.2,13.2,0,0,1,1.12,2.176,9.119,9.119,0,0,1,.055,1.507,1.552,1.552,0,0,0,.629,1.305c.033,2.287.237,4.734.273,7.021a17.324,17.324,0,0,0,.285,3.488,4.44,4.44,0,0,1,.176,1.125,4.7,4.7,0,0,1-.375,1.383,7.932,7.932,0,0,0,1.186,7.32,3.538,3.538,0,0,1,2.866-1.6,10.394,10.394,0,0,1,3.367.494,6.6,6.6,0,0,1,.788-4.01,3.282,3.282,0,0,0,.415-.892,3.952,3.952,0,0,0-.332-1.8,9.043,9.043,0,0,1-.109-2.964,46.891,46.891,0,0,0-.439-9.947,8.425,8.425,0,0,0-.453-1.9c-.085-.218-.19-.427-.261-.648a5.109,5.109,0,0,1-.19-1.215l-.273-3.8c-.192-2.66.681-5.287,1.291-7.883.273-1.163.569-2.323.752-3.5.249-1.609.289-3.253.655-4.841a31.2,31.2,0,0,0,1.042-4.271c.19-2.261-.75-4.447-1.661-6.52-.38-.854-1.815-.769-2.738-.921-6.547-1.075-13.442-1.082-19.616,1.341a4.881,4.881,0,0,0-1.687,1.165Z" transform="translate(-778.019 -467.614)"/>
      <path id="Path_202" data-name="Path 202" class="cls-7" d="M801.266,350.808l.726,2.824a7.547,7.547,0,0,1,.325,2,1.474,1.474,0,0,1-.159.712,1.7,1.7,0,0,1-.451.46c-.5.377-.84,1.258-1.407,1.519.292.508.7.178,1.222.432a13.267,13.267,0,0,0,2.783,1.322,6.209,6.209,0,0,0,2.888-.237,9.972,9.972,0,0,0,3.74-1.739,3.59,3.59,0,0,0,1.682-3.032c-1.186.14-2.242-1.058-2.767-2.136a5.8,5.8,0,0,1-.4-1.279l-.636-2.8a13.715,13.715,0,0,0-1.92.906,6.969,6.969,0,0,1-2.181.316,23.493,23.493,0,0,0-3.882.5c-.176.036-.4.147-.354.318" transform="translate(-792.579 -336.22)"/>
      <path id="Path_203" data-name="Path 203" class="cls-5" d="M801.266,350.808l.726,2.824a7.547,7.547,0,0,1,.325,2,1.474,1.474,0,0,1-.159.712,1.7,1.7,0,0,1-.451.46c-.5.377-.84,1.258-1.407,1.519.292.508.7.178,1.222.432a13.267,13.267,0,0,0,2.783,1.322,6.209,6.209,0,0,0,2.888-.237,9.972,9.972,0,0,0,3.74-1.739,3.59,3.59,0,0,0,1.682-3.032c-1.186.14-2.242-1.058-2.767-2.136a5.8,5.8,0,0,1-.4-1.279l-.636-2.8a13.715,13.715,0,0,0-1.92.906,6.969,6.969,0,0,1-2.181.316,23.493,23.493,0,0,0-3.882.5c-.176.036-.4.147-.354.318" transform="translate(-792.579 -336.22)"/>
      <circle id="Ellipse_26" data-name="Ellipse 26" class="cls-7" cx="6.283" cy="6.283" r="6.283" transform="translate(5.521 3.578)"/>
      <path id="Path_204" data-name="Path 204" class="cls-6" d="M801.346,366.491a5.694,5.694,0,0,1,1.424-1.9c.885-.776,2.1-1.4,2.3-2.563l1.917,2.233a1.03,1.03,0,0,1,.237.365.921.921,0,0,1-.18.738,7.683,7.683,0,0,1-1.929,1.846,58.58,58.58,0,0,0-4.648,4.1.475.475,0,0,1-.249.152.449.449,0,0,1-.259-.074,10.793,10.793,0,0,1-3.315-2.7c-.069-.083-.154-.178-.266-.171a.342.342,0,0,0-.178.093,3.218,3.218,0,0,1-2.154,1.065,5.1,5.1,0,0,0,1.884-3.322,6.283,6.283,0,0,1,.27-1.3,1.355,1.355,0,0,1,.926-.878,2.082,2.082,0,0,0,.531,2.548,5.24,5.24,0,0,0,2.354,1.141C800.822,368.026,801.059,367.113,801.346,366.491Z" transform="translate(-787.812 -346.272)"/>
      <path id="Path_205" data-name="Path 205" class="cls-6" d="M780.855,522.582c.895.221,1.742.6,2.61.873a12.475,12.475,0,0,0,4.9.515,2.646,2.646,0,0,0,1.424-.453c.111-.09.214-.2.332-.28a2.321,2.321,0,0,1,.638-.263,18.072,18.072,0,0,0,5.766-3.588c.057-.047.121-.107.116-.183a.238.238,0,0,0-.071-.135L795.64,518a38.452,38.452,0,0,1-7.413.2,10.778,10.778,0,0,0-1.523.04c-.489.057-.97.18-1.452.285-1.829.4-3.7.551-5.552.812a.856.856,0,0,0-.368.114.827.827,0,0,0-.2.218l-.65.914a2.876,2.876,0,0,0-.546,1.046c-.152.712.166.949.771.857A5.633,5.633,0,0,1,780.855,522.582Z" transform="translate(-775.495 -465.234)"/>
      <path id="Path_206" data-name="Path 206" class="cls-8" d="M782.717,377.469a11.558,11.558,0,0,0-2.446-1.91,3.467,3.467,0,0,0-1.186-.475,1.481,1.481,0,0,0-1.215.3c-.211.187-.344.448-.548.645a2.726,2.726,0,0,1-.868.491,15.4,15.4,0,0,0-3.051,1.739,7,7,0,0,0-1.383,1.277,7.808,7.808,0,0,0-1.208,4.995c.021,1.215,1.186,2.117,1.989,3.025a22.3,22.3,0,0,1,2.036,2.847,3.877,3.877,0,0,1,.828,2.238,12.694,12.694,0,0,0-.372,1.958c.021.237.1.456.119.686a7.712,7.712,0,0,1-.192,1.424,18.106,18.106,0,0,0,.166,2.014,6.4,6.4,0,0,1-.176,1.374,25.666,25.666,0,0,0-.911,6.563l-1.315.237a1.111,1.111,0,0,1-.254,1.772c2.053.686,4.271.339,6.447.337,1.8,0,3.595.237,5.393.2a9.321,9.321,0,0,0,5.137-1.376c.4-.275.773-.6,1.2-.838a5.909,5.909,0,0,1,1.815-.593,18.014,18.014,0,0,1,3.559-.318,2.741,2.741,0,0,0,1.685-.327,2.408,2.408,0,0,0,.712-1.732c.069-.674.112-1.35.123-2.026a8.737,8.737,0,0,0-.083-1.576,10.313,10.313,0,0,0-.278-1.129l-.895-3.151c-.37-1.3.145-2.726.254-4.074a1.022,1.022,0,0,0-.214-.892c-.088-.074-.209-.123-.237-.237a.406.406,0,0,1,.057-.318,17.559,17.559,0,0,1,1.836-2.643,54,54,0,0,0,3.037-4.667,15.018,15.018,0,0,0-4.02-8.988,4.349,4.349,0,0,0-1.682-1.241,4.982,4.982,0,0,0-1.338-.216,12.324,12.324,0,0,1-5.417-1.172,1.03,1.03,0,0,0-.387-.164c-.358-.04-.619.313-.852.593a10.21,10.21,0,0,1-2.252,1.644A15.968,15.968,0,0,0,782.717,377.469Z" transform="translate(-770.085 -353.516)"/>
      <path id="Path_207" data-name="Path 207" class="cls-8" d="M874.364,416.585a17.817,17.817,0,0,1,.456,3.647,14.2,14.2,0,0,0,.387,2.185,3.489,3.489,0,0,0,.451,1.113,4.9,4.9,0,0,1,.655.921,2.224,2.224,0,0,1,.1.74l.029,1.637a5.887,5.887,0,0,1-.387,2.548l-1.023,3.111a19.066,19.066,0,0,1-2.117,4.862,1.4,1.4,0,0,1-.61.572,2.962,2.962,0,0,1-.615.095,1.58,1.58,0,0,0-1.3,1.535,3.606,3.606,0,0,0-.876-.895L867.428,437a8.893,8.893,0,0,0-2.318-1.5,6.286,6.286,0,0,0,4.371-5.282,2.372,2.372,0,0,1,.237-1.039c.173-.28.494-.493.517-.823.029-.415-.441-.728-.441-1.144,0-.275.2-.5.294-.762a1.913,1.913,0,0,0,0-.975l-.287-1.595a1.215,1.215,0,0,0-.142-.456,2.943,2.943,0,0,0-.356-.375c-.494-.553-.275-1.424,0-2.1a20.12,20.12,0,0,1,2.425-4.254,14.562,14.562,0,0,0,.966-1.381c.252-.437.308-1.042.574-1.424C873.609,414.777,874.072,415.662,874.364,416.585Z" transform="translate(-842.011 -385.819)"/>
      <path id="Path_208" data-name="Path 208" class="cls-6" d="M860.475,504.681a1.146,1.146,0,0,0-.27.285,2.4,2.4,0,0,1-1.075.766c.237.171.453.339.676.513a29.636,29.636,0,0,1,4.508,4.311c.15-.534,1.044-.5,1.262-1.006a.985.985,0,0,0,.047-.456,13.894,13.894,0,0,0-.342-2.373,2.685,2.685,0,0,0-.475-1.11,2.848,2.848,0,0,0-1.343-.759C862.718,504.591,861.235,504.223,860.475,504.681Z" transform="translate(-837.45 -454.909)"/>
      <path id="Path_209" data-name="Path 209" class="cls-7" d="M839.967,510.8a12.494,12.494,0,0,1-2.135,1.547,8.039,8.039,0,0,0-1.7.75,1.69,1.69,0,0,0,1.614.873,3.834,3.834,0,0,0,1.806-.662c.425-.261.923-.565,1.386-.382.071.361-.237.7-.237,1.065a1.074,1.074,0,0,0,.6.823c1.424.918,3.255.842,4.952.736a.446.446,0,0,0,.273-.081.43.43,0,0,0,.1-.313c.021-.375.031-.747.033-1.122a1.609,1.609,0,0,0-.688-1.585,19.371,19.371,0,0,0-2.966-2.1A2.657,2.657,0,0,0,839.967,510.8Z" transform="translate(-819.907 -459.164)"/>
      <path id="Path_210" data-name="Path 210" class="cls-9" d="M821.271,326.058a1.648,1.648,0,1,0,2.1,1.386A1.79,1.79,0,0,0,821.271,326.058Zm.358,2.98a1.395,1.395,0,1,1,1.45-1.559A1.519,1.519,0,0,1,821.63,329.038Z" transform="translate(-807.26 -318.823)"/>
      <path id="Path_211" data-name="Path 211" class="cls-9" d="M799.631,328.658a1.648,1.648,0,1,0,2.1,1.383A1.789,1.789,0,0,0,799.631,328.658Zm.358,2.978a1.395,1.395,0,1,1,1.45-1.559A1.515,1.515,0,0,1,799.99,331.635Z" transform="translate(-790.755 -320.806)"/>
      <path id="Path_212" data-name="Path 212" class="cls-9" d="M662.975,259.64l2.29.489-.225.6-2.159-.634Z" transform="translate(-657.912 -251.331)"/>
      <path id="Path_213" data-name="Path 213" class="cls-9" d="M710.282,253.18,708.17,254.2l.363.531,1.948-1.127Z" transform="translate(-692.455 -246.404)"/>
      <path id="Path_214" data-name="Path 214" class="cls-9" d="M687.31,260.442l1.606-.192-.083.4-1.379.093Z" transform="translate(-676.545 -251.796)"/>
      <path id="Path_215" data-name="Path 215" class="cls-10" d="M787.461,303.729a2.549,2.549,0,0,0,.237-1.037,2.213,2.213,0,0,1,.109-.631,1.765,1.765,0,0,1,.517-.662,4.786,4.786,0,0,1,2.847-.994,6.583,6.583,0,0,1,3.293.712,2.562,2.562,0,0,1,.819.607c.332.406.4.93.738,1.331a1.939,1.939,0,0,0,1.818.569,9.454,9.454,0,0,0,.024-1.272,6.157,6.157,0,0,1,.377-1.054,2.589,2.589,0,0,0-1.274-2.99,4.917,4.917,0,0,1-1.134-.712,5.369,5.369,0,0,1-.558-.973,2.591,2.591,0,0,0-2.94-.852c-.327.123-.617.311-.949.444a7.823,7.823,0,0,1-2,.384,6.12,6.12,0,0,0-1.936.508,2.168,2.168,0,0,0-1.212,1.31c-.064.256-.05.522-.114.776-.328,1.288-2.442,1.915-2.56,3.229a1.885,1.885,0,0,0,.539,1.317c.223.263.757.968,1.134,1.07s.664-.256,1.025-.38C786.833,304.253,787.177,304.215,787.461,303.729Z" transform="translate(-779.812 -295.621)"/>
    </g>
    <path id="Path_216" data-name="Path 216" class="cls-3" d="M912.81,682c0,11.921,7.479,21.569,16.721,21.569" transform="translate(-726.072 -537.021)"/>
    <path id="Path_217" data-name="Path 217" class="cls-2" d="M983.28,702.8c0-12.056,8.348-21.811,18.662-21.811" transform="translate(-779.821 -536.251)"/>
    <path id="Path_218" data-name="Path 218" class="cls-2" d="M938.35,686.56c0,11.325,4.769,20.489,10.661,20.489" transform="translate(-745.552 -540.499)"/>
    <path id="Path_219" data-name="Path 219" class="cls-3" d="M983.28,683.321c0-15.4,9.648-27.871,21.569-27.871" transform="translate(-779.821 -516.771)"/>
    <ellipse id="Ellipse_27" data-name="Ellipse 27" class="cls-1" cx="4.157" cy="0.702" rx="4.157" ry="0.702" transform="translate(198.578 169.265)"/>
    <path id="Path_220" data-name="Path 220" class="cls-11" d="M968.46,769.432a8.7,8.7,0,0,0,3.085-.581c.712-.508,3.647-1.118,3.825-.3s3.559,4.06.885,4.081-6.222-.418-6.933-.852S968.46,769.432,968.46,769.432Z" transform="translate(-768.517 -602.73)"/>
    <path id="Path_221" data-name="Path 221" class="cls-12" d="M976.3,776.456c-2.677.021-6.219-.418-6.933-.852-.543-.33-.759-1.518-.833-2.064h-.078s.149,1.913.864,2.347,4.257.873,6.933.852c.773,0,1.039-.282,1.025-.688C977.175,776.3,976.893,776.451,976.3,776.456Z" transform="translate(-768.517 -606.84)"/>
    <path id="Path_222" data-name="Path 222" class="cls-3" d="M148.31,711.36c0,9.491,5.949,17.16,13.3,17.16" transform="translate(-142.974 -559.415)"/>
    <path id="Path_223" data-name="Path 223" class="cls-2" d="M204.37,727.9c0-9.591,6.644-17.352,14.847-17.352" transform="translate(-185.732 -558.797)"/>
    <path id="Path_224" data-name="Path 224" class="cls-2" d="M168.62,715c0,9.017,3.8,16.3,8.483,16.3" transform="translate(-158.464 -562.191)"/>
    <path id="Path_225" data-name="Path 225" class="cls-3" d="M204.37,712.4c0-12.256,7.676-22.174,17.16-22.174" transform="translate(-185.732 -543.298)"/>
    <ellipse id="Ellipse_28" data-name="Ellipse 28" class="cls-1" cx="3.308" cy="0.56" rx="3.308" ry="0.56" transform="translate(14.754 171.265)"/>
    <path id="Path_226" data-name="Path 226" class="cls-11" d="M192.58,780.867a6.747,6.747,0,0,0,2.453-.475c.567-.415,2.9-.89,3.044-.237s2.836,3.229.712,3.246a18.15,18.15,0,0,1-5.517-.676C192.706,782.381,192.58,780.867,192.58,780.867Z" transform="translate(-176.739 -611.641)"/>
    <path id="Path_227" data-name="Path 227" class="cls-12" d="M198.821,786.541a18,18,0,0,1-5.517-.679c-.432-.261-.6-1.208-.662-1.642h-.062s.119,1.521.686,1.867a18.05,18.05,0,0,0,5.517.676c.615,0,.828-.223.816-.548C199.513,786.405,199.278,786.526,198.821,786.541Z" transform="translate(-176.739 -614.986)"/>
  </g>
</svg>
