<svg xmlns="http://www.w3.org/2000/svg" width="409.273" height="223.511" viewBox="0 0 409.273 223.511">
  <g id="Group_117" data-name="Group 117" transform="translate(-682 -474.01)">
    <rect id="Rectangle_172" data-name="Rectangle 172" width="278.384" height="180.865" transform="translate(812.89 497.211)" fill="#3f3d56"/>
    <rect id="Rectangle_173" data-name="Rectangle 173" width="21.258" height="182.552" transform="translate(804.454 496.199)" fill="#d0cde1"/>
    <rect id="Rectangle_174" data-name="Rectangle 174" width="55.677" height="0.675" transform="translate(866.542 546.477)" fill="#d0cde1"/>
    <path id="Path_427" data-name="Path 427" d="M910.35,486.228h-76.6V414.692h76.6Zm-75.923-.675h75.248V415.367H834.428Z" transform="translate(138.743 158.104)" fill="#d0cde1"/>
    <rect id="Rectangle_175" data-name="Rectangle 175" width="0.675" height="103.854" transform="matrix(0.682, -0.731, 0.731, 0.682, 972.603, 573.382)" fill="#d0cde1"/>
    <rect id="Rectangle_176" data-name="Rectangle 176" width="103.854" height="0.675" transform="matrix(0.731, -0.682, 0.682, 0.731, 972.602, 643.748)" fill="#d0cde1"/>
    <rect id="Rectangle_177" data-name="Rectangle 177" width="78.622" height="0.675" transform="translate(866.542 596.079)" fill="#d0cde1"/>
    <rect id="Rectangle_178" data-name="Rectangle 178" width="78.622" height="0.675" transform="translate(866.542 608.227)" fill="#d0cde1"/>
    <rect id="Rectangle_179" data-name="Rectangle 179" width="78.622" height="0.675" transform="translate(866.542 620.375)" fill="#d0cde1"/>
    <circle id="Ellipse_77" data-name="Ellipse 77" cx="7.129" cy="7.129" r="7.129" transform="translate(924.901 474.01)" fill="#3f3d56"/>
    <circle id="Ellipse_78" data-name="Ellipse 78" cx="7.129" cy="7.129" r="7.129" transform="translate(944.952 474.01)" fill="#6c63ff"/>
    <circle id="Ellipse_79" data-name="Ellipse 79" cx="7.129" cy="7.129" r="7.129" transform="translate(965.004 474.01)" fill="#d0cde1"/>
    <rect id="Rectangle_180" data-name="Rectangle 180" width="239.813" height="0.85" transform="translate(682 696.67)" fill="#3f3d56"/>
    <circle id="Ellipse_80" data-name="Ellipse 80" cx="4.691" cy="4.691" r="4.691" transform="translate(748.087 547.629)" fill="#2f2e41"/>
    <ellipse id="Ellipse_81" data-name="Ellipse 81" cx="13.462" cy="14.769" rx="13.462" ry="14.769" transform="translate(749.223 522.087)" fill="#2f2e41"/>
    <path id="Path_428" data-name="Path 428" d="M187.968,464.3l-.348,1.738s-1.043,1.042-.521,1.564.348,2.954.348,2.954l-1.043,6.776-6.081,27.453a52.359,52.359,0,0,0-14.248,15.464c-6.255,10.251-6.429,12.858-6.429,12.858l6.95,2.954,17.375-21.024s4.865-2.954,6.6-5.56,12.51-29.538,12.51-29.538l6.081,28.148s-.348,10.251,1.216,16.854a70.715,70.715,0,0,1,1.738,12.684l8.166-.869s-.521-24.673-1.39-27.279c0,0,3.649-30.059-3.649-42.048L210.9,449.881l-7.3-.348Z" transform="translate(565.245 136.06)" fill="#2f2e41"/>
    <path id="Path_429" data-name="Path 429" d="M148.067,673.939l-8.688-5.386-4,7.645s-8.861,5.386-6.95,9.383,3.649,5.039,3.649,5.039l1.216-.521,2.259,4.17s5.908,8.514,15.464,4.17a3.492,3.492,0,0,0,0-4.17c-1.564-2.259-5.56-7.124-5.56-7.124Z" transform="translate(585.164 -2.511)" fill="#2f2e41"/>
    <path id="Path_430" data-name="Path 430" d="M308.144,683.69l-9.556.695,1.043,7.819s-4.518,11.12-1.39,11.989a45.808,45.808,0,0,0,6.776,1.216l.347-1.216s13.379,7.3,18.244,1.911c0,0,1.043-3.823-1.911-5.039s-8.688-3.823-9.383-5.213S308.144,683.69,308.144,683.69Z" transform="translate(478.255 -12.088)" fill="#2f2e41"/>
    <circle id="Ellipse_82" data-name="Ellipse 82" cx="8.34" cy="8.34" r="8.34" transform="translate(754.777 530.862)" fill="#ffb8b8"/>
    <path id="Path_431" data-name="Path 431" d="M237.94,336.95s1.043,6.776-4.17,9.383,13.726,5.734,13.726,5.734-2.954-4.518-2.433-6.081,3.128-7.819,3.128-7.819Z" transform="translate(518.922 207.291)" fill="#ffb8b8"/>
    <path id="Path_432" data-name="Path 432" d="M229.251,359.633s-5.039-2.954-6.776-1.564-2.259,43.959,4,45.7l.174,2.259s-2.259,1.042-.174,1.042,11.815-7.124,12.163-9.73,10.425-3.128,10.425-3.128,2.606,11.12,3.475,10.773.869-7.819.521-8.861,4-4.344,2.78-6.429-4.518-9.209-4.518-9.209.347-4.517-4.344-8.687c0,0-1.371-7.761-7.549-7.877A15.612,15.612,0,0,1,229.251,359.633Z" transform="translate(526.221 194.164)" fill="#575a89"/>
    <path id="Path_433" data-name="Path 433" d="M198.233,149.855v9.533h2.208l2.81-3.01-.376,3.01h9.759l-.6-3.01,1.2,3.01h1.555v-9.533Z" transform="translate(556.58 379.198)" fill="#2f2e41"/>
    <rect id="Rectangle_181" data-name="Rectangle 181" width="71.992" height="65.748" transform="translate(703.236 614.472)" fill="#6c63ff"/>
    <path id="Path_434" data-name="Path 434" d="M209.293,597.852c-6.069,9.908-3.981,22.233-3.981,22.233s11.928-3.74,18-13.648S227.29,584.2,227.29,584.2,215.362,587.944,209.293,597.852Z" transform="translate(536.572 50.855)" fill="#3f3d56"/>
    <path id="Path_435" data-name="Path 435" d="M157.716,625.276l-.345-.055c-.125-.02-12.545-2.078-19.984-10.978s-7.26-21.489-7.257-21.615l.007-.349.345.055c.125.02,12.545,2.078,19.984,10.978h0c7.439,8.9,7.26,21.489,7.257,21.615Z" transform="translate(583.92 45.747)" fill="#d0cde1"/>
    <circle id="Ellipse_83" data-name="Ellipse 83" cx="6.706" cy="6.706" r="6.706" transform="translate(735.557 625.423)" fill="#3f3d56"/>
    <path id="Path_436" data-name="Path 436" d="M207.423,475.009l2.085,15.464s-1.216,13.553,3.475,13.726,1.738-13.9,1.738-13.9l-.521-14.074S210.377,469.97,207.423,475.009Z" transform="translate(535.017 121.184)" fill="#ffb8b8"/>
    <path id="Path_437" data-name="Path 437" d="M211.991,358.625s-1.216-3.3-3.823-.7-4.865,9.383-4.865,13.553.521,28.322.521,28.322-2.78,1.043-.869,2.606,4.518-.869,4.518-.869a36.631,36.631,0,0,0,3.823,2.433c.348,0,.174-2.954.174-2.954s1.738-4.518,1.39-7.993S211.991,358.625,211.991,358.625Z" transform="translate(538.268 194.651)" fill="#575a89"/>
    <path id="Path_438" data-name="Path 438" d="M727.262,295.807H544.372V283.322h182.89Zm-182.215-.675h181.54V284H545.047Z" transform="translate(321.833 241.221)" fill="#d0cde1"/>
    <path id="Path_439" data-name="Path 439" d="M121.688,546.152h-18a41.8,41.8,0,0,0,0-18h18A22.373,22.373,0,0,0,121.688,546.152Z" transform="translate(600.648 86.318)" fill="#d0cde1"/>
    <rect id="Rectangle_182" data-name="Rectangle 182" width="10.908" height="2.182" transform="translate(707.065 618.29)" fill="#3f3d56"/>
    <rect id="Rectangle_183" data-name="Rectangle 183" width="10.908" height="2.182" transform="translate(707.065 622.653)" fill="#3f3d56"/>
    <rect id="Rectangle_184" data-name="Rectangle 184" width="10.908" height="2.182" transform="translate(707.065 627.016)" fill="#3f3d56"/>
    <path id="Path_440" data-name="Path 440" d="M562.688,354.152h-18a41.8,41.8,0,0,0,0-18h18A22.373,22.373,0,0,0,562.688,354.152Z" transform="translate(321.631 207.795)" fill="#d0cde1"/>
    <rect id="Rectangle_185" data-name="Rectangle 185" width="10.908" height="2.182" transform="translate(869.048 547.767)" fill="#3f3d56"/>
    <rect id="Rectangle_186" data-name="Rectangle 186" width="10.908" height="2.182" transform="translate(869.048 552.13)" fill="#3f3d56"/>
    <rect id="Rectangle_187" data-name="Rectangle 187" width="10.908" height="2.182" transform="translate(869.048 556.493)" fill="#3f3d56"/>
    <path id="Path_441" data-name="Path 441" d="M931.688,428.152h-18a41.8,41.8,0,0,0,0-18h18A22.373,22.373,0,0,0,931.688,428.152Z" transform="translate(88.168 160.975)" fill="#d0cde1"/>
    <rect id="Rectangle_188" data-name="Rectangle 188" width="10.908" height="2.182" transform="translate(1004.585 574.947)" fill="#3f3d56"/>
    <rect id="Rectangle_189" data-name="Rectangle 189" width="10.908" height="2.182" transform="translate(1004.585 579.311)" fill="#3f3d56"/>
    <rect id="Rectangle_190" data-name="Rectangle 190" width="10.908" height="2.182" transform="translate(1004.585 583.674)" fill="#3f3d56"/>
    <path id="Path_442" data-name="Path 442" d="M994.688,323.152h-18a41.8,41.8,0,0,0,0-18h18A22.371,22.371,0,0,0,994.688,323.152Z" transform="translate(48.308 227.408)" fill="#d0cde1"/>
    <rect id="Rectangle_191" data-name="Rectangle 191" width="10.908" height="2.182" transform="translate(1027.725 536.38)" fill="#3f3d56"/>
    <rect id="Rectangle_192" data-name="Rectangle 192" width="10.908" height="2.182" transform="translate(1027.725 540.743)" fill="#3f3d56"/>
    <rect id="Rectangle_193" data-name="Rectangle 193" width="10.908" height="2.182" transform="translate(1027.725 545.106)" fill="#3f3d56"/>
    <path id="Path_443" data-name="Path 443" d="M401.744,393.2h-9.55v-9.55h9.55Zm-8.815-.735h8.081v-8.081h-8.081Z" transform="translate(418.114 177.742)" fill="#3f3d56"/>
    <path id="Path_444" data-name="Path 444" d="M402.24,451.2h-9.55v-9.55h9.55Zm-8.815-.735h8.081v-8.081h-8.081Z" transform="translate(417.8 141.046)" fill="#3f3d56"/>
    <path id="Path_445" data-name="Path 445" d="M402.736,509.2h-9.55v-9.55h9.55Zm-8.815-.735H402v-8.081h-8.081Z" transform="translate(417.487 104.35)" fill="#3f3d56"/>
    <circle id="Ellipse_84" data-name="Ellipse 84" cx="2.938" cy="2.938" r="2.938" transform="translate(807.919 601.249)" fill="#6c63ff"/>
  </g>
</svg>
