<svg xmlns="http://www.w3.org/2000/svg" xmlns:xlink="http://www.w3.org/1999/xlink" width="533.395" height="279.886" viewBox="0 0 533.395 279.886">
  <defs>
    <linearGradient id="linear-gradient" x1="0.5" y1="1" x2="0.5" gradientUnits="objectBoundingBox">
      <stop offset="0" stop-color="gray" stop-opacity="0.251"/>
      <stop offset="0.54" stop-color="gray" stop-opacity="0.122"/>
      <stop offset="1" stop-color="gray" stop-opacity="0.102"/>
    </linearGradient>
    <linearGradient id="linear-gradient-2" x1="0.5" y1="1" x2="0.5" y2="-0.001" xlink:href="#linear-gradient"/>
  </defs>
  <g id="contact" transform="translate(0 0.359)">
    <g id="Group_105" data-name="Group 105" transform="translate(206.909 19.108)" opacity="0.1">
      <ellipse id="Ellipse_46" data-name="Ellipse 46" cx="5.538" cy="7.251" rx="5.538" ry="7.251" transform="translate(20.874 149.691)" fill="#3f3d56"/>
      <path id="Path_299" data-name="Path 299" d="M529.942,448.675a8.761,8.761,0,0,0,1.158-4.434c0-4.005-2.482-7.251-5.543-7.251S520,440.246,520,444.251a8.76,8.76,0,0,0,1.158,4.434,9.057,9.057,0,0,0,0,8.862,9.057,9.057,0,0,0,0,8.862A8.731,8.731,0,0,0,520,470.843c0,4,2.482,7.251,5.538,7.251s5.543-3.251,5.543-7.251a8.731,8.731,0,0,0-1.158-4.434,9.057,9.057,0,0,0,0-8.862,9.057,9.057,0,0,0,0-8.862Z" transform="translate(-499.145 -322.758)" fill="#3f3d56"/>
      <ellipse id="Ellipse_47" data-name="Ellipse 47" cx="5.538" cy="7.251" rx="5.538" ry="7.251" transform="translate(20.874 105.379)" fill="#3f3d56"/>
      <ellipse id="Ellipse_48" data-name="Ellipse 48" cx="5.538" cy="7.251" rx="5.538" ry="7.251" transform="translate(20.874 96.517)" fill="#3f3d56"/>
      <path id="Path_300" data-name="Path 300" d="M482.829,245.385a25.837,25.837,0,0,1-2.064-3.037l14.552-2.39-15.739.117a26.582,26.582,0,0,1-.487-21.024l21.117,10.955-19.467-14.318a26.538,26.538,0,1,1,43.8,29.687,26.535,26.535,0,0,1,3.027,4.838l-18.9,9.841,20.143-6.76a26.538,26.538,0,0,1-4.278,24.918,26.533,26.533,0,1,1-41.708,0,26.534,26.534,0,0,1,0-32.812Z" transform="translate(-477.149 -202.271)" fill="#6c63ff"/>
      <path id="Path_301" data-name="Path 301" d="M530.217,324.158a26.412,26.412,0,0,1-5.679,16.406,26.533,26.533,0,1,1-41.708,0C479.271,336.047,530.217,321.179,530.217,324.158Z" transform="translate(-477.149 -264.638)" opacity="0.1"/>
    </g>
    <g id="Group_106" data-name="Group 106" transform="translate(278.242 43.36)" opacity="0.1">
      <ellipse id="Ellipse_49" data-name="Ellipse 49" cx="4.142" cy="5.417" rx="4.142" ry="5.417" transform="translate(15.598 111.768)" fill="#3f3d56"/>
      <path id="Path_302" data-name="Path 302" d="M663.177,436.051a6.536,6.536,0,0,0,.861-3.309c0-2.993-1.854-5.422-4.137-5.422s-4.142,2.433-4.142,5.422a6.487,6.487,0,0,0,.866,3.309,6.765,6.765,0,0,0,0,6.624,6.765,6.765,0,0,0,0,6.624,6.487,6.487,0,0,0-.866,3.309c0,2.993,1.854,5.422,4.142,5.422s4.137-2.433,4.137-5.422a6.536,6.536,0,0,0-.861-3.309,6.813,6.813,0,0,0,0-6.624,6.813,6.813,0,0,0,0-6.624Z" transform="translate(-640.167 -342.046)" fill="#3f3d56"/>
      <ellipse id="Ellipse_50" data-name="Ellipse 50" cx="4.142" cy="5.417" rx="4.142" ry="5.417" transform="translate(15.598 78.655)" fill="#3f3d56"/>
      <ellipse id="Ellipse_51" data-name="Ellipse 51" cx="4.142" cy="5.417" rx="4.142" ry="5.417" transform="translate(15.598 72.031)" fill="#3f3d56"/>
      <path id="Path_303" data-name="Path 303" d="M627.964,284.227a18.969,18.969,0,0,1-1.543-2.268l10.877-1.786-11.763.088a19.876,19.876,0,0,1-.38-15.715l15.783,8.191L626.382,262.03a19.832,19.832,0,1,1,32.748,22.192,20.051,20.051,0,0,1,2.263,3.616l-14.114,7.334,15.053-5.052a19.837,19.837,0,0,1-3.2,18.62,19.827,19.827,0,1,1-31.147,0,19.827,19.827,0,0,1,0-24.519Z" transform="translate(-623.72 -252.103)" fill="#6c63ff"/>
      <path id="Path_304" data-name="Path 304" d="M663.384,342.992a19.745,19.745,0,0,1-4.244,12.259,19.827,19.827,0,1,1-31.147,0C625.326,351.879,663.384,340.768,663.384,342.992Z" transform="translate(-623.73 -298.609)" opacity="0.1"/>
    </g>
    <g id="Group_107" data-name="Group 107" transform="translate(478.664 -0.359)" opacity="0.1">
      <ellipse id="Ellipse_52" data-name="Ellipse 52" cx="5.538" cy="7.251" rx="5.538" ry="7.251" transform="translate(21.248 149.691)" fill="#3f3d56"/>
      <path id="Path_305" data-name="Path 305" d="M1080.348,408.675a8.76,8.76,0,0,1-1.158-4.434c0-4.005,2.482-7.251,5.543-7.251s5.538,3.246,5.538,7.251a8.76,8.76,0,0,1-1.158,4.434,9.057,9.057,0,0,1,0,8.862,9.057,9.057,0,0,1,0,8.862,8.732,8.732,0,0,1,1.158,4.434c0,4-2.482,7.251-5.538,7.251s-5.543-3.251-5.543-7.251a8.732,8.732,0,0,1,1.158-4.434,9.057,9.057,0,0,1,0-8.862A9.057,9.057,0,0,1,1080.348,408.675Z" transform="translate(-1057.947 -282.758)" fill="#3f3d56"/>
      <ellipse id="Ellipse_53" data-name="Ellipse 53" cx="5.538" cy="7.251" rx="5.538" ry="7.251" transform="translate(21.248 105.379)" fill="#3f3d56"/>
      <ellipse id="Ellipse_54" data-name="Ellipse 54" cx="5.538" cy="7.251" rx="5.538" ry="7.251" transform="translate(21.248 96.517)" fill="#3f3d56"/>
      <path id="Path_306" data-name="Path 306" d="M1083.059,205.385a25.834,25.834,0,0,0,2.064-3.037l-14.552-2.39,15.739.117a26.583,26.583,0,0,0,.487-21.024l-21.117,10.955,19.467-14.318a26.538,26.538,0,1,0-43.8,29.687,26.543,26.543,0,0,0-3.027,4.838l18.9,9.841-20.143-6.76a26.538,26.538,0,0,0,4.278,24.918,26.534,26.534,0,1,0,41.708,0,26.533,26.533,0,0,0,0-32.812Z" transform="translate(-1035.541 -162.271)" fill="#6c63ff"/>
      <path id="Path_307" data-name="Path 307" d="M1035.81,284.158a26.412,26.412,0,0,0,5.68,16.406,26.533,26.533,0,1,0,41.708,0C1086.755,296.047,1035.81,281.179,1035.81,284.158Z" transform="translate(-1035.679 -224.638)" opacity="0.1"/>
    </g>
    <g id="Group_108" data-name="Group 108" transform="translate(432.048 40.44)" opacity="0.1">
      <ellipse id="Ellipse_55" data-name="Ellipse 55" cx="4.142" cy="5.417" rx="4.142" ry="5.417" transform="translate(15.794 111.768)" fill="#3f3d56"/>
      <path id="Path_308" data-name="Path 308" d="M973.091,430.051a6.537,6.537,0,0,1-.861-3.309c0-2.993,1.854-5.422,4.137-5.422s4.142,2.433,4.142,5.422a6.487,6.487,0,0,1-.866,3.309,6.765,6.765,0,0,1,0,6.624,6.765,6.765,0,0,1,0,6.624,6.487,6.487,0,0,1,.866,3.309c0,2.993-1.854,5.422-4.142,5.422s-4.137-2.433-4.137-5.422a6.537,6.537,0,0,1,.861-3.309,6.813,6.813,0,0,1,0-6.624A6.813,6.813,0,0,1,973.091,430.051Z" transform="translate(-956.426 -336.046)" fill="#3f3d56"/>
      <ellipse id="Ellipse_56" data-name="Ellipse 56" cx="4.142" cy="5.417" rx="4.142" ry="5.417" transform="translate(15.794 78.655)" fill="#3f3d56"/>
      <ellipse id="Ellipse_57" data-name="Ellipse 57" cx="4.142" cy="5.417" rx="4.142" ry="5.417" transform="translate(15.794 72.031)" fill="#3f3d56"/>
      <path id="Path_309" data-name="Path 309" d="M975.188,278.227a18.974,18.974,0,0,0,1.543-2.268l-10.877-1.786,11.763.088a19.876,19.876,0,0,0,.38-15.715l-15.783,8.191L976.77,256.03a19.832,19.832,0,1,0-32.748,22.192,20.048,20.048,0,0,0-2.263,3.616l14.114,7.334-15.024-5.047a19.837,19.837,0,0,0,3.2,18.62,19.827,19.827,0,1,0,31.147,0,19.827,19.827,0,0,0,0-24.519Z" transform="translate(-939.756 -246.103)" fill="#6c63ff"/>
      <path id="Path_310" data-name="Path 310" d="M939.789,336.992a19.745,19.745,0,0,0,4.244,12.259,19.827,19.827,0,1,0,31.147,0C977.847,345.879,939.789,334.768,939.789,336.992Z" transform="translate(-939.768 -292.609)" opacity="0.1"/>
    </g>
    <g id="Group_109" data-name="Group 109" transform="translate(3.557 -0.277)" opacity="0.1">
      <ellipse id="Ellipse_58" data-name="Ellipse 58" cx="5.538" cy="7.251" rx="5.538" ry="7.251" transform="translate(20.879 149.609)" fill="#3f3d56"/>
      <path id="Path_311" data-name="Path 311" d="M112.128,408.675a8.76,8.76,0,0,0,1.158-4.434c0-4.005-2.482-7.251-5.538-7.251s-5.538,3.246-5.538,7.251a8.76,8.76,0,0,0,1.153,4.434,9.086,9.086,0,0,0,0,8.862,9.086,9.086,0,0,0,0,8.862,8.726,8.726,0,0,0-1.153,4.434c0,4,2.477,7.251,5.538,7.251s5.553-3.241,5.553-7.242a8.731,8.731,0,0,0-1.158-4.434,9.057,9.057,0,0,0,0-8.862,9.057,9.057,0,0,0,0-8.862Z" transform="translate(-81.331 -282.84)" fill="#3f3d56"/>
      <ellipse id="Ellipse_59" data-name="Ellipse 59" cx="5.538" cy="7.251" rx="5.538" ry="7.251" transform="translate(20.879 105.297)" fill="#3f3d56"/>
      <ellipse id="Ellipse_60" data-name="Ellipse 60" cx="5.538" cy="7.251" rx="5.538" ry="7.251" transform="translate(20.879 96.435)" fill="#3f3d56"/>
      <path id="Path_312" data-name="Path 312" d="M65,205.471a26.44,26.44,0,0,1-2.063-3.037l14.556-2.39-15.754.141a26.582,26.582,0,0,1-.487-21.024l21.122,10.955L62.906,175.8a26.533,26.533,0,1,1,43.8,29.687,26.543,26.543,0,0,1,3.027,4.838l-18.9,9.816,20.148-6.76A26.568,26.568,0,0,1,106.7,238.3a26.533,26.533,0,1,1-41.708,0,26.533,26.533,0,0,1,0-32.812Z" transform="translate(-59.309 -162.439)" fill="#6c63ff"/>
      <path id="Path_313" data-name="Path 313" d="M112.377,284.158a26.412,26.412,0,0,1-5.679,16.406,26.533,26.533,0,1,1-41.708,0C61.431,296.047,112.377,281.179,112.377,284.158Z" transform="translate(-59.309 -224.719)" opacity="0.1"/>
    </g>
    <g id="Group_110" data-name="Group 110" transform="translate(63.696 40.44)" opacity="0.1">
      <ellipse id="Ellipse_61" data-name="Ellipse 61" cx="4.142" cy="5.417" rx="4.142" ry="5.417" transform="translate(15.598 111.768)" fill="#3f3d56"/>
      <path id="Path_314" data-name="Path 314" d="M222.347,430.051a6.536,6.536,0,0,0,.861-3.309c0-2.993-1.849-5.422-4.137-5.422s-4.142,2.433-4.142,5.422a6.536,6.536,0,0,0,.866,3.309,6.765,6.765,0,0,0,0,6.624,6.765,6.765,0,0,0,0,6.624,6.536,6.536,0,0,0-.866,3.309c0,2.993,1.854,5.422,4.142,5.422s4.137-2.433,4.137-5.422a6.536,6.536,0,0,0-.861-3.309,6.813,6.813,0,0,0,0-6.624A6.813,6.813,0,0,0,222.347,430.051Z" transform="translate(-199.332 -336.046)" fill="#3f3d56"/>
      <ellipse id="Ellipse_62" data-name="Ellipse 62" cx="4.142" cy="5.417" rx="4.142" ry="5.417" transform="translate(15.598 78.655)" fill="#3f3d56"/>
      <ellipse id="Ellipse_63" data-name="Ellipse 63" cx="4.142" cy="5.417" rx="4.142" ry="5.417" transform="translate(15.598 72.031)" fill="#3f3d56"/>
      <path id="Path_315" data-name="Path 315" d="M187.124,278.227a19.566,19.566,0,0,1-1.543-2.268l10.877-1.786-11.763.088a19.876,19.876,0,0,1-.38-15.715l15.783,8.191L185.542,256.03a19.832,19.832,0,1,1,32.748,22.192,19.526,19.526,0,0,1,2.263,3.616l-14.114,7.334,15.053-5.052a19.837,19.837,0,0,1-3.2,18.62,19.827,19.827,0,1,1-31.147,0,19.827,19.827,0,0,1,0-24.519Z" transform="translate(-182.88 -246.103)" fill="#6c63ff"/>
      <path id="Path_316" data-name="Path 316" d="M222.544,336.992a19.744,19.744,0,0,1-4.244,12.259,19.827,19.827,0,1,1-31.147,0C184.476,345.879,222.544,334.768,222.544,336.992Z" transform="translate(-182.89 -292.609)" opacity="0.1"/>
    </g>
    <ellipse id="Ellipse_64" data-name="Ellipse 64" cx="266.698" cy="4.312" rx="266.698" ry="4.312" transform="translate(0 235.498)" fill="#6c63ff" opacity="0.1"/>
    <ellipse id="Ellipse_65" data-name="Ellipse 65" cx="266.698" cy="4.312" rx="266.698" ry="4.312" transform="translate(0 270.903)" fill="#6c63ff" opacity="0.1"/>
    <ellipse id="Ellipse_66" data-name="Ellipse 66" cx="266.698" cy="4.312" rx="266.698" ry="4.312" transform="translate(0 161.606)" fill="#6c63ff" opacity="0.1"/>
    <ellipse id="Ellipse_67" data-name="Ellipse 67" cx="266.698" cy="4.312" rx="266.698" ry="4.312" transform="translate(0 198.549)" fill="#6c63ff" opacity="0.1"/>
    <path id="Path_317" data-name="Path 317" d="M832.644,260.5a8.906,8.906,0,0,0-5.159.565,7.616,7.616,0,0,1-6.2,0,8.7,8.7,0,0,0-7.3.141,4.5,4.5,0,0,1-2.1.526c-2.959,0-5.417-2.978-5.928-6.906a5.781,5.781,0,0,0,1.46-1.591,8.306,8.306,0,0,1,14.829-.054,5.684,5.684,0,0,0,4.911,2.7h.078C829.617,255.848,831.656,257.736,832.644,260.5Z" transform="translate(-439.027 -206.965)" fill="#6c63ff" opacity="0.1"/>
    <path id="Path_318" data-name="Path 318" d="M841.642,236.567l-4.779,3.027,2.92-5.276a4.721,4.721,0,0,0-2.891-1.027h-.078a5.523,5.523,0,0,1-.973-.073l-1.645,1.027.7-1.265a5.738,5.738,0,0,1-2.837-2.151l-2.92,1.84,1.83-3.329a8.481,8.481,0,0,0-6.492-3.28,8.906,8.906,0,0,0-7.436,4.584,5.553,5.553,0,0,1-4.911,2.648h-.161c-3.329,0-6.025,3.772-6.025,8.424s2.7,8.429,6.025,8.429a4.57,4.57,0,0,0,2.1-.526,8.692,8.692,0,0,1,7.3-.146,7.568,7.568,0,0,0,6.2,0,8.721,8.721,0,0,1,7.232.141,4.526,4.526,0,0,0,2.073.516c3.329,0,6.025-3.777,6.025-8.429A10.673,10.673,0,0,0,841.642,236.567Z" transform="translate(-439.017 -195.374)" fill="#6c63ff" opacity="0.1"/>
    <path id="Path_319" data-name="Path 319" d="M423.569,258.838a6.249,6.249,0,0,0-3.616.394,5.314,5.314,0,0,1-4.336,0,6.074,6.074,0,0,0-5.105.1,3.222,3.222,0,0,1-1.46.365c-2.068,0-3.791-2.083-4.151-4.833a4.049,4.049,0,0,0,1.037-1.114,5.816,5.816,0,0,1,10.381-.039,3.986,3.986,0,0,0,3.441,1.888h.054C421.447,255.592,422.873,256.915,423.569,258.838Z" transform="translate(-233.153 -207.941)" fill="#6c63ff" opacity="0.1"/>
    <path id="Path_320" data-name="Path 320" d="M429.861,242.1l-3.343,2.122,2.029-3.694a3.285,3.285,0,0,0-2.02-.72h-.058a3.647,3.647,0,0,1-.691-.054l-1.134.72.487-.886a4.039,4.039,0,0,1-1.986-1.5l-2.029,1.285,1.285-2.326a5.942,5.942,0,0,0-4.546-2.3,6.225,6.225,0,0,0-5.2,3.212,3.893,3.893,0,0,1-3.441,1.854H409.1c-2.331,0-4.219,2.638-4.219,5.9s1.888,5.9,4.219,5.9a3.164,3.164,0,0,0,1.46-.37,6.083,6.083,0,0,1,5.1-.1,5.227,5.227,0,0,0,4.341.029,6.1,6.1,0,0,1,5.061.1,3.154,3.154,0,0,0,1.46.36c2.326,0,4.215-2.643,4.215-5.9a7.46,7.46,0,0,0-.876-3.626Z" transform="translate(-233.142 -199.83)" fill="#6c63ff" opacity="0.1"/>
    <path id="Path_321" data-name="Path 321" d="M321.59,337.248a6.239,6.239,0,0,1,3.611.394,5.324,5.324,0,0,0,4.341,0,6.093,6.093,0,0,1,5.105.1,3.148,3.148,0,0,0,1.46.37c2.068,0,3.791-2.088,4.146-4.838a3.966,3.966,0,0,1-1.032-1.114,5.821,5.821,0,0,0-10.386-.034,3.986,3.986,0,0,1-3.436,1.888h-.053C323.707,334.021,322.276,335.34,321.59,337.248Z" transform="translate(-190.387 -248.19)" fill="#6c63ff" opacity="0.1"/>
    <path id="Path_322" data-name="Path 322" d="M307.72,320.544l3.348,2.122-2.034-3.689a3.3,3.3,0,0,1,2.025-.725h.054a4.15,4.15,0,0,0,.7-.049l1.134.715-.487-.881a4.035,4.035,0,0,0,1.981-1.5l2.029,1.285-1.265-2.331a5.937,5.937,0,0,1,4.546-2.3,6.231,6.231,0,0,1,5.2,3.212,3.893,3.893,0,0,0,3.436,1.854h.117c2.326,0,4.215,2.643,4.215,5.9s-1.888,5.9-4.215,5.9a3.158,3.158,0,0,1-1.46-.365,6.074,6.074,0,0,0-5.105-.1,5.286,5.286,0,0,1-2.18.487,5.353,5.353,0,0,1-2.161-.457,6.093,6.093,0,0,0-5.057.1,3.154,3.154,0,0,1-1.46.36c-2.331,0-4.219-2.638-4.219-5.9a7.514,7.514,0,0,1,.861-3.631Z" transform="translate(-182.825 -240.1)" fill="#6c63ff" opacity="0.1"/>
    <path id="Path_323" data-name="Path 323" d="M710.55,598.231c1.27-2.355-.17-5.237-1.825-7.334s-3.679-4.283-3.635-6.955c.063-3.84,4.142-6.113,7.4-8.147a36.157,36.157,0,0,0,6.643-5.353,9.8,9.8,0,0,0,2.039-2.735,11.061,11.061,0,0,0,.613-4.867q-.209-8.22-.813-16.43" transform="translate(-387.247 -359.818)" fill="none" stroke="#3f3d56" stroke-miterlimit="10" stroke-width="4"/>
    <path id="Path_324" data-name="Path 324" d="M737.819,539.823a5.991,5.991,0,0,0-2.993-4.911l-1.343,2.652.044-3.212a5.991,5.991,0,1,0,4.292,5.47Z" transform="translate(-397.901 -353.503)" fill="#6c63ff"/>
    <path id="Path_325" data-name="Path 325" d="M716.551,620.014a5.991,5.991,0,0,1-11.31-2.433,5.841,5.841,0,0,1,.389-2.433,6,6,0,0,1,11.194.063l-3.742,3.047,4.117-.973A5.958,5.958,0,0,1,716.551,620.014Z" transform="translate(-387.321 -393.145)" fill="#6c63ff"/>
    <path id="Path_326" data-name="Path 326" d="M715.793,592.635a5.991,5.991,0,0,1-1.9-11.753l-.034,2.467,1.358-2.686h0a5.993,5.993,0,1,1,.56,11.972Z" transform="translate(-389.522 -377.398)" fill="#6c63ff"/>
    <path id="Path_327" data-name="Path 327" d="M745.655,572.75a5.991,5.991,0,1,1,2.647-11.193l-1.056,2.92,2.156-2.132a5.991,5.991,0,0,1-3.767,10.4Z" transform="translate(-404.837 -367.193)" fill="#6c63ff"/>
    <path id="Path_328" data-name="Path 328" d="M737,544.885c-1.382.151-2.725.579-4.117.667a4.455,4.455,0,0,1-3.786-1.324,19.209,19.209,0,0,1-1.11-1.947,4.262,4.262,0,0,0-1.509-1.421,5.991,5.991,0,1,0,11.193,3.981C737.453,544.846,737.225,544.86,737,544.885Z" transform="translate(-397.891 -356.969)" opacity="0.1"/>
    <path id="Path_329" data-name="Path 329" d="M745.682,576.366a5.991,5.991,0,0,1-5.7-8.546,4.433,4.433,0,0,1,1.2,1.207,20.293,20.293,0,0,0,1.188,1.981,4.887,4.887,0,0,0,3.976,1.387c1.445-.073,2.842-.487,4.283-.608.2,0,.4-.029.6-.034a5.991,5.991,0,0,1-5.553,4.614Z" transform="translate(-404.864 -370.809)" opacity="0.1"/>
    <path id="Path_330" data-name="Path 330" d="M715.8,596.374a5.991,5.991,0,0,1-5.748-8.434,4.867,4.867,0,0,1,1.27,1.217,20.064,20.064,0,0,0,1.3,2.02,5.425,5.425,0,0,0,4.239,1.46c1.528-.063,2.92-.394,4.38-.487a6,6,0,0,1-5.441,4.224Z" transform="translate(-389.524 -381.137)" opacity="0.1"/>
    <path id="Path_331" data-name="Path 331" d="M716.551,624.037a5.991,5.991,0,0,1-11.31-2.433,5.841,5.841,0,0,1,.389-2.433,5.978,5.978,0,0,1,1.314,1.173c.569.691.944,1.46,1.606,2.127a7.487,7.487,0,0,0,4.959,1.742,25.165,25.165,0,0,0,3.042-.175Z" transform="translate(-387.321 -397.168)" opacity="0.1"/>
    <path id="Path_332" data-name="Path 332" d="M100.55,526.231c1.27-2.355-.17-5.237-1.825-7.334s-3.679-4.292-3.635-6.955c.063-3.84,4.142-6.113,7.4-8.147a36.161,36.161,0,0,0,6.643-5.353,9.8,9.8,0,0,0,2.039-2.735,11.062,11.062,0,0,0,.613-4.867q-.214-8.22-.813-16.43" transform="translate(-74.118 -322.859)" fill="none" stroke="#3f3d56" stroke-miterlimit="10" stroke-width="4"/>
    <path id="Path_333" data-name="Path 333" d="M127.819,467.823a5.991,5.991,0,0,0-2.993-4.911l-1.343,2.652.044-3.212a5.991,5.991,0,1,0,4.292,5.47Z" transform="translate(-84.772 -316.544)" fill="#6c63ff"/>
    <path id="Path_334" data-name="Path 334" d="M106.551,548.014a5.991,5.991,0,0,1-11.31-2.433,5.841,5.841,0,0,1,.389-2.433,6,6,0,0,1,11.194.063l-3.743,3.047,4.117-.973A5.957,5.957,0,0,1,106.551,548.014Z" transform="translate(-74.192 -356.186)" fill="#6c63ff"/>
    <path id="Path_335" data-name="Path 335" d="M105.793,520.635a5.991,5.991,0,0,1-1.9-11.753l-.034,2.467,1.358-2.686h0a5.993,5.993,0,0,1,.56,11.972Z" transform="translate(-76.393 -340.438)" fill="#6c63ff"/>
    <path id="Path_336" data-name="Path 336" d="M135.655,500.75a5.991,5.991,0,1,1,2.648-11.193l-1.056,2.92,2.156-2.132a5.991,5.991,0,0,1-3.767,10.4Z" transform="translate(-91.708 -330.233)" fill="#6c63ff"/>
    <path id="Path_337" data-name="Path 337" d="M127,472.885c-1.382.151-2.725.579-4.117.667a4.455,4.455,0,0,1-3.786-1.324,19.211,19.211,0,0,1-1.11-1.947,4.263,4.263,0,0,0-1.509-1.421,5.991,5.991,0,1,0,11.194,3.981C127.454,472.846,127.225,472.86,127,472.885Z" transform="translate(-84.762 -320.01)" opacity="0.1"/>
    <path id="Path_338" data-name="Path 338" d="M135.682,504.366a5.991,5.991,0,0,1-5.7-8.546,4.434,4.434,0,0,1,1.2,1.207,20.305,20.305,0,0,0,1.187,1.981,4.887,4.887,0,0,0,3.976,1.387c1.445-.073,2.842-.487,4.283-.608.2,0,.4-.029.6-.034A5.991,5.991,0,0,1,135.682,504.366Z" transform="translate(-91.735 -333.849)" opacity="0.1"/>
    <path id="Path_339" data-name="Path 339" d="M105.8,524.374a5.991,5.991,0,0,1-5.748-8.434,4.868,4.868,0,0,1,1.27,1.217,20.075,20.075,0,0,0,1.3,2.02,5.425,5.425,0,0,0,4.239,1.46c1.528-.063,2.92-.394,4.38-.487A6,6,0,0,1,105.8,524.374Z" transform="translate(-76.395 -344.177)" opacity="0.1"/>
    <path id="Path_340" data-name="Path 340" d="M106.551,552.037a5.991,5.991,0,0,1-11.31-2.433,5.841,5.841,0,0,1,.389-2.433,5.983,5.983,0,0,1,1.314,1.173c.569.691.944,1.46,1.606,2.127a7.487,7.487,0,0,0,4.959,1.742A25.166,25.166,0,0,0,106.551,552.037Z" transform="translate(-74.192 -360.208)" opacity="0.1"/>
    <path id="Path_341" data-name="Path 341" d="M500.656,443.871c-1.27-2.351.17-5.232,1.83-7.329s3.674-4.283,3.631-6.955c-.058-3.845-4.137-6.113-7.4-8.147a36.014,36.014,0,0,1-6.638-5.353,9.625,9.625,0,0,1-2.044-2.73,11.215,11.215,0,0,1-.613-4.867q.219-8.22.813-16.43" transform="translate(-276.533 -280.586)" fill="none" stroke="#3f3d56" stroke-miterlimit="10" stroke-width="4"/>
    <path id="Path_342" data-name="Path 342" d="M478.383,385.463a5.986,5.986,0,0,1,2.988-4.911l1.343,2.652-.039-3.212a6.141,6.141,0,0,1,1.971-.238,5.991,5.991,0,1,1-6.263,5.709Z" transform="translate(-270.87 -274.267)" fill="#6c63ff"/>
    <path id="Path_343" data-name="Path 343" d="M499.642,465.6a5.991,5.991,0,1,0-.287-4.823l3.742,3.047-4.117-.973a5.957,5.957,0,0,0,.662,2.75Z" transform="translate(-281.446 -313.858)" fill="#6c63ff"/>
    <path id="Path_344" data-name="Path 344" d="M500.4,438.274a5.991,5.991,0,0,0,1.9-11.753l.029,2.467L500.97,426.3h0a5.991,5.991,0,0,0-6.278,5.689,5.918,5.918,0,0,0,.258,2.044A5.986,5.986,0,0,0,500.4,438.274Z" transform="translate(-279.242 -298.16)" fill="#6c63ff"/>
    <path id="Path_345" data-name="Path 345" d="M470.5,418.37a5.991,5.991,0,1,0-2.652-11.193l1.061,2.92-2.18-2.088a5.942,5.942,0,0,0-1.947,4.137,5.8,5.8,0,0,0,.151,1.65,5.986,5.986,0,0,0,5.568,4.575Z" transform="translate(-263.887 -287.945)" fill="#6c63ff"/>
    <path id="Path_346" data-name="Path 346" d="M479.342,390.525c1.382.151,2.725.579,4.112.667a4.475,4.475,0,0,0,3.791-1.324,19.175,19.175,0,0,0,1.1-1.947,4.278,4.278,0,0,1,1.514-1.421,5.991,5.991,0,1,1-11.194,3.976C478.889,390.481,479.113,390.5,479.342,390.525Z" transform="translate(-271.021 -277.732)" opacity="0.1"/>
    <path id="Path_347" data-name="Path 347" d="M470.683,421.986a6,6,0,0,0,5.7-8.546,4.454,4.454,0,0,0-1.207,1.207,20.3,20.3,0,0,1-1.187,1.981,4.871,4.871,0,0,1-3.971,1.387c-1.445-.073-2.842-.487-4.283-.608-.2,0-.4-.029-.6-.034a5.986,5.986,0,0,0,5.553,4.614Z" transform="translate(-264.07 -291.561)" opacity="0.1"/>
    <path id="Path_348" data-name="Path 348" d="M500.681,442.014a5.986,5.986,0,0,0,5.748-8.434,4.783,4.783,0,0,0-1.265,1.217,20.072,20.072,0,0,1-1.3,2.02,5.436,5.436,0,0,1-4.244,1.46c-1.533-.063-2.92-.394-4.38-.487a5.986,5.986,0,0,0,5.441,4.224Z" transform="translate(-279.527 -301.9)" opacity="0.1"/>
    <path id="Path_349" data-name="Path 349" d="M500.34,469.677a5.991,5.991,0,0,0,10.926-4.867,5.752,5.752,0,0,0-1.314,1.173c-.569.691-.973,1.46-1.606,2.127a7.5,7.5,0,0,1-4.964,1.742,26.259,26.259,0,0,1-3.042-.175Z" transform="translate(-282.144 -317.931)" opacity="0.1"/>
    <circle id="Ellipse_68" data-name="Ellipse 68" cx="48.648" cy="48.648" r="48.648" transform="translate(330.827 67.084)" fill="#3f3d56"/>
    <path id="Path_350" data-name="Path 350" d="M829.226,389.969a36.857,36.857,0,0,0-7.787-5.2c-2.331-1.119-3.188-1.1-4.838.092-1.372.973-2.263,1.913-3.84,1.567s-4.7-2.7-7.724-5.714-5.368-6.117-5.7-7.719.589-2.472,1.572-3.845c1.188-1.65,1.222-2.506.093-4.838a37.326,37.326,0,0,0-5.207-7.787c-1.708-1.7-2.078-1.329-3.013-.973a17.418,17.418,0,0,0-2.759,1.46,8.326,8.326,0,0,0-3.309,3.5c-.667,1.421-1.421,4.059,2.458,10.965a61.168,61.168,0,0,0,10.755,14.342h0a61.261,61.261,0,0,0,14.391,10.775c6.9,3.893,9.544,3.12,10.965,2.458a8.171,8.171,0,0,0,3.494-3.309,17.194,17.194,0,0,0,1.46-2.759C830.555,392.047,830.934,391.667,829.226,389.969Z" transform="translate(-428.868 -261.69)" fill="#6c63ff"/>
    <path id="Path_351" data-name="Path 351" d="M780.372,300.86a48.667,48.667,0,1,0,48.643,48.651A48.667,48.667,0,0,0,780.372,300.86Zm0,90.823a42.18,42.18,0,1,1,42.18-42.18,42.18,42.18,0,0,1-42.18,42.18Z" transform="translate(-400.897 -233.771)" opacity="0.1"/>
    <circle id="Ellipse_69" data-name="Ellipse 69" cx="48.648" cy="48.648" r="48.648" transform="translate(219.062 140.976)" fill="#3f3d56"/>
    <path id="Path_352" data-name="Path 352" d="M600.057,522.331,585.49,537.15a.263.263,0,0,0,0,.38l10.22,10.867a1.758,1.758,0,1,1-2.487,2.487l-10.167-10.828a.278.278,0,0,0-.389,0l-2.477,2.5a10.887,10.887,0,0,1-7.787,3.275,11.125,11.125,0,0,1-7.923-3.368l-2.38-2.433a.277.277,0,0,0-.389,0l-10.142,10.8a1.758,1.758,0,1,1-2.487-2.487l10.181-10.843a.292.292,0,0,0,0-.38L544.7,522.307a.268.268,0,0,0-.457.19V552.15a4.341,4.341,0,0,0,4.327,4.327H596.2a4.341,4.341,0,0,0,4.327-4.327V522.521a.268.268,0,0,0-.467-.19Z" transform="translate(-304.679 -347.405)" fill="#6c63ff"/>
    <path id="Path_353" data-name="Path 353" d="M574.14,537.387a7.368,7.368,0,0,0,5.315-2.19L600.668,513.6a4.234,4.234,0,0,0-2.677-.973H550.327a4.2,4.2,0,0,0-2.677.973L568.869,535.2A7.339,7.339,0,0,0,574.14,537.387Z" transform="translate(-306.43 -342.478)" fill="#6c63ff"/>
    <path id="Path_354" data-name="Path 354" d="M549.462,452.69A48.667,48.667,0,1,0,598.1,501.341,48.667,48.667,0,0,0,549.462,452.69Zm0,90.823a42.18,42.18,0,1,1,42.18-42.18A42.18,42.18,0,0,1,549.462,543.513Z" transform="translate(-282.365 -311.709)" opacity="0.1"/>
    <circle id="Ellipse_70" data-name="Ellipse 70" cx="48.648" cy="48.648" r="48.648" transform="translate(103.608 104.645)" fill="#3f3d56"/>
    <path id="Path_355" data-name="Path 355" d="M344.394,430.16,325,474.9l1.81,1.81,17.588-7.758,17.588,7.758,1.81-1.81Z" transform="translate(-192.138 -300.144)" fill="#6c63ff"/>
    <path id="Path_356" data-name="Path 356" d="M313.492,378a48.639,48.639,0,1,0,.008,0Zm0,90.823a34.711,34.711,0,1,1,0,.019Z" transform="translate(-161.236 -273.369)" opacity="0.1"/>
    <path id="Path_357" data-name="Path 357" d="M816.427,581.591q-.662-1.616-1.358-3.222a9.563,9.563,0,0,0-1.66-2.866,3.038,3.038,0,0,0-.973-.73,4.153,4.153,0,0,0-1.27-.253,10.137,10.137,0,0,0-2-.053c-.258-.078-.55-.18-.837-.3a6.95,6.95,0,0,0,5.178-6.448v-.3a6.935,6.935,0,0,0-6.906-6.964,6.813,6.813,0,0,0-3.626,1.037,6.507,6.507,0,0,0-7.3,3.519A8.045,8.045,0,0,0,793.2,571c0,.1,0,.209,0,.307.127,3.781,2.57,6.813,5.655,7.12a3.242,3.242,0,0,0-.9.6c-.944.91-1.1,2.356-1.2,3.67l-.073.973-1.635.584a.3.3,0,0,0-.073.53l1.562,1.115v.277a1.217,1.217,0,0,0,.029.316,2.234,2.234,0,0,0-.6.861,3.981,3.981,0,0,0-.141,1.577l.058,1.358a10.664,10.664,0,0,0,.414,3.022c.2.6,1.09,2.059,1.728,2.068a62.966,62.966,0,0,0-.745,8.322c-.073.073.131.141.487.2.35,2.687,1.494,10.22,3.523,13.534a28.527,28.527,0,0,1,.764,3.29s.579,7.159,1.343,9.286a47.277,47.277,0,0,1,1.309,7.573.745.745,0,0,0-.54.555c-.384,1.158-2.876,2.92-2.876,2.92a12.053,12.053,0,0,0-2.151,1.377c-.784.706-.754,1.343,2.725.944,6.716-.774,7.865-2.92,7.865-2.92s-.107-.36-.268-.827a8.983,8.983,0,0,0-.881-2.078c-.1-.092-.195.063-.311.307a41.673,41.673,0,0,1-.458-9.4,15.246,15.246,0,0,0-.769-5.611,10.621,10.621,0,0,1,0-3.674c.384-1.548-1.533-9.1-1.533-9.1l-1.1-5.558a1.6,1.6,0,0,1,.307.647l.029.112.029.161a.3.3,0,0,0,.078.151c.749,3.115,2.8,11.743,2.8,13.009,0,1.548,1.917,5.417,1.917,5.417s.764,6.385,2.107,8.9a12.9,12.9,0,0,1,1,5.952h0a5.513,5.513,0,0,1-.613,1.976,4.7,4.7,0,0,0-.725,1.26l-.044.092s-.574,1.163-.19,1.358a9.428,9.428,0,0,0,4.6.579s.769-.973.769-1.353a6.09,6.09,0,0,0-.088-.691c-.141-.915-.4-2.355-.409-2.37a6.644,6.644,0,0,0-.487-2.356l-.195-5.417a25.005,25.005,0,0,0-1.343-10.838s-.973-3.48-.764-4.448-.384-11.223-.384-11.223l-.058-.146a11.09,11.09,0,0,1,.058-2.175,28.9,28.9,0,0,0-.769-7.349,6.378,6.378,0,0,1-.272-1.6c.044-.4.175-1.587.355-3.056a54.923,54.923,0,0,0,5.655-.487.706.706,0,0,0,.487-.195.682.682,0,0,0,.112-.394C818.6,587.12,817.532,584.288,816.427,581.591Zm-3.859,6.137c.2-1.387.414-2.73.628-3.728l.029.088a27.073,27.073,0,0,1,.925,3.066A10.427,10.427,0,0,1,812.568,587.728Z" transform="translate(-432.475 -367.031)" fill="url(#linear-gradient)"/>
    <path id="Path_358" data-name="Path 358" d="M802.37,648.28s1.149,10.332,3.635,14.347a27.849,27.849,0,0,1,.764,3.251s.574,7.076,1.338,9.179a50.635,50.635,0,0,1,1.338,7.845s2.677,3.056,3.635.574a40.307,40.307,0,0,1-.574-9.948,14.98,14.98,0,0,0-.764-5.548,10.376,10.376,0,0,1,0-3.631c.38-1.533-1.533-8.989-1.533-8.989l-1.528-7.461Z" transform="translate(-437.184 -411.916)" fill="#be6f72"/>
    <path id="Path_359" data-name="Path 359" d="M815.556,721.871s-1.149,2.1-7.84,2.867c-3.475.394-3.5-.234-2.716-.934a12.116,12.116,0,0,1,2.141-1.363s2.487-1.718,2.867-2.867,1.723-.19,1.723-.19c1.913,2.867,2.3-.769,2.677-.384a8.629,8.629,0,0,1,.881,2.049C815.449,721.511,815.556,721.871,815.556,721.871Z" transform="translate(-438.32 -448.398)" fill="#ff6f61"/>
    <path id="Path_360" data-name="Path 360" d="M815.556,724.063s-1.149,2.1-7.84,2.866c-3.475.394-3.5-.234-2.716-.934.545.346,1.645.487,3.859-.4,3.188-1.3,5.5-2.059,6.429-2.351C815.449,723.7,815.556,724.063,815.556,724.063Z" transform="translate(-438.32 -450.59)" opacity="0.1"/>
    <path id="Path_361" data-name="Path 361" d="M817.769,673.528A14.982,14.982,0,0,0,817,667.98a10.375,10.375,0,0,1,0-3.631c.38-1.533-1.533-8.989-1.533-8.989l-1.528-7.461-1.324.078,1.514,7.383s1.913,7.456,1.533,8.989a10.376,10.376,0,0,0,0,3.631,14.543,14.543,0,0,1,.764,5.548,40.309,40.309,0,0,0,.574,9.948,1.674,1.674,0,0,1-.555.788,1.25,1.25,0,0,0,1.893-.788A40.309,40.309,0,0,1,817.769,673.528Z" transform="translate(-442.446 -411.916)" opacity="0.1"/>
    <path id="Path_362" data-name="Path 362" d="M806.517,562.42a6.814,6.814,0,0,0-3.611,1.027,6.5,6.5,0,0,0-7.3,3.48,7.923,7.923,0,0,0-2.477,5.918c0,4.069,2.74,7.363,6.117,7.363a6.178,6.178,0,0,0,5.543-4.239,6.719,6.719,0,0,0,1.723.224,6.886,6.886,0,0,0,0-13.773Z" transform="translate(-432.439 -368.037)" fill="#3f3d56"/>
    <path id="Path_363" data-name="Path 363" d="M824.14,650.65l.574,1.528s.574,10.137.38,11.1.769,4.38.769,4.38a24.484,24.484,0,0,1,1.338,10.707l.19,5.353s.764,2.1.384,2.487-3.266-.341-3.266-.341.384-4.015-.973-6.5-2.1-8.8-2.1-8.8-1.913-3.825-1.913-5.353-3.061-13.963-3.061-13.963Z" transform="translate(-444.417 -413.327)" fill="#be6f72"/>
    <path id="Path_364" data-name="Path 364" d="M801.564,637.56s.195-6.886.973-8.989a14.273,14.273,0,0,0,.852-3.051s11.578,2.093,12.537,1.329a16.609,16.609,0,0,0,.384,2.867,27.5,27.5,0,0,1,.764,7.271c-.209,2.3,0,2.292,0,2.292s-7.845,1.149-8.035,0-.764-1.144-.764-1.144S801.185,637.92,801.564,637.56Z" transform="translate(-436.763 -400.428)" fill="#3f3d56"/>
    <g id="Group_111" data-name="Group 111" transform="translate(364.801 226.421)" opacity="0.1">
      <path id="Path_365" data-name="Path 365" d="M807.892,649.844s-4.838-.131-6.3-.394v.394c-.38.38,6.7.574,6.7.574a.487.487,0,0,1,.263.107C808.3,649.844,807.892,649.844,807.892,649.844Z" transform="translate(-801.58 -639.133)"/>
      <path id="Path_366" data-name="Path 366" d="M824.119,631.117a16.6,16.6,0,0,1-.384-2.867.824.824,0,0,1-.326.117,9.672,9.672,0,0,0,.326,2.175,30.383,30.383,0,0,1,.764,7.271c-.209,2.3,0,2.292,0,2.292s-6.205.91-7.709.3a2.3,2.3,0,0,0,.058.273c.19,1.148,8.035,0,8.035,0s-.195,0,0-2.292A28.435,28.435,0,0,0,824.119,631.117Z" transform="translate(-809.388 -628.25)"/>
      <path id="Path_367" data-name="Path 367" d="M807.892,649.844s-4.838-.131-6.3-.394v.394c-.38.38,6.7.574,6.7.574a.487.487,0,0,1,.263.107C808.3,649.844,807.892,649.844,807.892,649.844Z" transform="translate(-801.58 -639.133)"/>
      <path id="Path_368" data-name="Path 368" d="M824.119,631.117a16.6,16.6,0,0,1-.384-2.867.824.824,0,0,1-.326.117,9.672,9.672,0,0,0,.326,2.175,30.383,30.383,0,0,1,.764,7.271c-.209,2.3,0,2.292,0,2.292s-6.205.91-7.709.3a2.3,2.3,0,0,0,.058.273c.19,1.148,8.035,0,8.035,0s-.195,0,0-2.292A28.435,28.435,0,0,0,824.119,631.117Z" transform="translate(-809.388 -628.25)"/>
    </g>
    <path id="Path_369" data-name="Path 369" d="M814.557,585.106a2.537,2.537,0,0,0,.73.944,1.637,1.637,0,0,0,.686.3c-.428.248-.9.433-1.324.681a23.547,23.547,0,0,0-1.947,1.46,3.961,3.961,0,0,1-2.234.866,2.735,2.735,0,0,0,.311-2.721,2.541,2.541,0,0,1-.341-.944,1.7,1.7,0,0,1,.939-1.265c.365-.248.74-.487,1.119-.725.3-.185.745-.574,1.119-.56s.419.346.487.686A5.4,5.4,0,0,0,814.557,585.106Z" transform="translate(-441.327 -378.672)" fill="#be6f72"/>
    <path id="Path_370" data-name="Path 370" d="M814.557,585.106a2.537,2.537,0,0,0,.73.944,1.637,1.637,0,0,0,.686.3c-.428.248-.9.433-1.324.681a23.547,23.547,0,0,0-1.947,1.46,3.961,3.961,0,0,1-2.234.866,2.735,2.735,0,0,0,.311-2.721,2.541,2.541,0,0,1-.341-.944,1.7,1.7,0,0,1,.939-1.265c.365-.248.74-.487,1.119-.725.3-.185.745-.574,1.119-.56s.419.346.487.686A5.4,5.4,0,0,0,814.557,585.106Z" transform="translate(-441.327 -378.672)" opacity="0.1"/>
    <circle id="Ellipse_71" data-name="Ellipse 71" cx="4.4" cy="4.4" r="4.4" transform="translate(373.313 208.92)" fill="#be6f72"/>
    <path id="Path_371" data-name="Path 371" d="M835.094,724.841c0,.384-.764,1.338-.764,1.338a9.472,9.472,0,0,1-4.589-.574c-.384-.19.19-1.338.19-1.338l.044-.092a4.641,4.641,0,0,1,.725-1.246,5.445,5.445,0,0,0,.608-1.947c1.187-1.947,3.295.842,3.295.842s.268,1.46.409,2.346A6.662,6.662,0,0,1,835.094,724.841Z" transform="translate(-451.166 -449.076)" fill="#ff6f61"/>
    <path id="Path_372" data-name="Path 372" d="M835.094,728.921c0,.384-.764,1.338-.764,1.338a9.472,9.472,0,0,1-4.589-.574c-.384-.19.19-1.338.19-1.338l.044-.092a9.248,9.248,0,0,0,4.166.857l.871-.871C835.06,728.566,835.094,728.824,835.094,728.921Z" transform="translate(-451.166 -453.156)" opacity="0.1"/>
    <circle id="Ellipse_72" data-name="Ellipse 72" cx="4.302" cy="4.302" r="4.302" transform="translate(364.612 199.834)" fill="#be6f72"/>
    <path id="Path_373" data-name="Path 373" d="M801.43,598.926a5.4,5.4,0,0,0-1.2,3.626l-.146,1.9a9.6,9.6,0,0,0-.034,1.543c0,.316.078.638.107.973s.039.759.044,1.144v2.813a3.318,3.318,0,0,0,.312,1.689,1.149,1.149,0,0,0,1.46.526,1.665,1.665,0,0,0,.6-.934,14.525,14.525,0,0,0,.973-3.562c.039-.423.044-.847.083-1.27s.112-.866.175-1.294c.273-1.791.394-3.6.516-5.407.034-.535.516-2.643-.185-2.876-.341-.112-1.046.238-1.372.355A3.864,3.864,0,0,0,801.43,598.926Z" transform="translate(-435.986 -386.185)" fill="#be6f72"/>
    <path id="Path_374" data-name="Path 374" d="M801.43,598.926a5.4,5.4,0,0,0-1.2,3.626l-.146,1.9a9.6,9.6,0,0,0-.034,1.543c0,.316.078.638.107.973s.039.759.044,1.144v2.813a3.318,3.318,0,0,0,.312,1.689,1.149,1.149,0,0,0,1.46.526,1.665,1.665,0,0,0,.6-.934,14.525,14.525,0,0,0,.973-3.562c.039-.423.044-.847.083-1.27s.112-.866.175-1.294c.273-1.791.394-3.6.516-5.407.034-.535.516-2.643-.185-2.876-.341-.112-1.046.238-1.372.355A3.864,3.864,0,0,0,801.43,598.926Z" transform="translate(-435.986 -386.185)" opacity="0.1"/>
    <path id="Path_375" data-name="Path 375" d="M812.627,588.16a23.591,23.591,0,0,1-5.164,3.061s-1.134,1.295-1.329,1.606-.584,3.747-.973,4.516a3.655,3.655,0,0,0,0,4.2,7.291,7.291,0,0,1,.19,2.3c-.19.574-.886,2.677-.253,2.774s2.55,1.431,4.268,1.051,8.132,1.46,8.132,1.46,1.061-9.855,1.83-11.6l-1.723-.574s-4.779-2.867-1.913-7.266C815.688,589.693,813,589.119,812.627,588.16Z" transform="translate(-438.262 -381.25)" fill="#ff6f61"/>
    <path id="Path_376" data-name="Path 376" d="M796.711,610.523l3.952,2.8a.292.292,0,0,0,.346,0l1.071-.8a.3.3,0,0,0,0-.457l-3.042-2.7a.292.292,0,0,0-.3-.058l-1.952.7a.3.3,0,0,0-.078.521Z" transform="translate(-434.217 -392.093)" fill="#3f3d56"/>
    <path id="Path_377" data-name="Path 377" d="M799.046,621.207a10.591,10.591,0,0,1-.414-2.983l-.058-1.348a3.893,3.893,0,0,1,.141-1.557,2.545,2.545,0,0,1,1.64-1.436,5.664,5.664,0,0,1,2.234-.161.575.575,0,0,1,.287.078.536.536,0,0,1,.156.263,1.762,1.762,0,0,1,.088,1.406,1.459,1.459,0,0,1-.448.462c-.531.38-1.149.633-1.65,1.046a.6.6,0,0,0-.224.282.657.657,0,0,0,0,.307,4.9,4.9,0,0,0,.253.784.773.773,0,0,0,.219.331c.092.078.214.107.311.18.209.17.647.394.623.662a21.811,21.811,0,0,1-.886,3.027C800.881,624.433,799.329,622.029,799.046,621.207Z" transform="translate(-435.223 -394.348)" fill="#be6f72"/>
    <g id="Group_112" data-name="Group 112" transform="translate(369.863 215.997)" opacity="0.1">
      <path id="Path_378" data-name="Path 378" d="M812.087,628.2h-.107a3.276,3.276,0,0,0,1.251,0h.122a4.38,4.38,0,0,0-1.265,0Z" transform="translate(-811.98 -617.777)"/>
      <path id="Path_379" data-name="Path 379" d="M830.849,606.83c-.686,1.543-1.7,9.9-1.879,11.559.672.175,1.114.3,1.114.3s1.051-9.831,1.82-11.573Z" transform="translate(-820.701 -606.83)"/>
    </g>
    <path id="Path_380" data-name="Path 380" d="M819.944,596.076a1.46,1.46,0,0,0,.628.949,8.423,8.423,0,0,1,1.115,1.129,8,8,0,0,1,1.1,2.214,27.135,27.135,0,0,1,.92,3.027c-2.433,1.129-5.2,1.076-7.787,1.82a6.215,6.215,0,0,0-2.92,1.728,4.025,4.025,0,0,0-1.076,3.168.414.414,0,0,0,.058.19.409.409,0,0,0,.341.136,2.92,2.92,0,0,0,1.786-.613,8.5,8.5,0,0,0,1.368-1.343,2.2,2.2,0,0,1,.973-.72,15.928,15.928,0,0,1,4.38-.428,55.185,55.185,0,0,0,6.526-.516.526.526,0,0,0,.584-.584c.214-2.871-.852-5.675-1.947-8.337q-.657-1.6-1.353-3.188a9.44,9.44,0,0,0-1.655-2.833,2.919,2.919,0,0,0-.973-.72,4.118,4.118,0,0,0-1.3-.243,9.249,9.249,0,0,0-2.137-.039,4.554,4.554,0,0,0-.2,1.1,9.57,9.57,0,0,0,1.178,3.733C819.622,595.891,819.832,595.9,819.944,596.076Z" transform="translate(-442.08 -382.62)" fill="#be6f72"/>
    <path id="Path_381" data-name="Path 381" d="M811.9,606.67a3.568,3.568,0,0,0-.487,1.859,2.5,2.5,0,0,0,.122.759,2.462,2.462,0,0,0,1.552,1.46" transform="translate(-441.824 -390.751)" fill="none" stroke="#000" stroke-miterlimit="10" stroke-width="1" opacity="0.1"/>
    <path id="Path_382" data-name="Path 382" d="M808.209,572.2a2.234,2.234,0,0,0-.706.112,4.666,4.666,0,0,0-3.893-1.645c-2.326,0-4.21,1.2-4.21,2.682s1.883,2.677,4.21,2.677a5.921,5.921,0,0,0,2.526-.535,2.292,2.292,0,1,0,2.063-3.29Z" transform="translate(-435.66 -372.272)" fill="#3f3d56"/>
    <path id="Path_383" data-name="Path 383" d="M808.388,578.158a2.288,2.288,0,0,1-2.064-1.3,5.924,5.924,0,0,1-2.526.536c-2.321,0-4.2-1.2-4.2-2.677a1.606,1.606,0,0,1,0-.268,1.815,1.815,0,0,0-.214.842c0,1.46,1.883,2.677,4.21,2.677a5.921,5.921,0,0,0,2.526-.535,2.292,2.292,0,0,0,4.317-.569,2.282,2.282,0,0,1-2.044,1.295Z" transform="translate(-435.649 -374.212)" opacity="0.1"/>
    <path id="Path_384" data-name="Path 384" d="M795.59,568.056a6.5,6.5,0,0,1,7.3-3.48,6.882,6.882,0,0,1,10.473,5.285v-.574a6.882,6.882,0,0,0-10.5-5.84,6.5,6.5,0,0,0-7.3,3.48,7.923,7.923,0,0,0-2.477,5.918v.574A7.786,7.786,0,0,1,795.59,568.056Z" transform="translate(-432.419 -368.037)" opacity="0.1"/>
    <path id="Path_385" data-name="Path 385" d="M882.63,522.346c1.27-2.351-.17-5.237-1.83-7.334s-3.674-4.278-3.631-6.955c.058-3.84,4.137-6.108,7.4-8.147a35.967,35.967,0,0,0,6.638-5.353,9.7,9.7,0,0,0,2.044-2.73,11.216,11.216,0,0,0,.613-4.867q-.214-8.225-.813-16.43" transform="translate(-475.58 -320.867)" fill="none" stroke="#3f3d56" stroke-miterlimit="10" stroke-width="4"/>
    <path id="Path_386" data-name="Path 386" d="M909.889,463.906A5.981,5.981,0,0,0,906.9,459l-1.343,2.652.039-3.212a5.878,5.878,0,0,0-1.971-.238,5.991,5.991,0,1,0,6.263,5.7Z" transform="translate(-486.229 -314.535)" fill="#6c63ff"/>
    <path id="Path_387" data-name="Path 387" d="M888.631,544.051a5.991,5.991,0,1,1,.287-4.828l-3.743,3.047,4.117-.973A5.957,5.957,0,0,1,888.631,544.051Z" transform="translate(-475.654 -354.126)" fill="#6c63ff"/>
    <path id="Path_388" data-name="Path 388" d="M887.867,516.721a5.991,5.991,0,0,1-1.9-11.753l-.029,2.467,1.358-2.682h0a5.993,5.993,0,1,1,.56,11.972Z" transform="translate(-477.849 -338.432)" fill="#6c63ff"/>
    <path id="Path_389" data-name="Path 389" d="M917.729,496.84a5.991,5.991,0,1,1,2.652-11.194l-1.061,2.92,2.18-2.093a5.957,5.957,0,0,1,1.947,4.137,5.785,5.785,0,0,1-.151,1.65A5.991,5.991,0,0,1,917.729,496.84Z" transform="translate(-493.169 -328.226)" fill="#6c63ff"/>
    <path id="Path_390" data-name="Path 390" d="M909.079,468.965c-1.382.156-2.73.584-4.117.672a4.464,4.464,0,0,1-3.791-1.329,18.6,18.6,0,0,1-1.1-1.947,4.307,4.307,0,0,0-1.509-1.421,5.991,5.991,0,1,0,11.193,3.976C909.527,468.926,909.3,468.94,909.079,468.965Z" transform="translate(-486.222 -317.998)" opacity="0.1"/>
    <path id="Path_391" data-name="Path 391" d="M917.755,500.456a6,6,0,0,1-5.7-8.546,4.433,4.433,0,0,1,1.207,1.2,19.192,19.192,0,0,0,1.188,1.981,4.874,4.874,0,0,0,3.971,1.392c1.445-.068,2.842-.487,4.283-.608.2,0,.4-.034.6-.039A5.991,5.991,0,0,1,917.755,500.456Z" transform="translate(-493.195 -331.842)" opacity="0.1"/>
    <path id="Path_392" data-name="Path 392" d="M887.867,520.444A5.986,5.986,0,0,1,882.12,512a4.938,4.938,0,0,1,1.265,1.217c.487.657.754,1.416,1.3,2.02a5.546,5.546,0,0,0,4.244,1.489c1.533-.034,2.92-.4,4.38-.511A5.991,5.991,0,0,1,887.867,520.444Z" transform="translate(-477.849 -342.155)" opacity="0.1"/>
    <path id="Path_393" data-name="Path 393" d="M888.667,548.127a6,6,0,0,1-10.926-4.867,5.869,5.869,0,0,1,1.314,1.173c.574.7.949,1.46,1.606,2.132a7.525,7.525,0,0,0,4.964,1.742,26.25,26.25,0,0,0,3.042-.18Z" transform="translate(-475.69 -358.201)" opacity="0.1"/>
    <path id="Path_394" data-name="Path 394" d="M1041.63,674.346c1.27-2.351-.17-5.237-1.83-7.334s-3.674-4.278-3.63-6.955c.058-3.84,4.137-6.108,7.4-8.147a35.965,35.965,0,0,0,6.638-5.353,9.7,9.7,0,0,0,2.044-2.73,11.215,11.215,0,0,0,.613-4.867q-.209-8.225-.813-16.43" transform="translate(-557.199 -398.893)" fill="none" stroke="#3f3d56" stroke-miterlimit="10" stroke-width="4"/>
    <path id="Path_395" data-name="Path 395" d="M1068.914,615.907a5.981,5.981,0,0,0-2.988-4.906l-1.343,2.652.039-3.212a5.879,5.879,0,0,0-1.947-.239,5.991,5.991,0,1,0,6.264,5.7Z" transform="translate(-567.873 -392.562)" fill="#6c63ff"/>
    <path id="Path_396" data-name="Path 396" d="M1047.631,696.051a5.991,5.991,0,1,1,.287-4.828l-3.743,3.047,4.117-.973a5.956,5.956,0,0,1-.662,2.755Z" transform="translate(-557.273 -432.151)" fill="#6c63ff"/>
    <path id="Path_397" data-name="Path 397" d="M1046.867,668.721a5.991,5.991,0,0,1-1.9-11.753l-.029,2.467,1.358-2.682h0a5.993,5.993,0,1,1,.56,11.972Z" transform="translate(-559.467 -416.457)" fill="#6c63ff"/>
    <path id="Path_398" data-name="Path 398" d="M1076.729,648.84a5.991,5.991,0,1,1,2.652-11.193l-1.061,2.92,2.18-2.093a5.957,5.957,0,0,1,1.947,4.137,5.784,5.784,0,0,1-.151,1.65A5.991,5.991,0,0,1,1076.729,648.84Z" transform="translate(-574.788 -406.252)" fill="#6c63ff"/>
    <path id="Path_399" data-name="Path 399" d="M1068.079,620.965c-1.382.156-2.73.584-4.117.672a4.464,4.464,0,0,1-3.791-1.329,18.583,18.583,0,0,1-1.1-1.947,4.308,4.308,0,0,0-1.509-1.421,5.991,5.991,0,1,0,11.194,3.976C1068.527,620.926,1068.3,620.94,1068.079,620.965Z" transform="translate(-567.841 -396.023)" opacity="0.1"/>
    <path id="Path_400" data-name="Path 400" d="M1076.755,652.456a6,6,0,0,1-5.7-8.546,4.436,4.436,0,0,1,1.207,1.2,19.224,19.224,0,0,0,1.188,1.981,4.874,4.874,0,0,0,3.971,1.392c1.445-.068,2.842-.487,4.283-.608.2,0,.4-.034.6-.039A5.991,5.991,0,0,1,1076.755,652.456Z" transform="translate(-574.814 -409.868)" opacity="0.1"/>
    <path id="Path_401" data-name="Path 401" d="M1046.867,672.444A5.986,5.986,0,0,1,1041.12,664a4.942,4.942,0,0,1,1.265,1.217c.487.657.754,1.416,1.3,2.02a5.546,5.546,0,0,0,4.244,1.489c1.533-.034,2.92-.4,4.38-.511A5.991,5.991,0,0,1,1046.867,672.444Z" transform="translate(-559.468 -420.18)" opacity="0.1"/>
    <path id="Path_402" data-name="Path 402" d="M1047.667,700.127a6,6,0,0,1-10.926-4.867,5.868,5.868,0,0,1,1.314,1.173c.574.7.973,1.46,1.606,2.132a7.525,7.525,0,0,0,4.964,1.742A26.239,26.239,0,0,0,1047.667,700.127Z" transform="translate(-557.309 -436.227)" opacity="0.1"/>
    <path id="Path_403" data-name="Path 403" d="M461.176,573.5a4.774,4.774,0,0,0-1.9-3.854,5.6,5.6,0,0,0-4.677-5.49,5.587,5.587,0,0,0-3.723-4.161h0a4.753,4.753,0,0,0-.691-.161h-.822a5.48,5.48,0,0,0-5.3,4.682c-1.708-.394-3.27.117-3.558,1.2a1.46,1.46,0,0,0,.049.866,3.766,3.766,0,0,0,2.511,2.034l.165.049.248.063h.054a4.3,4.3,0,0,0-.409,1.845,4.254,4.254,0,0,0,2.292,3.8l-.112.068a1.519,1.519,0,0,0-.37.516,7.716,7.716,0,0,0-.715,1.723c-.122.516-.141,1.051-.292,1.562-.282.939-1,1.733-1.085,2.711-.039.438.034.973-.277,1.256a1.512,1.512,0,0,1-.248.175,2.009,2.009,0,0,0-.54.569,1.889,1.889,0,0,1-.38.545c-.282.209-.745.19-.881.516s.219.711.136,1.066-.384.423-.6.623a2.166,2.166,0,0,0-.521.973,3.192,3.192,0,0,1-2.628-.672,4.91,4.91,0,0,1,.273.973,4.263,4.263,0,0,0-1.416-.711,4.472,4.472,0,0,1-1.509-1.119l.808-.112-3.567-5.446-1.056-.219.944,1.815a.579.579,0,0,0-.321.384,1.649,1.649,0,0,0-.034.618,11.069,11.069,0,0,0,.243,1.46l.273,1.275c.024.117.054.238.088.355a3.352,3.352,0,0,0-1.056.117,9.189,9.189,0,0,0-2.195-.521,1.214,1.214,0,0,0-.487,0,1.261,1.261,0,0,0-.462.375,14.97,14.97,0,0,0-1.63,2.3,80.187,80.187,0,0,1-6.882,9.271c-1.655.672-3.324,1.309-4.993,1.947l-3.592,1.372a5.446,5.446,0,0,1-2.229.487c-.341,0-.764-.073-.973.219a2.046,2.046,0,0,0-.219.487l-.37.039h0a4.253,4.253,0,0,0-.861-1.587.545.545,0,0,0-.4.311c-.088.161-.141.336-.243.487-.19.282-.526.419-.764.657s-.389.608-.652.852a2.579,2.579,0,0,1-1.222.487,7.712,7.712,0,0,0-1.913.725,3.079,3.079,0,0,1-.706.326,2.652,2.652,0,0,1-.832.029l-1.9-.141a1.5,1.5,0,0,0-.511.024.973.973,0,0,0-.6.973,1.533,1.533,0,0,0,.6,1.046,3.864,3.864,0,0,0,1.08.56,31.706,31.706,0,0,0,5.061,1.5v.384a8.638,8.638,0,0,0,3.893.925.6.6,0,0,0,.292-.053.643.643,0,0,0,.243-.38,15.658,15.658,0,0,0,.759-3.728h0a1.947,1.947,0,0,0,.686-.175c.652-.18,1.3.268,1.981.341a5.412,5.412,0,0,0,2.39-.691l.341-.112a3.739,3.739,0,0,1-.788.754c-.326.234-.691.409-1.007.652a6.938,6.938,0,0,1-.857.662,5.377,5.377,0,0,1-.657.253,4.337,4.337,0,0,0-.939.487,1.9,1.9,0,0,0-.638.623.934.934,0,0,0-.053.876.925.925,0,0,0,.628.438,2.574,2.574,0,0,0,.774,0c1.032-.078,2.059-.17,3.086-.263a8.236,8.236,0,0,0,1.29-.185c.224-.054.448-.127.672-.19a5.991,5.991,0,0,1,1.173-.175.973.973,0,0,1,.341.034c.238.078.409.321.652.37a.974.974,0,0,0,.487-.063,10.861,10.861,0,0,1,2.283-.243.942.942,0,0,0,.886-.394c.156-.311-.127-.813-.253-1.226a3.755,3.755,0,0,1-.107-.808,5.057,5.057,0,0,0-.565-1.918,5,5,0,0,1-.423-.876,22.129,22.129,0,0,0,4.2-2.132,7.508,7.508,0,0,1,2.394-1.153,6.512,6.512,0,0,1,3.008.35,68.432,68.432,0,0,1,6.9,2.4c1.076.443,2.146.91,3.256,1.246a5.078,5.078,0,0,0,1.158,1.124,5.354,5.354,0,0,0,2.506.686,32.845,32.845,0,0,0,3.528.131,5.951,5.951,0,0,0,2.628-.487,2.7,2.7,0,0,0,.55-.365,2.181,2.181,0,0,0,1.733-.638,4.2,4.2,0,0,0,1.319-2.083c.287-1.11.068-2.433.749-3.319.18-.243.419-.438.6-.681a1.917,1.917,0,0,0,.311-1.124.225.225,0,0,1,.029-.044,4.124,4.124,0,0,0,.292-1.119,6.407,6.407,0,0,1,.316-.886,27.335,27.335,0,0,0,.905-2.623,15.332,15.332,0,0,0,.419-1.8c.073-.487.117-.973.156-1.46a9.069,9.069,0,0,1,.443-2.253,18.337,18.337,0,0,0,1.022-5.392V581.2a3.616,3.616,0,0,0,3.2-3.679,3.84,3.84,0,0,0-.336-1.572,4.866,4.866,0,0,0,.652-2.453Zm-17.413,21.156c.053.19.117.375.18.56-.287-.277-.565-.564-.852-.847.112.039.229.073.336.117a1.812,1.812,0,0,1,.321.17Zm-1.377-.934c-1.684-1.46-3.631-2.594-5.353-4.01.939.462,1.854,1,2.759,1.518q1.611.92,3.266,1.767a2.673,2.673,0,0,1-.686.725Zm.715-3.679.083-.083v.579l-.453-.156a4.027,4.027,0,0,0,.355-.341Zm-14.81,3.942a13.929,13.929,0,0,0,1.791-2.555,17.2,17.2,0,0,0,2.672,2.983C431.269,594.218,429.78,594.058,428.291,593.98Z" transform="translate(-228.545 -366.707)" fill="url(#linear-gradient-2)"/>
    <path id="Path_404" data-name="Path 404" d="M415.35,438.25l1.061.214,3.616,5.349-1.591.214Z" transform="translate(-213.21 -225.149)" fill="#2f2e41"/>
    <path id="Path_405" data-name="Path 405" d="M414.49,645.4a20.817,20.817,0,0,0,1.061,2.76,26.282,26.282,0,0,0,3.528-1.007,11.122,11.122,0,0,0-.735-.973,3.63,3.63,0,0,0-1-.764,2.744,2.744,0,0,0-1.212,0C415.59,645.4,415.04,645.414,414.49,645.4Z" transform="translate(-238.075 -410.607)" fill="#fbbebe"/>
    <path id="Path_406" data-name="Path 406" d="M407.762,645.213a2.2,2.2,0,0,1-1.207-1.372,4.42,4.42,0,0,0-.92-1.64.525.525,0,0,0-.409.307c-.088.156-.141.331-.238.487-.195.277-.535.414-.779.647s-.389.6-.652.837a2.589,2.589,0,0,1-1.231.487,7.98,7.98,0,0,0-1.947.715,3.357,3.357,0,0,1-.715.321,2.829,2.829,0,0,1-.837,0l-1.917-.136a1.5,1.5,0,0,0-.487,0,.93.93,0,0,0-.608.973,1.46,1.46,0,0,0,.608,1.032,4.042,4.042,0,0,0,1.09.555,32.076,32.076,0,0,0,5.139,1.46v.38a8.9,8.9,0,0,0,3.918.91.66.66,0,0,0,.292-.049.642.642,0,0,0,.243-.38,15.184,15.184,0,0,0,.8-4.166,3.319,3.319,0,0,0-.083-1.076c-.107-.346.253-.2-.078-.336" transform="translate(-228.486 -408.99)" fill="#2f2e41"/>
    <path id="Path_407" data-name="Path 407" d="M456.118,631.94c-5.684.341-11.3-1.324-16.995-1.5a8.3,8.3,0,0,0-2.112.131,10.638,10.638,0,0,0-2.093.813c-3.051,1.421-6.21,2.6-9.364,3.772l-3.626,1.348a5.488,5.488,0,0,1-2.244.487c-.346,0-.769-.073-.973.214a3.55,3.55,0,0,0,.078,3.139c.127.316.341.662.681.7a1.982,1.982,0,0,0,.691-.175c.657-.175,1.314.268,2,.341a5.607,5.607,0,0,0,2.409-.681,20.907,20.907,0,0,1,4.127-.7,18.491,18.491,0,0,0,6.463-2.682A7.544,7.544,0,0,1,437.566,636a6.666,6.666,0,0,1,3.032.345,69.59,69.59,0,0,1,6.955,2.365,32.413,32.413,0,0,0,3.631,1.329,13.14,13.14,0,0,0,8.142-.487c.91-.36,1.9-.973,1.947-1.976.034-.56-.4-1.051-.691-1.533-.185-.307-.375-.613-.574-.91C459.033,633.726,457.845,631.838,456.118,631.94Z" transform="translate(-240.068 -402.944)" fill="#2f2e41"/>
    <path id="Path_408" data-name="Path 408" d="M456.118,631.94c-5.684.341-11.3-1.324-16.995-1.5a8.3,8.3,0,0,0-2.112.131,10.638,10.638,0,0,0-2.093.813c-3.051,1.421-6.21,2.6-9.364,3.772l-3.626,1.348a5.488,5.488,0,0,1-2.244.487c-.346,0-.769-.073-.973.214a3.55,3.55,0,0,0,.078,3.139c.127.316.341.662.681.7a1.982,1.982,0,0,0,.691-.175c.657-.175,1.314.268,2,.341a5.607,5.607,0,0,0,2.409-.681,20.907,20.907,0,0,1,4.127-.7,18.491,18.491,0,0,0,6.463-2.682A7.544,7.544,0,0,1,437.566,636a6.666,6.666,0,0,1,3.032.345,69.59,69.59,0,0,1,6.955,2.365,32.413,32.413,0,0,0,3.631,1.329,13.14,13.14,0,0,0,8.142-.487c.91-.36,1.9-.973,1.947-1.976.034-.56-.4-1.051-.691-1.533-.185-.307-.375-.613-.574-.91C459.033,633.726,457.845,631.838,456.118,631.94Z" transform="translate(-240.068 -402.944)" opacity="0.1"/>
    <path id="Path_409" data-name="Path 409" d="M436.92,643.5q1.334.453,2.691.837c.487-.832,1.46-1.411,1.669-2.365a.224.224,0,0,0,0-.127.234.234,0,0,0-.1-.092,5.1,5.1,0,0,0-2.112-.618c-.584-.034-.852.574-1.114,1C437.85,642.331,437.158,643.6,436.92,643.5Z" transform="translate(-249.589 -408.444)" fill="#fbbebe"/>
    <path id="Path_410" data-name="Path 410" d="M430.209,643.356a1.946,1.946,0,0,1-1.309-.861c-.122-.219-.258-.516-.511-.487s-.336.292-.389.521a14.6,14.6,0,0,1-.735,2.526,4.74,4.74,0,0,1-1.572,2.068c-.331.229-.7.4-1.022.642a7.02,7.02,0,0,1-.861.652,5.106,5.106,0,0,1-.662.243,4.584,4.584,0,0,0-.944.487,1.874,1.874,0,0,0-.647.618.891.891,0,0,0-.049.861.919.919,0,0,0,.628.428,2.646,2.646,0,0,0,.784,0c1.037-.073,2.073-.165,3.11-.258a8.963,8.963,0,0,0,1.3-.18l.677-.185a5.382,5.382,0,0,1,1.183-.175.918.918,0,0,1,.346.034c.238.078.409.316.657.365a1.1,1.1,0,0,0,.487-.063,10.748,10.748,0,0,1,2.3-.239.971.971,0,0,0,.9-.389c.195-.38-.127-.8-.258-1.212a3.892,3.892,0,0,1-.107-.793,4.837,4.837,0,0,0-.569-1.888c-.263-.487-.623-1.022-.438-1.538a1.46,1.46,0,0,0,.175-.531C432.6,643.166,430.685,643.463,430.209,643.356Z" transform="translate(-241.632 -408.89)" fill="#2f2e41"/>
    <path id="Path_411" data-name="Path 411" d="M473.369,609.528a4.438,4.438,0,0,1-2.268-2.248c-.092-.214-.17-.443-.263-.657a4.994,4.994,0,0,0-1.353-1.883.667.667,0,0,0-.487-.209.53.53,0,0,0-.365.394,1.5,1.5,0,0,0-.039.608,10.836,10.836,0,0,0,.243,1.421l.277,1.256a2.752,2.752,0,0,0,.17.56,1.946,1.946,0,0,0,.462.55c.253.234.511.457.769.681a2.642,2.642,0,0,0,.487.336,2.827,2.827,0,0,0,.861.253,7.33,7.33,0,0,1,3.232,1.246V610.9a1.236,1.236,0,0,0-.243-.677,4.317,4.317,0,0,0-1.484-.7Z" transform="translate(-265.841 -389.653)" fill="#fbbebe"/>
    <path id="Path_412" data-name="Path 412" d="M473.369,609.528a4.438,4.438,0,0,1-2.268-2.248c-.092-.214-.17-.443-.263-.657a4.994,4.994,0,0,0-1.353-1.883.667.667,0,0,0-.487-.209.53.53,0,0,0-.365.394,1.5,1.5,0,0,0-.039.608,10.836,10.836,0,0,0,.243,1.421l.277,1.256a2.752,2.752,0,0,0,.17.56,1.946,1.946,0,0,0,.462.55c.253.234.511.457.769.681a2.642,2.642,0,0,0,.487.336,2.827,2.827,0,0,0,.861.253,7.33,7.33,0,0,1,3.232,1.246V610.9a1.236,1.236,0,0,0-.243-.677,4.317,4.317,0,0,0-1.484-.7Z" transform="translate(-265.841 -389.653)" opacity="0.1"/>
    <ellipse id="Ellipse_73" data-name="Ellipse 73" cx="1.382" cy="1.392" rx="1.382" ry="1.392" transform="translate(217.719 207.485)" fill="#2f2e41"/>
    <path id="Path_413" data-name="Path 413" d="M490.353,590.436a1.494,1.494,0,0,0-1.09.156,1.514,1.514,0,0,0-.375.511,7.423,7.423,0,0,0-.72,1.694c-.122.487-.141,1.037-.3,1.538-.282.925-1.007,1.708-1.09,2.672-.039.433.034.939-.282,1.231a1.782,1.782,0,0,1-.248.18,1.87,1.87,0,0,0-.545.56,1.837,1.837,0,0,1-.385.53c-.282.209-.749.19-.886.487s.219.7.136,1.051-.389.419-.608.613a2.126,2.126,0,0,0-.526.973,3.246,3.246,0,0,1-2.647-.657A8.429,8.429,0,0,1,481.2,605a1.236,1.236,0,0,1-.243.934,16.85,16.85,0,0,1,3.246.565,2.239,2.239,0,0,0,1.416,0,2.365,2.365,0,0,0,.652-.516,4.157,4.157,0,0,0,1.338-2.064,12.119,12.119,0,0,0,.024-1.4,7.874,7.874,0,0,1,.355-1.7,20.213,20.213,0,0,0,.618-3.494c.063-.73.7-1.314,1.027-1.947a9.532,9.532,0,0,0,1.309-3.893C490.966,591.045,490.811,590.485,490.353,590.436Z" transform="translate(-272.109 -382.397)" fill="#2f2e41"/>
    <path id="Path_414" data-name="Path 414" d="M490.353,590.436a1.494,1.494,0,0,0-1.09.156,1.514,1.514,0,0,0-.375.511,7.423,7.423,0,0,0-.72,1.694c-.122.487-.141,1.037-.3,1.538-.282.925-1.007,1.708-1.09,2.672-.039.433.034.939-.282,1.231a1.782,1.782,0,0,1-.248.18,1.87,1.87,0,0,0-.545.56,1.837,1.837,0,0,1-.385.53c-.282.209-.749.19-.886.487s.219.7.136,1.051-.389.419-.608.613a2.126,2.126,0,0,0-.526.973,3.246,3.246,0,0,1-2.647-.657A8.429,8.429,0,0,1,481.2,605a1.236,1.236,0,0,1-.243.934,16.85,16.85,0,0,1,3.246.565,2.239,2.239,0,0,0,1.416,0,2.365,2.365,0,0,0,.652-.516,4.157,4.157,0,0,0,1.338-2.064,12.119,12.119,0,0,0,.024-1.4,7.874,7.874,0,0,1,.355-1.7,20.213,20.213,0,0,0,.618-3.494c.063-.73.7-1.314,1.027-1.947a9.532,9.532,0,0,0,1.309-3.893C490.966,591.045,490.811,590.485,490.353,590.436Z" transform="translate(-272.109 -382.397)" opacity="0.1"/>
    <path id="Path_415" data-name="Path 415" d="M467.841,623.651a12.825,12.825,0,0,1-3.008-2.511c-1.825-1.718-4.059-2.92-5.981-4.541a42.15,42.15,0,0,0-3.811-3.2,9.524,9.524,0,0,0-4.083-1.426,1.086,1.086,0,0,0-.487,0,1.12,1.12,0,0,0-.462.365,14.712,14.712,0,0,0-1.65,2.263c-2.433,4.137-5.894,7.612-8.76,11.456a.729.729,0,0,0-.141.273.676.676,0,0,0,.107.423l.584,1.139c.326.642.852,1.387,1.552,1.26a1.7,1.7,0,0,0,.813-.521l2.618-2.506,2.745-2.623a21.052,21.052,0,0,0,4.292-5.071c.818,1.421,2.273,2.351,3.266,3.65.38.487.691,1.037,1.032,1.562.54.837,1.158,1.625,1.772,2.433l3.149,4.015a6.024,6.024,0,0,0,1.46,1.46,5.572,5.572,0,0,0,2.526.676,33.355,33.355,0,0,0,3.558.127,6.132,6.132,0,0,0,2.652-.487,2.4,2.4,0,0,0,1.436-2.136,3.134,3.134,0,0,0-.453-1.329A10.846,10.846,0,0,0,467.841,623.651Z" transform="translate(-250.891 -393.458)" fill="#2f2e41"/>
    <ellipse id="Ellipse_74" data-name="Ellipse 74" cx="1.066" cy="1.071" rx="1.066" ry="1.071" transform="translate(218.887 208.769)" fill="#e8e8f0"/>
    <path id="Path_416" data-name="Path 416" d="M501.93,589a2.049,2.049,0,0,1,.117,1.538,6.239,6.239,0,0,1-.686,1.416,6.742,6.742,0,0,1-.891,1.265,9.168,9.168,0,0,0,4.682-1.343,6.8,6.8,0,0,0,2.954-2.575,1.363,1.363,0,0,1-1.09-.2,3.893,3.893,0,0,1-.832-.774l-.822-.925a3.7,3.7,0,0,1-.487-.667,1.84,1.84,0,0,1-.219-1.076,6.26,6.26,0,0,1-1.09.905c-.589.385-1.236.662-1.83,1.042-.2.136-.672.35-.55.623S501.765,588.711,501.93,589Z" transform="translate(-282.211 -379.966)" fill="#fbbebe"/>
    <path id="Path_417" data-name="Path 417" d="M501.93,589a2.049,2.049,0,0,1,.117,1.538,6.239,6.239,0,0,1-.686,1.416,6.742,6.742,0,0,1-.891,1.265,9.168,9.168,0,0,0,4.682-1.343,6.8,6.8,0,0,0,2.954-2.575,1.363,1.363,0,0,1-1.09-.2,3.893,3.893,0,0,1-.832-.774l-.822-.925a3.7,3.7,0,0,1-.487-.667,1.84,1.84,0,0,1-.219-1.076,6.26,6.26,0,0,1-1.09.905c-.589.385-1.236.662-1.83,1.042-.2.136-.672.35-.55.623S501.765,588.711,501.93,589Z" transform="translate(-282.211 -379.966)" opacity="0.1"/>
    <path id="Path_418" data-name="Path 418" d="M496.678,592.678a1.387,1.387,0,0,0,0,1.606c.049.058.224.423.3.428a.268.268,0,0,0,.185-.1,12.214,12.214,0,0,0,1.042-1.241,2.316,2.316,0,0,1,1.324-.866,2.862,2.862,0,0,1,1.825.569,1.732,1.732,0,0,1,.628.487,1.7,1.7,0,0,1,.2.7,33.53,33.53,0,0,1,.185,4.424,17.431,17.431,0,0,1-.209,3.188c-.107.54-.263,1.071-.336,1.621a10.336,10.336,0,0,0-.068,1.46v2.034a5.353,5.353,0,0,0,.078,1.115c.1.443.307.857.448,1.29a8.437,8.437,0,0,1,.3,1.523l.277,2.1a2.658,2.658,0,0,1-.248,1.947c-.18.239-.419.433-.6.672-.686.9-.487,2.175-.754,3.27a4.078,4.078,0,0,1-1.333,2.044,2.2,2.2,0,0,1-1.757.628,2.407,2.407,0,0,1-1.6-1.893,7.57,7.57,0,0,0-.823-2.467,6.547,6.547,0,0,0-1.625-1.358,2.808,2.808,0,0,1-1.27-1.65c-.054-.307,0-.623-.054-.934a2.2,2.2,0,0,0-1.358-1.786c-.438-.17-.973-.234-1.226-.633a2.954,2.954,0,0,0,1.28-1.718,8.825,8.825,0,0,0,.311-2.171l.146-2.433a8.128,8.128,0,0,1,.579-3.159c.214-.438.487-.852.706-1.285a13.945,13.945,0,0,0,.754-1.883c.35-1,.7-2.005,1.012-3.017a5.684,5.684,0,0,1,.555-1.407C495.806,593.325,496.186,592.775,496.678,592.678Z" transform="translate(-276.939 -383.48)" fill="#e8e8f0"/>
    <path id="Path_419" data-name="Path 419" d="M492.287,608.1h.647l.136-.973a2.03,2.03,0,0,1,.136-.569,3.407,3.407,0,0,1,.375-.545,7.115,7.115,0,0,0,.745-3.188,16.218,16.218,0,0,1,1.421-4.166l1.256-2.8a3.864,3.864,0,0,0,.273-.715,4.291,4.291,0,0,0,.078-.827c0-.433.136-2.01.151-2.433,0-.161-.355-.073-.428-.214-.156-.311-.37.531-.667.715a1.635,1.635,0,0,0-.579.847c-.273.7-.438,1.46-.691,2.156a4.4,4.4,0,0,1-1.173,1.908c-.258.224-.555.4-.8.647a4.368,4.368,0,0,0-.881,3.09C492.267,601.7,492.141,608.1,492.287,608.1Z" transform="translate(-277.975 -383.015)" fill="#2f2e41"/>
    <path id="Path_420" data-name="Path 420" d="M505.273,590.4a2.21,2.21,0,0,0-1.153,1.582,8,8,0,0,1-.584,1.947c-.788,1.372-2.8,1.771-3.358,3.256a5.985,5.985,0,0,0-.224,1.533c-.1,1.066-.448,2.093-.555,3.154a14.05,14.05,0,0,0,.058,2.477l.706,8.381a11.193,11.193,0,0,1-.209,3.689,3.553,3.553,0,0,0,2.112-.35c.657-.3,1.26-.715,1.9-1.066a19.556,19.556,0,0,0,3.256-1.83,1.991,1.991,0,0,0,.438-.487,4.208,4.208,0,0,0,.292-1.1,5.934,5.934,0,0,1,.316-.866,25.54,25.54,0,0,0,.915-2.589,14.878,14.878,0,0,0,.419-1.771c.078-.487.122-.973.161-1.46a8.564,8.564,0,0,1,.448-2.214,17.838,17.838,0,0,0,1.027-5.315,2.778,2.778,0,0,0-.054-.779,4.169,4.169,0,0,0-.428-.891c-.292-.55-.487-1.153-.74-1.713a8.425,8.425,0,0,0-2.876-3.022A2.19,2.19,0,0,0,505.273,590.4Z" transform="translate(-281.646 -382.366)" fill="#2f2e41"/>
    <path id="Path_421" data-name="Path 421" d="M473.253,615.589a5.077,5.077,0,0,1-1.338-1.017c-.175-.2-.321-.433-.487-.638a3.314,3.314,0,0,0-1.684-.973,8.226,8.226,0,0,0-1.947-.19,3.533,3.533,0,0,0-1.3.156,1.324,1.324,0,0,0-.861.925,1.533,1.533,0,0,0,.657,1.363,3.1,3.1,0,0,0,1.309.633,10.474,10.474,0,0,0,1.183.141c2.326.243,4.4,1.509,6.444,2.662q2.686,1.528,5.48,2.842a11.391,11.391,0,0,0,.092-1.679c0-.419-.034-1.061-.428-1.309a8.59,8.59,0,0,0-1.742-.521,27.419,27.419,0,0,1-3.509-1.421A17.467,17.467,0,0,1,473.253,615.589Z" transform="translate(-264.328 -393.879)" fill="#fbbebe"/>
    <ellipse id="Ellipse_75" data-name="Ellipse 75" cx="4.146" cy="4.171" rx="4.146" ry="4.171" transform="translate(214.954 200.219)" fill="#fbbebe"/>
    <path id="Path_422" data-name="Path 422" d="M503.146,599.622a6.648,6.648,0,0,0-.8,1.5c-.487,1.051-1.314,1.947-1.718,3.061s-.409,2.545-1.241,3.455a1.211,1.211,0,0,0-.365.526,2.513,2.513,0,0,1-.039.38c-.122.331-.662.346-.764.686-.029.1,0,.2-.049.3-.083.219-.375.253-.565.384-.4.273-.321.905-.608,1.3a1.1,1.1,0,0,1-1.037.365,3.651,3.651,0,0,1-1.076-.4,1.037,1.037,0,0,0-.389-.122.8.8,0,0,0-.448.156,2.76,2.76,0,0,0-1.119,2.36,7.709,7.709,0,0,0,.642,2.643,1.06,1.06,0,0,0,.209.394.93.93,0,0,0,1.032.078,4.87,4.87,0,0,1,1.007-.453c.642-.117,1.27.326,1.922.287a2.672,2.672,0,0,0,1.295-.569,7.155,7.155,0,0,0,1.742-1.46c.282-.375.487-.8.74-1.2a15.344,15.344,0,0,1,1.046-1.4l2.394-2.92a6.729,6.729,0,0,0,.642-.886,6.246,6.246,0,0,0,.487-1.338,10.251,10.251,0,0,0,.487-2.38,9.146,9.146,0,0,0-.175-2,7.051,7.051,0,0,0-.487-1.9C505.39,599.379,504.125,598.484,503.146,599.622Z" transform="translate(-278.337 -386.862)" fill="#2f2e41"/>
    <path id="Path_423" data-name="Path 423" d="M509.03,574.727a4.672,4.672,0,0,0-1.917-3.8,5.553,5.553,0,0,0-4.716-5.407,5.387,5.387,0,0,0-10.614.287c-1.723-.389-3.3.117-3.587,1.178s.93,2.433,2.745,2.92a5.113,5.113,0,0,0,1.762.175,5.393,5.393,0,0,0,3.708,2.312,5.533,5.533,0,0,0,4.049,4.176,4.648,4.648,0,0,0,1.251,1.728v.4a3.509,3.509,0,1,0,7.018,0,3.747,3.747,0,0,0-.336-1.552A4.691,4.691,0,0,0,509.03,574.727Z" transform="translate(-275.889 -367.408)" fill="#f86d70"/>
    <path id="Path_424" data-name="Path 424" d="M489.359,567.21c.287-1.061,1.864-1.567,3.587-1.178a5.48,5.48,0,0,1,5.353-4.614h.355a5.275,5.275,0,0,0-1.528-.229,5.48,5.48,0,0,0-5.353,4.614c-1.723-.389-3.3.117-3.587,1.178s.93,2.433,2.745,2.92a5.353,5.353,0,0,0,1.042.18C490.235,569.561,489.072,568.3,489.359,567.21Z" transform="translate(-275.884 -367.405)" opacity="0.1"/>
    <path id="Path_425" data-name="Path 425" d="M507.77,588.473a3.666,3.666,0,0,1,0-.4,4.545,4.545,0,0,1-1.251-1.728,5.519,5.519,0,0,1-4.049-4.181,5.378,5.378,0,0,1-3.713-2.307,4.674,4.674,0,0,1-1.037-.029,5.407,5.407,0,0,0,3.577,2.127,5.533,5.533,0,0,0,4.049,4.176,4.648,4.648,0,0,0,1.251,1.728v.4a3.572,3.572,0,0,0,3.489,3.631A3.63,3.63,0,0,1,507.77,588.473Z" transform="translate(-280.8 -376.974)" opacity="0.1"/>
    <ellipse id="Ellipse_76" data-name="Ellipse 76" cx="0.638" cy="0.852" rx="0.638" ry="0.852" transform="translate(219.465 204.949) rotate(-37.22)" fill="#fbbebe"/>
  </g>
</svg>
