<svg xmlns="http://www.w3.org/2000/svg" width="498.098" height="646.464" viewBox="0 0 498.098 646.464">
  <g id="Group_134" data-name="Group 134" transform="translate(-0.001 -0.001)">
    <path id="Path_446" data-name="Path 446" d="M497.856,369.39,358.823,339.4l-1.807-.389a5,5,0,0,0-5.546,7.106l55.2,112.1a5.018,5.018,0,0,0,3.727,2.729,4.968,4.968,0,0,0,4.379-1.5l38.342-40.428a2.91,2.91,0,0,1,2.139-.934,3.01,3.01,0,0,1,2.68,1.558l7.854,14.526a4.886,4.886,0,0,0,5.471,2.507l.039-.009a4.893,4.893,0,0,0,3.877-4.647l1.573-33.532a3.058,3.058,0,0,1,.307-1.2,3.254,3.254,0,0,1,.788-.973l22.12-18.157a5.006,5.006,0,0,0-2.112-8.76Zm.849,7.217-22.12,18.158a4.932,4.932,0,0,0-.779.787L358.572,342.383a1.744,1.744,0,0,0-.322-.113,2,2,0,0,0-1.669,3.565l96.393,70.807a4.8,4.8,0,0,0-1.305,1l-38.341,40.428a3,3,0,0,1-4.864-.737l-55.2-112.1a3.008,3.008,0,0,1,3.328-4.26l1.85.4,138.989,29.981a3.007,3.007,0,0,1,1.277,5.258Z" transform="translate(-350.951 -126.768)" fill="#6c63ff"/>
    <path id="Path_447" data-name="Path 447" d="M527.492,769.293c-12.471-3.368-27.649-17.378-24.4-36.634,1.612-9.55,7.8-15.732,14.21-19.729,8.871-5.529,18.974-7.613,28.71-8.139,11.23-.607,22.447.924,33.593,2.543,11,1.6,22.008,3.029,33.06,3.9A426.187,426.187,0,0,0,741.7,701.655q15.65-3.612,31.113-8.474A213.752,213.752,0,0,0,801.394,682.5c12.256-5.884,32.187-17.334,30.562-38.539-.862-11.243-7.483-20.224-14.162-26.48-8.075-7.565-17.42-12.542-26.572-17.375-42.57-22.482-85.224-44.7-127.836-67.042-9.945-5.215-19.956-10.291-29.608-16.4-9.036-5.722-18.031-12.369-25.3-21.559-6.352-8.027-12.027-18.8-11.827-30.85.166-9.99,4.712-18.468,10.28-24.8,13.785-15.686,33.286-22.046,50.91-25.378,21.9-4.139,44.11-4.118,66.021-8.114,17.692-3.227,36.6-9.457,50.984-24.056a45.6,45.6,0,0,0,12.429-21.715,42.678,42.678,0,0,0-2.556-25.768c-3.9-9.31-10.115-16.726-16.652-22.8a99.912,99.912,0,0,0-25.256-16.873c-19.433-9.26-39.868-14.082-59.773-21.188-9.762-3.485-19.623-7.307-28.688-13.293-7.68-5.072-16.046-11.908-20.318-22.074-8.816-20.975,12.215-33.475,24.132-38.21a155.154,155.154,0,0,1,24.941-7.14c1.8-.386,1.034-3.973-.754-3.589a149.218,149.218,0,0,0-26.191,7.648c-7.186,2.986-14.6,6.909-20.245,13.661a28.438,28.438,0,0,0-6.426,22.235c1.5,10.064,7.994,17.818,14.1,23.435,8.072,7.428,17.275,12.278,26.606,16.232,9.827,4.164,19.863,7.41,29.9,10.593,20.047,6.361,40.993,12.03,59.09,25.566,12.659,9.469,29.857,27.223,25.646,49.229-1.869,9.769-7.546,17.406-13.671,23.024a79.6,79.6,0,0,1-24.484,14.887c-40.1,16.139-84.238,4.6-123.308,26.518-13.284,7.453-29.419,21.023-29.549,42.374-.067,11.091,4.378,21.264,9.875,29.3,6.583,9.63,15.108,16.751,23.781,22.7a276.821,276.821,0,0,0,28.4,16.442q16.031,8.42,32.069,16.818l64.884,34.026,32.239,16.906c9.839,5.16,19.931,10.109,28.877,17.683,7.325,6.2,15.979,16.376,15.232,29.01-.594,10.033-7.259,17.274-13.349,22.115-7.887,6.268-16.746,10.323-25.561,13.692-10.167,3.886-20.5,7.11-30.856,10.008a416.59,416.59,0,0,1-64.737,12.671,425.694,425.694,0,0,1-65.765,2.451q-16.638-.669-33.223-2.661c-11.4-1.373-22.746-3.488-34.173-4.426-10.336-.849-20.771-.652-30.95,2.076-8.5,2.278-17.478,6.337-23.93,14.259a31.544,31.544,0,0,0-6.7,21.3,38.257,38.257,0,0,0,7.843,21.112,35.489,35.489,0,0,0,18.972,12.736c1.782.481,2.544-3.105.754-3.589Z" transform="translate(-350.951 -126.768)" fill="#e6e6e6"/>
    <rect id="Rectangle_197" data-name="Rectangle 197" width="324.033" height="2.241" transform="translate(174.066 644.224)" fill="#3f3d56"/>
    <circle id="Ellipse_85" data-name="Ellipse 85" cx="21.168" cy="21.168" r="21.168" transform="translate(450.969 496.334)" fill="#e6e6e6"/>
    <circle id="Ellipse_86" data-name="Ellipse 86" cx="21.168" cy="21.168" r="21.168" transform="translate(412.35 197.98)" fill="#e6e6e6"/>
    <path id="Path_448" data-name="Path 448" d="M736.61,127.653,677.833,153.2a10.694,10.694,0,0,0-5.538,14.055l18.251,41.984a10.694,10.694,0,0,0,14.055,5.538l58.777-25.552a10.694,10.694,0,0,0,5.537-14.055L750.665,133.19a10.694,10.694,0,0,0-14.055-5.537Zm2.433,5.6a4.558,4.558,0,0,1,1.1-.316L720.27,170.427l-40.815-11.169a4.577,4.577,0,0,1,.811-.455Zm21.9,50.38-58.777,25.552a4.583,4.583,0,0,1-6.023-2.373L678.057,165.2l42.96,11.756a3.052,3.052,0,0,0,3.5-1.514l20.8-39.243,18,41.405a4.583,4.583,0,0,1-2.373,6.023Z" transform="translate(-350.951 -126.768)" fill="#e6e6e6"/>
    <circle id="Ellipse_87" data-name="Ellipse 87" cx="53.519" cy="53.519" r="53.519" transform="translate(266.214 258.019)" fill="#6c63ff"/>
    <path id="Path_449" data-name="Path 449" d="M662.251,771.651h-14.76a6.507,6.507,0,0,1-6.5-6.5V642.137a6.507,6.507,0,0,1,6.5-6.5h14.76a6.507,6.507,0,0,1,6.5,6.5V765.151a6.508,6.508,0,0,1-6.5,6.5Z" transform="translate(-350.951 -126.768)" fill="#2f2e41"/>
    <path id="Path_450" data-name="Path 450" d="M691.443,771.651H676.684a6.507,6.507,0,0,1-6.5-6.5V642.137a6.508,6.508,0,0,1,6.5-6.5h14.76a6.507,6.507,0,0,1,6.5,6.5V765.151A6.508,6.508,0,0,1,691.443,771.651Z" transform="translate(-350.951 -126.768)" fill="#2f2e41"/>
    <path id="Path_451" data-name="Path 451" d="M752.606,629.274a6.542,6.542,0,0,1-1.913-.288,6.46,6.46,0,0,1-3.836-3.168L689.192,517.157a6.5,6.5,0,0,1,2.694-8.788l13.037-6.919a6.5,6.5,0,0,1,8.789,2.694L771.377,612.8a6.5,6.5,0,0,1-2.694,8.788l-13.037,6.919a6.46,6.46,0,0,1-3.04.762Z" transform="translate(-350.951 -126.768)" fill="#6c63ff"/>
    <path id="Path_452" data-name="Path 452" d="M632.563,529.117a6.46,6.46,0,0,1-2.283-.417h0L515.2,485.226a6.494,6.494,0,0,1-3.775-8.377l5.206-13.808a6.519,6.519,0,0,1,8.386-3.777l115.075,43.464a6.518,6.518,0,0,1,3.786,8.375l-5.216,13.81A6.529,6.529,0,0,1,632.563,529.117Z" transform="translate(-350.951 -126.768)" fill="#6c63ff"/>
    <rect id="Rectangle_198" data-name="Rectangle 198" width="79.062" height="154.476" rx="6" transform="translate(279.594 374.355)" fill="#2f2e41"/>
    <path id="Path_453" data-name="Path 453" d="M710.215,385.894c3.144,6.9,6.155,15.241,2.77,22.623a12.724,12.724,0,0,1-6.516,6.708c-3.489,1.392-7.291.6-10.524-1.085-6.806-3.542-11.193-10.124-17.27-14.633a20.534,20.534,0,0,0-9.5-4.1c-3.993-.52-7.957.421-11.863,1.148-4.154.773-8.447,1.181-12.291-.925a18.044,18.044,0,0,1-7.541-8.615c-.792-1.757-3.378-.234-2.59,1.514,3.269,7.257,10.029,12.2,18.152,11.63,4.3-.3,8.449-1.69,12.755-1.889a17.043,17.043,0,0,1,10.9,3.486c6.672,4.756,11.2,12.06,18.855,15.514,3.611,1.63,7.747,2.309,11.555.905a15.147,15.147,0,0,0,7.737-6.738c5.023-8.649,1.8-18.648-2.037-27.062-.8-1.754-3.386-.231-2.59,1.514Z" transform="translate(-350.951 -126.768)" fill="#2f2e41"/>
    <path id="Path_454" data-name="Path 454" d="M676.6,456.175c-3.306-.093-7.421-.208-10.59-2.523a8.134,8.134,0,0,1-3.2-6.072,5.47,5.47,0,0,1,1.86-4.493c1.654-1.4,4.071-1.728,6.679-.961l-2.7-19.726,1.982-.271,3.173,23.189-1.654-.758c-1.917-.88-4.552-1.329-6.188.055a3.515,3.515,0,0,0-1.152,2.895,6.147,6.147,0,0,0,2.381,4.528c2.467,1.8,5.746,2.035,9.467,2.139Z" transform="translate(-350.951 -126.768)" fill="#2f2e41"/>
    <rect id="Rectangle_199" data-name="Rectangle 199" width="10.771" height="2" transform="translate(297.128 297.333)" fill="#2f2e41"/>
    <rect id="Rectangle_200" data-name="Rectangle 200" width="10.771" height="2" transform="translate(331.128 297.333)" fill="#2f2e41"/>
    <path id="Path_455" data-name="Path 455" d="M630.456,528.232l-47.294-14.421A6,6,0,0,1,579.1,506.6l5.521-21.754a6,6,0,0,1,8.391-3.943l46.908,22.3a6.011,6.011,0,0,1,3.5,7.73l-5.217,13.81a6.011,6.011,0,0,1-7.74,3.5Z" transform="translate(-350.951 -126.768)" fill="#2f2e41"/>
    <path id="Path_456" data-name="Path 456" d="M690.042,515.926l20.283,45.092A6,6,0,0,0,718,564.139l20.882-8.226a6,6,0,0,0,2.851-8.823l-28.047-43.714a6.011,6.011,0,0,0-8.11-2.49l-13.04,6.92a6.011,6.011,0,0,0-2.49,8.12Z" transform="translate(-350.951 -126.768)" fill="#2f2e41"/>
    <path id="Path_457" data-name="Path 457" d="M497.856,369.39,358.823,339.4l-1.807-.389a5,5,0,0,0-5.546,7.106l55.2,112.1a5.018,5.018,0,0,0,3.727,2.729,4.968,4.968,0,0,0,4.379-1.5l38.342-40.428a2.91,2.91,0,0,1,2.139-.934,3.01,3.01,0,0,1,2.68,1.558l7.854,14.526a4.886,4.886,0,0,0,5.471,2.507l.039-.009a4.893,4.893,0,0,0,3.877-4.647l1.573-33.532a3.058,3.058,0,0,1,.307-1.2,3.254,3.254,0,0,1,.788-.973l22.12-18.157a5.006,5.006,0,0,0-2.112-8.76Zm.849,7.217-22.12,18.158a4.932,4.932,0,0,0-.779.787,4.65,4.65,0,0,0-.532.835,4.8,4.8,0,0,0-.363.951l0,.01a4.734,4.734,0,0,0-.157,1.049l-1.573,33.532a2.9,2.9,0,0,1-2.323,2.788l-.02,0a2.911,2.911,0,0,1-3.291-1.494L459.7,418.689a4.989,4.989,0,0,0-4.1-2.606l-.01,0c-.114-.005-.228-.011-.34-.007a4.865,4.865,0,0,0-2.272.564,4.8,4.8,0,0,0-1.306,1l-38.341,40.428a3,3,0,0,1-4.864-.737l-55.2-112.1a3.008,3.008,0,0,1,3.328-4.26l1.85.4,138.989,29.981a3.007,3.007,0,0,1,1.277,5.258Z" transform="translate(-350.951 -126.768)" fill="#3f3d56"/>
    <path id="Path_458" data-name="Path 458" d="M476.25,395.75l-.826,1.822-.51-.225,0-.01L357.769,344.22l97.816,71.865.01,0,.259.2-1.179,1.613-1.7-1.252L356.58,345.835a2,2,0,0,1,1.669-3.565,1.744,1.744,0,0,1,.322.113l117.235,53.168Z" transform="translate(-350.951 -126.768)" fill="#3f3d56"/>
  </g>
</svg>
