<svg xmlns="http://www.w3.org/2000/svg" xmlns:xlink="http://www.w3.org/1999/xlink" width="506.411" height="298.154" viewBox="0 0 506.411 298.154">
  <defs>
    <style>
      .cls-1, .cls-3 {
        fill: #6c63ff;
      }

      .cls-1, .cls-5 {
        opacity: 0.2;
      }

      .cls-2, .cls-5 {
        fill: #f5f5f5;
      }

      .cls-4 {
        fill: none;
        stroke: #535461;
        stroke-miterlimit: 10;
        stroke-width: 2px;
      }

      .cls-6 {
        fill: url(#linear-gradient);
      }

      .cls-7 {
        fill: #535461;
      }

      .cls-8 {
        fill: #fff;
      }

      .cls-9 {
        fill: url(#linear-gradient-3);
      }

      .cls-10 {
        fill: url(#linear-gradient-4);
      }

      .cls-11 {
        fill: #f7c4a7;
      }

      .cls-12 {
        opacity: 0.05;
      }

      .cls-13 {
        fill: #575988;
      }

      .cls-14 {
        opacity: 0.1;
      }

      .cls-15 {
        fill: #f3b5b7;
      }

      .cls-16 {
        fill: #dddbe2;
      }

      .cls-17 {
        fill: #fc6681;
      }
    </style>
    <linearGradient id="linear-gradient" x1="0.5" y1="1" x2="0.5" gradientUnits="objectBoundingBox">
      <stop offset="0" stop-color="gray" stop-opacity="0.251"/>
      <stop offset="0.54" stop-color="gray" stop-opacity="0.122"/>
      <stop offset="1" stop-color="gray" stop-opacity="0.102"/>
    </linearGradient>
    <linearGradient id="linear-gradient-3" x1="0.5" y1="1" x2="0.5" y2="0" xlink:href="#linear-gradient"/>
    <linearGradient id="linear-gradient-4" x1="0.5" y1="1" x2="0.5" y2="0" xlink:href="#linear-gradient"/>
  </defs>
  <g id="Group_15" data-name="Group 15" transform="translate(0.001)">
    <path id="Path_128" data-name="Path 128" class="cls-1" d="M156.006,144.034a36.629,36.629,0,0,0-11.673,1.13,19.362,19.362,0,0,0-13.271,21.852c1.55,8.7,7.924,16.286,14.537,23.216s13.78,13.782,17.407,22.066c1.809,4.135,2.654,8.766.816,12.9-2.835,6.365-11.384,9.92-19.592,10.661s-16.449-.7-24.685-1.183a31.141,31.141,0,0,0-10.265.706,27.191,27.191,0,0,0-9.287,5.24c-10.681,8.464-19.23,20.011-17.847,32.143,1.564,13.748,15.515,24.614,30.8,30.443,5.059,1.948,10.412,3.5,14.865,6.253,11.732,7.271,14.366,20.907,13.2,32.941s-5.147,24.083-2.933,36.01c2.605,13.875,14.136,26.411,29.691,32.264,13.858,5.216,31.2,4.87,43.5-2.489,6-3.594,10.534-8.586,14.479-13.748a110.813,110.813,0,0,0,14.4-24.838c1.716-4.135,3.329-8.581,7.332-11.455a25.248,25.248,0,0,1,8.745-3.526c9.444-2.318,19.391-2.951,28.923-5.016s19.122-5.927,24.3-12.794c7.332-9.74,3.911-22.217,3.945-33.672.059-26.133,19.117-49.524,26.152-75,2.3-8.323,3.153-17.532-1.98-24.959-3.485-5.041-9.366-8.679-15.544-11.489-13.594-6.18-29.045-8.932-44.242-11.61-21.122-3.721-46.77-4.2-63.14-16.242C198.923,152.279,177.43,144.034,156.006,144.034Z" transform="translate(-82 -144)"/>
    <ellipse id="Ellipse_17" data-name="Ellipse 17" class="cls-2" cx="227.298" cy="60.867" rx="227.298" ry="60.867" transform="translate(51.814 176.42)"/>
    <path id="Path_129" data-name="Path 129" class="cls-3" d="M1013.478,330.86a41.82,41.82,0,0,0-7.625,43.5c9.889,25.99-16.952,69.211-16.952,69.211s.288-.044.821-.137c35.972-6.355,53.848-47.493,33.845-78.059C1016.132,354.02,1010.026,340.7,1013.478,330.86Z" transform="translate(-545.596 -240.01)"/>
    <path id="Path_130" data-name="Path 130" class="cls-4" d="M1013.478,330.86s-9.889,21.469,0,38.983,1.7,66.669-24.578,73.733" transform="translate(-545.596 -240.01)"/>
    <path id="Path_131" data-name="Path 131" class="cls-3" d="M1040.006,475.561s-19.988-3.182-21.806,14.728-38.43,20.393-38.43,20.393l.684.455c30.228,19.841,59.146,12.641,54.747-13.687C1033.6,487.635,1033.735,477.8,1040.006,475.561Z" transform="translate(-540.929 -314.021)"/>
    <path id="Path_132" data-name="Path 132" class="cls-5" d="M1040.006,475.561s-19.988-3.182-21.806,14.728-38.43,20.393-38.43,20.393l.684.455c30.228,19.841,59.146,12.641,54.747-13.687C1033.6,487.635,1033.735,477.8,1040.006,475.561Z" transform="translate(-540.929 -314.021)"/>
    <path id="Path_133" data-name="Path 133" class="cls-4" d="M1040.006,475.79s-15.515,3.422-14.239,17.509-23.038,31.015-46,17.6" transform="translate(-540.929 -314.233)"/>
    <path id="Path_134" data-name="Path 134" class="cls-6" d="M664.684,398.479h-31.4a10.47,10.47,0,0,0,1.095-4.678V250.794a10.514,10.514,0,0,0-10.514-10.514H380.757a10.514,10.514,0,0,0-10.519,10.514V393.806a10.47,10.47,0,0,0,1.095,4.678H338.821a2.781,2.781,0,0,0-2.781,2.781v2.244a15.554,15.554,0,0,0,15.554,15.539H651.911a15.554,15.554,0,0,0,15.554-15.554v-2.244a2.781,2.781,0,0,0-2.781-2.772Zm-193.516,8.9-2.679-3.055h66.831l-2.982,3.06Z" transform="translate(-211.863 -193.608)"/>
    <rect id="Rectangle_42" data-name="Rectangle 42" class="cls-7" width="258.152" height="160.326" rx="23.26" transform="translate(161.361 48.733)"/>
    <rect id="Rectangle_43" data-name="Rectangle 43" class="cls-8" width="246.738" height="130.977" transform="translate(166.792 72.026)"/>
    <circle id="Ellipse_18" data-name="Ellipse 18" class="cls-8" cx="2.175" cy="2.175" r="2.175" transform="translate(287.989 58.668)"/>
    <path id="Path_135" data-name="Path 135" class="cls-7" d="M544.055,560.73l-8.481,8.7H475.793l-7.66-8.7H346.448a2.718,2.718,0,0,0-2.718,2.718v2.19a15.2,15.2,0,0,0,15.2,15.2H652.44a15.2,15.2,0,0,0,15.2-15.2v-2.19a2.718,2.718,0,0,0-2.718-2.718Z" transform="translate(-215.794 -357.757)"/>
    <path id="Path_136" data-name="Path 136" class="cls-6" d="M461.579,301.65H357.5a9.537,9.537,0,0,0-9.547,9.522v144.2a9.537,9.537,0,0,0,9.547,9.522H461.579a9.537,9.537,0,0,0,9.547-9.522v-144.2a9.537,9.537,0,0,0-9.547-9.522Z" transform="translate(-217.951 -225.156)"/>
    <rect id="Rectangle_44" data-name="Rectangle 44" class="cls-7" width="120.248" height="159.842" rx="20" transform="translate(131.461 78.449)"/>
    <rect id="Rectangle_45" data-name="Rectangle 45" class="cls-8" width="108.028" height="129.604" transform="translate(137.571 93.58)"/>
    <circle id="Ellipse_19" data-name="Ellipse 19" class="cls-8" cx="1.466" cy="1.466" r="1.466" transform="translate(189.63 84.596)"/>
    <circle id="Ellipse_20" data-name="Ellipse 20" class="cls-8" cx="4.399" cy="4.399" r="4.399" transform="translate(186.697 225.858)"/>
    <path id="Path_137" data-name="Path 137" class="cls-9" d="M356.686,401.65H303.244a5.284,5.284,0,0,0-5.294,5.274V523.956a5.284,5.284,0,0,0,5.294,5.274h53.442a5.284,5.284,0,0,0,5.294-5.274V406.924a5.284,5.284,0,0,0-5.294-5.274Z" transform="translate(-192.391 -276.441)"/>
    <rect id="Rectangle_46" data-name="Rectangle 46" class="cls-7" width="63.057" height="126.114" rx="11" transform="translate(106.042 126.187)"/>
    <rect id="Rectangle_47" data-name="Rectangle 47" class="cls-8" width="53.769" height="102.651" transform="translate(110.686 137.946)"/>
    <circle id="Ellipse_21" data-name="Ellipse 21" class="cls-8" cx="0.489" cy="0.489" r="0.489" transform="translate(130.728 131.854)"/>
    <rect id="Rectangle_48" data-name="Rectangle 48" class="cls-8" width="10.754" height="0.978" rx="0.489" transform="translate(133.66 131.854)"/>
    <circle id="Ellipse_22" data-name="Ellipse 22" class="cls-8" cx="3.422" cy="3.422" r="3.422" transform="translate(133.905 241.769)"/>
    <path id="Path_138" data-name="Path 138" class="cls-4" d="M283.062,606.8s-6.482-22,1.217-38.2A34.75,34.75,0,0,0,287.1,546.8a58.448,58.448,0,0,0-3.084-10.231" transform="translate(-183.477 -345.677)"/>
    <path id="Path_139" data-name="Path 139" class="cls-3" d="M287.226,510.518c0,2.7-4.888,10.514-4.888,10.514s-4.888-7.821-4.888-10.514a4.888,4.888,0,1,1,9.776,0Z" transform="translate(-181.912 -329.484)"/>
    <path id="Path_140" data-name="Path 140" class="cls-3" d="M303.735,538.107c-1.466,2.263-9.815,6.174-9.815,6.174s.151-9.219,1.618-11.482a4.888,4.888,0,1,1,8.2,5.309Z" transform="translate(-190.331 -342.173)"/>
    <path id="Path_141" data-name="Path 141" class="cls-3" d="M301.12,588.831c-2.41,1.212-11.59.376-11.59.376s4.785-7.88,7.19-9.092a4.888,4.888,0,0,1,4.4,8.72Z" transform="translate(-188.087 -367.45)"/>
    <path id="Path_142" data-name="Path 142" class="cls-3" d="M291.92,628.72c-2.17,1.6-11.36,2.327-11.36,2.327s3.383-8.574,5.553-10.177a4.888,4.888,0,0,1,5.807,7.85Z" transform="translate(-183.502 -388.157)"/>
    <path id="Path_143" data-name="Path 143" class="cls-3" d="M271.183,550.953c1.955,1.877,10.945,3.827,10.945,3.827s-2.2-8.95-4.14-10.827a4.888,4.888,0,1,0-6.8,7Z" transform="translate(-177.865 -348.34)"/>
    <path id="Path_144" data-name="Path 144" class="cls-3" d="M259.443,596.325c2.41,1.212,11.59.376,11.59.376s-4.785-7.88-7.19-9.092a4.888,4.888,0,1,0-4.4,8.72Z" transform="translate(-171.237 -371.198)"/>
    <path id="Path_145" data-name="Path 145" class="cls-3" d="M256.574,643.32c2.17,1.6,11.36,2.327,11.36,2.327s-3.383-8.574-5.553-10.177a4.888,4.888,0,0,0-5.807,7.85Z" transform="translate(-170.323 -395.813)"/>
    <path id="Path_146" data-name="Path 146" class="cls-10" d="M844.583,459.608c-5.411-6.565-11.966-14.107-11.047-22.842.743-7.073-1.036-13.613-.684-20.711.489-10.084-1.535-17.979-8.8-24.441-4.243-3.779-11.336-6.746-13.447-5.988-4.184,1.5-8.75.924-13.056,1.955-3.27.763-5.445,1.955-6.795,3.422-2.713,2.444-2.757,5.866-1.52,9.507a16.057,16.057,0,0,0,7.933,22.524c-3.016,1.261-5.621,4.165-6.638,10.06a68.773,68.773,0,0,1-3.192,11.883,19.319,19.319,0,0,1-1.955.787c.147.059.3.1.445.152-.318.122-.631.244-.978.352a10.362,10.362,0,0,0,1.784.518,68.049,68.049,0,0,1-8.8,16s-9.116,2.014-12.66-1.51c0,0,.577.675,1.359,1.686-3.466-1.437-9.156-3.783-14.019-5.714-3.529-1.4-4.434,0-4.4,1.955a6.511,6.511,0,0,0-2.444.821,23.792,23.792,0,0,0-3.27-1.76c-2.024-.489-8.608-4.028-15.192,8.051-3.832,7.024-13.657,19.846-21.21,29.329-14.689,6.755-33.811,15.31-40.919,17.46h-4.556c-.6-.978-1.012-1.594-1.012-1.594l-.352.235-.152-.235s-8.945,6.193-18.027,6.242a17.113,17.113,0,0,1-3.832-.489,36.894,36.894,0,0,0-9.219-1.466c-2.488-.044-3.911.547-4.771,1.662h0a4.368,4.368,0,0,0-.318.459h0a5.4,5.4,0,0,0-.264.489h0c-.078.176-.156.362-.225.552a1.134,1.134,0,0,0,.284.953,5.089,5.089,0,0,0,.4.489l.254.274a40.384,40.384,0,0,0,5.817,4.5c.748.489,1.54,1.026,2.366,1.559l1.569.978,1.4.875.562.347.626.381,1.119.679.665.4,1.256.748,1.017.6c2.659,1.569,5.308,3.089,7.7,4.438l1.672,1,.161.088,1.075.6,1.857,1.031,1.276.7.6.327.64.352.127.068,1.114.606a1.613,1.613,0,0,0,1.3-.352c.323-1.369,1.11-4.3,1.955-4.526s4.507-6.623,5.538-10.905h9.884a43.549,43.549,0,0,0,5.788-.89c-2.552,1.818-5.079,2.962-7.044,2.473-4.155-1.031-8.09,1.5-8.486,4a.642.642,0,0,1-.049.156c-.015.054-.024.1-.034.152s-.029.122-.039.186a.83.83,0,0,0,0,.156v.675a.984.984,0,0,0,.049.2c.02.068,0,.088.034.127a2.441,2.441,0,0,0,.108.259l.024.064a2.626,2.626,0,0,0,.186.308l.078.1a2.051,2.051,0,0,0,.161.2l.112.112c.059.059.122.117.186.176l.137.112.22.161.161.108.264.156.176.093.332.156.166.073c.176.073.362.142.562.205.318.1.694.21,1.119.318l.425.1.621.142.328.073q.635.137,1.349.274l.66.122.538.1,1.237.215c.772.132,1.579.264,2.444.391l2.131.323,2.776.4.616.083.978.137,1.432.191.978.127h0l2.537.323.792.1,1.6.2c2.1.254,4.135.489,6.008.7l2.165.244,1.095.122.489.049,1.31.142.728.078.9.093,1.266.132h.137l.811.083h0a.738.738,0,0,0,.816-.719h0v-.083a.714.714,0,0,0,.117-.381,16.622,16.622,0,0,1,.455-3.578c.054-.2.117-.406.186-.611l.078-.235c.088-.249.176-.489.279-.758a5.44,5.44,0,0,0,.191-.557.687.687,0,0,1,.054-.181c.02-.064.049-.2.068-.3,1.017-3.475-.21-9.957-.562-12.5a13.567,13.567,0,0,0-.557-2.4.976.976,0,0,0,.191,0,5.764,5.764,0,0,0,1.466-.8c7.469-2.664,13.765-5.709,15.754-8.759a13.642,13.642,0,0,1,9.62,1.007c3.867,1.921,33.117,11.468,46.735,15.877,2.444,2.107,4.36,3.339,5.421,3.246,0,0,17.338,2.806,24.309-2.669.621.43,1.012.66,1.012.66s10.128-5.03,11.648-11.575c.489-2.121.934-5.25,1.388-8.711a12.665,12.665,0,0,0,3.676-8.9c.318-10.989,4.575-23.541,7.733-34.706,3.832.3,5.313-.42,8.828-2.156l-.156-.2C844.143,459.813,844.363,459.715,844.583,459.608Zm-58.066,16.458-1.955-.65a16.133,16.133,0,0,0,1.686-2.806Zm-10.9,4.624,11.731,7.039.1,1.432a10.267,10.267,0,0,0,.1,3.275c-5.172-4.595-11.223-10.172-11.937-11.751Zm-4.79-10.265c-1.281-.528-2.341-1.007-3.07-1.4.978.068,1.906.127,2.718.171A6.077,6.077,0,0,1,770.831,470.425ZM739.41,481.9s2.024-4.526,6.584,3.021c.709,1.173,2.014,3.04,3.739,5.352L736.458,488.5a19.06,19.06,0,0,0,2.952-6.594Z" transform="translate(-358.215 -268.455)"/>
    <path id="Path_147" data-name="Path 147" class="cls-11" d="M899.684,537.769s-9.287-3.91-16.62-6.843-2.933,6.843-2.933,6.843,12.22,3.422,12.22,3.911,10.265.978,10.265.978Z" transform="translate(-489.326 -342.169)"/>
    <path id="Path_148" data-name="Path 148" class="cls-12" d="M899.684,537.769s-9.287-3.91-16.62-6.843-2.933,6.843-2.933,6.843,12.22,3.422,12.22,3.911,10.265.978,10.265.978Z" transform="translate(-489.326 -342.169)"/>
    <path id="Path_149" data-name="Path 149" class="cls-13" d="M956.493,464.134s-16.62-8.8-19.553,8.31a69.848,69.848,0,0,1-12.22,28.84s-8.8,1.955-12.22-1.466c0,0,8.31,9.776,4.4,10.754,0,0,8.8,6.355,12.709,4.4s6.843-15.153,8.31-18.575S944.762,463.157,956.493,464.134Z" transform="translate(-506.541 -307.125)"/>
    <path id="Path_150" data-name="Path 150" class="cls-14" d="M956.493,464.134s-16.62-8.8-19.553,8.31a69.848,69.848,0,0,1-12.22,28.84s-8.8,1.955-12.22-1.466c0,0,8.31,9.776,4.4,10.754,0,0,8.8,6.355,12.709,4.4s6.843-15.153,8.31-18.575S944.762,463.157,956.493,464.134Z" transform="translate(-506.541 -307.125)"/>
    <path id="Path_151" data-name="Path 151" class="cls-11" d="M983.5,441.138s10.265,11.732,10.754,21.508,11.732-10.265,12.709-10.754-9.776-17.108-10.754-22.485S983.5,441.138,983.5,441.138Z" transform="translate(-542.836 -289.892)"/>
    <path id="Path_152" data-name="Path 152" class="cls-11" d="M909.227,320.75l-6.477,5.866,3.055,12.342,8.31-7.821-.978-7.821Z" transform="translate(-461.474 -164.521)"/>
    <path id="Path_153" data-name="Path 153" class="cls-11" d="M627.743,498.5H616.5l4.4,10.754,10.754-2.933Z" transform="translate(-315.147 -255.827)"/>
    <path id="Path_154" data-name="Path 154" class="cls-14" d="M666.77,639.33s-11.644,8.109-21.591,5.587-12.65-1.579-13.809,1.677c-1.07,3,27.784,18.844,32.384,21.346a.528.528,0,0,0,.768-.342c.313-1.33,1.07-4.179,1.882-4.4,1.056-.284,5.866-9.287,5.6-12.826S666.77,639.33,666.77,639.33Z" transform="translate(-362.816 -398.206)"/>
    <path id="Path_155" data-name="Path 155" class="cls-15" d="M665.77,639.33s-11.644,8.109-21.591,5.587-12.65-1.579-13.809,1.677c-1.07,3,27.784,18.844,32.384,21.346a.528.528,0,0,0,.767-.342c.313-1.33,1.07-4.179,1.882-4.4,1.056-.284,5.866-9.287,5.6-12.826S665.77,639.33,665.77,639.33Z" transform="translate(-362.305 -398.206)"/>
    <path id="Path_156" data-name="Path 156" class="cls-13" d="M802.886,594.9l-32.75-4.4s-53.281,25.418-59.635,25.907l1.466,11.243h9.776c3.91,0,42.038-8.31,47.415-16.62a13.09,13.09,0,0,1,9.287.978c4.888,2.444,51.814,17.6,51.814,17.6Z" transform="translate(-403.282 -373.245)"/>
    <path id="Path_157" data-name="Path 157" class="cls-14" d="M802.886,594.9l-32.75-4.4s-53.281,25.418-59.635,25.907l1.466,11.243h9.776c3.91,0,42.038-8.31,47.415-16.62a13.09,13.09,0,0,1,9.287.978c4.888,2.444,51.814,17.6,51.814,17.6Z" transform="translate(-403.282 -373.245)"/>
    <path id="Path_158" data-name="Path 158" class="cls-11" d="M692.877,486.5l-5.377,6.843,5.377,2.933,7.821-5.866Z" transform="translate(-351.442 -249.514)"/>
    <path id="Path_159" data-name="Path 159" class="cls-13" d="M871.819,572.218s-17.6-15.065-18.814-17.8-30.067-21.307-32.022-21.8-8.31-3.91-14.664,7.821S776.5,580.528,776.5,580.528s7.332,10.265,9.776,9.776,29.818-23.463,31.773-34.706c0,0,1.955-4.4,6.355,2.933s32.75,42.527,38.127,42.038c0,0,21.019,3.422,25.418-4.888S871.819,572.218,871.819,572.218Z" transform="translate(-437.02 -343.232)"/>
    <path id="Path_160" data-name="Path 160" class="cls-16" d="M973.342,467.233s-6.11,2.688-6.6,13.931S955.5,511.471,955.5,511.471l.978,22.485s11.732,11.732,12.709,19.064,9.287,12.22,9.287,12.22,9.776-4.888,11.243-11.243,2.444-22,4.888-27.862.978-42.527.978-42.527L988.25,470.9l-3.91-4.4-10.265,11.732S968.454,470.655,973.342,467.233Z" transform="translate(-528.522 -309.858)"/>
    <path id="Path_161" data-name="Path 161" class="cls-14" d="M957.9,527.324s-1.466-17.6,2.933-21.508l8.8-24.929s3.177-11.976,2.688-12.954-11.487,9.532-11.487,9.532L953.5,503.372l1.955,27.374Z" transform="translate(-527.5 -310.227)"/>
    <path id="Path_162" data-name="Path 162" class="cls-13" d="M956.9,527.07s-1.466-17.6,2.933-21.508l8.8-24.93s3.422-12.22,2.933-13.2-11.732,9.776-11.732,9.776L952.5,503.118l1.955,27.374Z" transform="translate(-526.989 -309.973)"/>
    <path id="Path_163" data-name="Path 163" class="cls-11" d="M917.111,553.931s-24.441-7.821-25.907-9.776-17.108-14.664-22.485-5.866,20.041,11.243,20.041,11.243l25.907,15.642Z" transform="translate(-483.779 -344.696)"/>
    <path id="Path_164" data-name="Path 164" class="cls-14" d="M747.651,643.05l-7.234-1.3s-11.849,15.178-18.023,13.638-11.854,5.1-5.333,7.234c5.89,1.926,31.328,4.619,36.172,5.118a.714.714,0,0,0,.787-.694,15.565,15.565,0,0,1,1.124-5.509c1.305-3.2,0-10.079-.362-12.709a12.627,12.627,0,0,0-1.422-4.4Z" transform="translate(-405.155 -399.443)"/>
    <path id="Path_165" data-name="Path 165" class="cls-15" d="M747.414,644.02l-7.234-1.3S728.33,657.9,722.166,656.363s-11.854,5.1-5.333,7.234c5.89,1.926,31.328,4.619,36.172,5.118a.714.714,0,0,0,.787-.694,15.564,15.564,0,0,1,1.08-5.5c1.305-3.2,0-10.079-.362-12.709a12.626,12.626,0,0,0-1.422-4.4Z" transform="translate(-405.04 -399.939)"/>
    <circle id="Ellipse_23" data-name="Ellipse 23" class="cls-14" cx="15.5" cy="15.5" r="15.5" transform="translate(429.409 126.154)"/>
    <circle id="Ellipse_24" data-name="Ellipse 24" class="cls-11" cx="15.5" cy="15.5" r="15.5" transform="translate(427.409 126.154)"/>
    <path id="Path_166" data-name="Path 166" class="cls-13" d="M997.235,465.5s18.575,6.355,18.575,19.553-10.265,34.217-10.754,51.325-27.373,14.664-27.373,14.664-3.911-57.68,0-62.079S999.19,467.455,997.235,465.5Z" transform="translate(-538.973 -309.083)"/>
    <path id="Path_167" data-name="Path 167" class="cls-14" d="M983.727,508.109s-6.843,30.306-22.974,24.93c0,0-8.31,12.22-2.444,17.6,0,0,14.176,3.422,23.463-5.866s16.131-12.709,17.6-23.952,2.444-26.885-2.444-25.418S983.727,508.109,983.727,508.109Z" transform="translate(-528.887 -324.288)"/>
    <path id="Path_168" data-name="Path 168" class="cls-13" d="M984.727,507.109s-6.843,30.306-22.974,24.93c0,0-8.31,12.22-2.444,17.6,0,0,14.176,3.422,23.463-5.866s16.131-12.709,17.6-23.952,2.444-26.885-2.444-25.418S984.727,507.109,984.727,507.109Z" transform="translate(-529.398 -323.775)"/>
    <path id="Path_169" data-name="Path 169" class="cls-16" d="M797.691,680a.449.449,0,0,1-.044.137,14.315,14.315,0,0,0-.768,2.586c.117-.381.254-.772.411-1.163A7.1,7.1,0,0,0,797.691,680Z" transform="translate(-447.438 -418.996)"/>
    <path id="Path_170" data-name="Path 170" class="cls-16" d="M717.189,679.489c-2.014-.66-2.86-1.745-2.894-2.889-.831,1.594-.308,3.383,2.537,4.311,5.89,1.926,31.333,4.619,36.172,5.118a.714.714,0,0,0,.787-.7h0a.719.719,0,0,0-.64-.728C747.842,684.035,723,681.385,717.189,679.489Z" transform="translate(-405.038 -417.258)"/>
    <path id="Path_171" data-name="Path 171" class="cls-16" d="M631.06,651.346a6.02,6.02,0,0,1,.489-1.036,4.766,4.766,0,0,0-1.149,1.9c-1.07,3,27.784,18.844,32.384,21.346a.528.528,0,0,0,.767-.347h0a.528.528,0,0,0-.259-.587C658.208,669.838,630,654.308,631.06,651.346Z" transform="translate(-362.32 -403.819)"/>
    <path id="Path_172" data-name="Path 172" class="cls-16" d="M702.653,686.134c-.259.068-.513.415-.753.89l.078-.029c.215-.059.582-.489,1.026-1.124a.95.95,0,0,1-.352.264Z" transform="translate(-398.885 -421.997)"/>
    <path id="Path_173" data-name="Path 173" class="cls-14" d="M967.074,425.213c-1.378,3.04-1.667,6.467-2.679,9.654a21.228,21.228,0,0,1-13.086,13.57c5.079,2.024,11.072-.45,15-4.556s6.227-9.571,8.432-14.889c5.7,3.832,5.005,12.641,6.922,19.5a21.625,21.625,0,0,0,11.511,13.76,20.613,20.613,0,0,0,17.632-.357c-5.225-6.355-12.665-15.119-11.78-23.6.719-6.873-4.214-12.123-3.876-19.02.489-9.776-3.255-14.743-10.265-21.019-4.1-3.671,2.351-8.848-2.933-7.332-2.078.6-4.267-1.628-6.306-.894-4.038,1.466-8.447.9-12.6,1.877C941.446,396.974,969.088,420.774,967.074,425.213Z" transform="translate(-526.38 -270.221)"/>
    <path id="Path_174" data-name="Path 174" class="cls-17" d="M968.074,424.057c-1.378,3.04-1.667,6.467-2.679,9.654A21.228,21.228,0,0,1,952.31,447.28c5.079,2.024,11.072-.45,15-4.556s6.227-9.571,8.432-14.889c5.7,3.832,5.005,12.641,6.922,19.5a21.625,21.625,0,0,0,11.511,13.76,20.613,20.613,0,0,0,17.632-.357c-5.225-6.355-12.176-13.653-11.292-22.138.719-6.873-.352-13.936,0-20.828.489-9.776-4.306-19.22-11.321-25.5-4.1-3.671-10.495-4.14-12.538-3.422-4.038,1.466-8.447.9-12.6,1.877C942.446,395.818,970.088,419.618,968.074,424.057Z" transform="translate(-526.892 -269.552)"/>
  </g>
</svg>
