<svg xmlns="http://www.w3.org/2000/svg" xmlns:xlink="http://www.w3.org/1999/xlink" width="565.876" height="400.892" viewBox="0 0 565.876 400.892">
  <defs>
    <style>
      .cls-1, .cls-3 {
        fill: #6c63ff;
      }

      .cls-1, .cls-13, .cls-5 {
        opacity: 0.1;
      }

      .cls-2 {
        opacity: 0.5;
      }

      .cls-4 {
        fill: none;
        stroke: #535461;
        stroke-miterlimit: 10;
        stroke-width: 2px;
      }

      .cls-6 {
        fill: #ffd037;
      }

      .cls-7 {
        fill: #a8a8a8;
      }

      .cls-8 {
        opacity: 0.2;
      }

      .cls-9 {
        fill: #e6e6f0;
      }

      .cls-10 {
        fill: #fdc2cc;
      }

      .cls-11 {
        fill: #565171;
      }

      .cls-12 {
        fill: #b45181;
      }

      .cls-14 {
        fill: #f569bc;
      }

      .cls-15 {
        fill: #f7df1e;
      }

      .cls-16, .cls-31 {
        fill: #fff;
      }

      .cls-17 {
        fill: url(#linear-gradient);
      }

      .cls-18 {
        fill: #4f4d59;
      }

      .cls-19 {
        fill: #c48c96;
      }

      .cls-20 {
        fill: #714b4f;
      }

      .cls-21 {
        fill: #ba7855;
      }

      .cls-22 {
        fill: #503f43;
      }

      .cls-23 {
        fill: #e44d26;
      }

      .cls-24 {
        fill: #f16529;
      }

      .cls-25 {
        fill: #ebebeb;
      }

      .cls-26 {
        fill: url(#linear-gradient-2);
      }

      .cls-27, .cls-34 {
        opacity: 0.05;
      }

      .cls-28 {
        fill: #264de4;
      }

      .cls-29 {
        fill: #2965f1;
      }

      .cls-30 {
        fill: #47465a;
      }

      .cls-31 {
        opacity: 0.3;
      }

      .cls-32 {
        fill: #e1a0a7;
      }

      .cls-33 {
        fill: #8f5a6a;
      }
    </style>
    <linearGradient id="linear-gradient" x1="0.5" y1="1" x2="0.5" gradientUnits="objectBoundingBox">
      <stop offset="0" stop-color="gray" stop-opacity="0.251"/>
      <stop offset="0.54" stop-color="gray" stop-opacity="0.122"/>
      <stop offset="1" stop-color="gray" stop-opacity="0.102"/>
    </linearGradient>
    <linearGradient id="linear-gradient-2" x1="0.5" y1="1.001" x2="0.5" y2="0" xlink:href="#linear-gradient"/>
  </defs>
  <g id="Group_9" data-name="Group 9" transform="translate(0.003 -0.09)">
    <ellipse id="Ellipse_1" data-name="Ellipse 1" class="cls-1" cx="116.116" cy="22.568" rx="116.116" ry="22.568" transform="translate(331.437 298.978)"/>
    <g id="Group_4" data-name="Group 4" class="cls-2" transform="translate(331.575 53.494)">
      <path id="Path_2" data-name="Path 2" class="cls-3" d="M705.06,185.808c-1.566.445-3.483,1.6-4.428,4.774-1.851,6.213,2.45,10.438,1.033,16.915a12.636,12.636,0,0,1-2.2,4.747c-1.73,2.346-3.609,3.456-5.433,5.1a16.206,16.206,0,0,0-4.774,7.84,21.7,21.7,0,0,0-.214,10.191,39.972,39.972,0,0,0,2.719,7.142,52.742,52.742,0,0,1,2.807,8.993,21.9,21.9,0,0,1,.615,4.571,40.208,40.208,0,0,1-.549,6.109l-2.631,18.36a55.17,55.17,0,0,0-.72,7.257,36.053,36.053,0,0,0,.841,7.246c.923,4.856,1.917,9.889,4.032,12.46s5.719,1.648,7.933-3.554c2.1-4.977,2.154-11.619,4.01-16.937,2.928-8.378,8.746-9.5,11.976-17.5,3.1-7.691,2.148-17.075,3.719-25.821,1.1-6.268,3.521-11.982,4.944-18.173a57.56,57.56,0,0,0,.209-25.03,33.265,33.265,0,0,0-7.79-15.13c-1.368-1.511-2.835-2.857-4.554-2.994-1.829-.143-3.428,2.159-5.236,2.851C709.285,186.045,707.187,185.2,705.06,185.808Z" transform="translate(-688.542 -182.368)"/>
      <path id="Path_3" data-name="Path 3" class="cls-4" d="M723.41,183.23s-3.1,79.3-16.13,126.054" transform="translate(-696.986 -182.757)"/>
      <path id="Path_4" data-name="Path 4" class="cls-4" d="M710.41,198s13.927,12.68,11.284,36.808" transform="translate(-698.396 -189.412)"/>
      <path id="Path_5" data-name="Path 5" class="cls-4" d="M689.14,263.68s22.859,4.6,21.162,18.272" transform="translate(-688.811 -219.009)"/>
      <path id="Path_6" data-name="Path 6" class="cls-4" d="M747.822,215.07s-9.252,8.1-17.492,31.034" transform="translate(-707.372 -197.105)"/>
      <path id="Path_7" data-name="Path 7" class="cls-4" d="M736.388,331.106s-6.312,4.944-11.378-12.366" transform="translate(-704.975 -243.821)"/>
      <path id="Path_8" data-name="Path 8" class="cls-4" d="M696.14,351.67s12.872-1.681,14.059-9.74" transform="translate(-691.966 -254.271)"/>
    </g>
    <path id="Path_9" data-name="Path 9" class="cls-3" d="M751.563,88.819c-3.186.472-7.021,1.95-8.6,6.5-3.093,8.933,6.307,15.7,4.142,25.03a14.025,14.025,0,0,1-3.922,6.73c-3.3,3.247-7.065,4.664-10.636,6.867a20.054,20.054,0,0,0-8.955,10.988,23.143,23.143,0,0,0,.764,14.981c1.676,4.219,4.208,7.367,6.472,10.839a73.441,73.441,0,0,1,6.862,13.57,25.784,25.784,0,0,1,1.824,6.774,41.069,41.069,0,0,1-.445,8.933L735.8,226.811a56.056,56.056,0,0,0-.626,10.6,41.652,41.652,0,0,0,2.6,10.768c2.483,7.263,5.142,14.833,9.828,18.833s12.037,3.142,16-4.3c3.769-7.081,3.077-16.855,6.29-24.464,5.065-11.993,16.976-12.965,22.706-24.348,5.494-10.922,2.423-24.892,4.631-37.583,1.582-9.092,5.867-17.223,8.065-26.172a61.646,61.646,0,0,0-2.538-36.808,56.483,56.483,0,0,0-17.91-23.2c-3.011-2.39-6.2-4.549-9.779-4.944-3.8-.423-6.84,2.774-10.493,3.582C760.325,89.665,755.886,88.176,751.563,88.819Z" transform="translate(-372.352 -85.07)"/>
    <path id="Path_10" data-name="Path 10" class="cls-4" d="M796.807,86s3,116.407-18.437,183.722" transform="translate(-397.445 -85.448)"/>
    <path id="Path_11" data-name="Path 11" class="cls-4" d="M759.38,104.68s30.326,20.327,27.727,55.575" transform="translate(-388.888 -93.866)"/>
    <path id="Path_12" data-name="Path 12" class="cls-4" d="M723.15,198.85s47.862,9.482,45.972,29.414" transform="translate(-372.562 -136.301)"/>
    <path id="Path_13" data-name="Path 13" class="cls-4" d="M841.868,135.92s-18.19,10.828-32.518,43.626" transform="translate(-411.406 -107.944)"/>
    <path id="Path_14" data-name="Path 14" class="cls-4" d="M828.913,303.743s-12.471,6.592-25.013-19.563" transform="translate(-408.95 -174.753)"/>
    <path id="Path_15" data-name="Path 15" class="cls-4" d="M749,330.6s26.441-.95,27.947-12.68" transform="translate(-384.21 -189.957)"/>
    <path id="Path_16" data-name="Path 16" class="cls-3" d="M141.848,663.66s4.6,6.043-2.126,15.108-12.29,16.767-10.032,22.437c0,0,10.152-16.882,18.415-17.119S150.94,673.813,141.848,663.66Z" transform="translate(-104.904 -345.756)"/>
    <path id="Path_17" data-name="Path 17" class="cls-5" d="M142.087,663.66a7.455,7.455,0,0,1,.967,1.89c8.065,9.471,12.355,18.311,4.609,18.536-7.219.209-15.877,13.114-17.954,16.377a7,7,0,0,0,.247.742s10.152-16.882,18.415-17.119S151.18,673.813,142.087,663.66Z" transform="translate(-105.143 -345.756)"/>
    <path id="Path_18" data-name="Path 18" class="cls-6" d="M166.919,676.525c0,2.121-.236,3.846-.549,3.846s-.549-1.72-.549-3.846.3-1.1.588-1.1S166.919,674.4,166.919,676.525Z" transform="translate(-121.415 -350.947)"/>
    <path id="Path_19" data-name="Path 19" class="cls-6" d="M170.193,681.04c-1.862,1.016-3.483,1.648-3.62,1.368s1.253-1.291,3.115-2.3,1.126-.275,1.269,0S172.05,680.024,170.193,681.04Z" transform="translate(-121.75 -352.934)"/>
    <path id="Path_20" data-name="Path 20" class="cls-3" d="M99.523,663.66s-4.6,6.043,2.126,15.108,12.279,16.761,10.032,22.431c0,0-10.152-16.882-18.415-17.119S90.42,673.813,99.523,663.66Z" transform="translate(-86.883 -345.756)"/>
    <path id="Path_21" data-name="Path 21" class="cls-5" d="M99.523,663.66a7.456,7.456,0,0,0-.939,1.89c-8.065,9.471-12.355,18.311-4.609,18.536,7.219.209,15.877,13.114,17.954,16.377a6.991,6.991,0,0,1-.247.742s-10.152-16.882-18.415-17.119S90.42,673.813,99.523,663.66Z" transform="translate(-86.883 -345.756)"/>
    <path id="Path_22" data-name="Path 22" class="cls-6" d="M92.4,676.525c0,2.121.236,3.846.549,3.846s.549-1.72.549-3.846-.3-1.1-.588-1.1S92.4,674.4,92.4,676.525Z" transform="translate(-88.33 -350.947)"/>
    <path id="Path_23" data-name="Path 23" class="cls-6" d="M86.12,681.04c1.862,1.016,3.483,1.648,3.62,1.368s-1.253-1.291-3.115-2.3-1.126-.275-1.269,0S84.264,680.024,86.12,681.04Z" transform="translate(-84.99 -352.934)"/>
    <path id="Path_24" data-name="Path 24" class="cls-7" d="M95.07,724.857s12.872-.4,16.75-3.159,19.778-6.043,20.761-1.648,19.344,22.035,4.813,22.151-33.765-2.263-37.638-4.62S95.07,724.857,95.07,724.857Z" transform="translate(-89.534 -370.2)"/>
    <path id="Path_25" data-name="Path 25" class="cls-8" d="M137.652,746.363c-14.531.115-33.765-2.263-37.638-4.62-2.95-1.8-4.126-8.241-4.516-11.213H95.07s.813,10.383,4.686,12.74,23.107,4.741,37.638,4.62c4.2-.033,5.642-1.527,5.565-3.736C142.377,745.506,140.778,746.341,137.652,746.363Z" transform="translate(-89.534 -375.889)"/>
    <path id="Path_26" data-name="Path 26" class="cls-3" d="M1050.585,650.764a6.41,6.41,0,0,0,2.1-3.175,2.818,2.818,0,0,0-1.472-3.236c-1.352-.516-2.8.417-3.89,1.368s-2.351,2.027-3.785,1.824a5.758,5.758,0,0,0,1.78-5.389,2.252,2.252,0,0,0-.495-1.1c-.753-.8-2.11-.456-3.011.176-2.857,2.011-3.653,5.889-3.67,9.383a17.981,17.981,0,0,1-.055-3.846,3.971,3.971,0,0,0-1.45-3.417,4.395,4.395,0,0,0-2.2-.522,4.575,4.575,0,0,0-3.593,1.022c-1.1,1.165-.808,3.126.143,4.395a14.3,14.3,0,0,0,3.719,2.978,8.24,8.24,0,0,1,2.659,2.533,2.516,2.516,0,0,1,.2.451h8.049A22.43,22.43,0,0,0,1050.585,650.764Z" transform="translate(-510.901 -335.36)"/>
    <path id="Path_27" data-name="Path 27" class="cls-1" d="M207.419,398.8c17.481,22.228,10.691,54.7-.418,80.7-3.719,8.708-7.928,17.921-6.356,27.255,1.917,11.416,12.086,19.778,22.81,24.173a67.9,67.9,0,0,0,60.766-5c15.487-9.636,26.579-25.3,42.329-34.5,26.37-15.383,59.915-9.576,88.537,1.022,20.25,7.5,42.39,17.256,62.513,9.416,14.157-5.494,23.947-18.937,29.282-33.166,2.577-6.873,4.444-14.284,9.339-19.778a34.822,34.822,0,0,1,10.647-7.471c35.709-17.7,80.758-8.241,115.413-27.842,23.409-13.251,38.4-38.253,45.049-64.321s5.862-53.4,4.175-80.247c-1.2-19.08-3.346-39.445-15.536-54.174-12.894-15.575-35.028-21.371-55.031-18.41s-38.143,13.564-54.075,25.991c-19.937,15.531-38.423,34.874-62.9,41.17-16.668,4.285-34.2,1.939-51.4,1.132-28.743-1.357-57.492,1.648-86.076,4.944-27.364,3.164-54.938,6.647-80.994,15.547-18.448,6.3-33.237,17.734-50.658,25.722-11.356,5.208-23.739,6.647-34.484,13.278-13.245,8.169-25.381,22.382-21.975,39.006C181.571,379.076,198.135,387.009,207.419,398.8Z" transform="translate(-126.811 -134.887)"/>
    <ellipse id="Ellipse_2" data-name="Ellipse 2" class="cls-1" cx="234.951" cy="22.568" rx="234.951" ry="22.568" transform="translate(68.495 218.769)"/>
    <ellipse id="Ellipse_3" data-name="Ellipse 3" class="cls-1" cx="116.116" cy="22.568" rx="116.116" ry="22.568" transform="translate(6.756 348.971)"/>
    <path id="Path_28" data-name="Path 28" class="cls-9" d="M523.2,511.48l-1.84,2.675s2.005,2.675,2.2,3.011,5.851-.165,5.851-.165l.5-2.005-.835-2.34Z" transform="translate(-281.63 -277.18)"/>
    <path id="Path_29" data-name="Path 29" class="cls-10" d="M324.071,423.67l-3.681.665,2.34,4.521,2.511,1.335,2.34,1.67.67-1.835-1.676-3.516Z" transform="translate(-144.377 -190.875)"/>
    <path id="Path_30" data-name="Path 30" class="cls-11" d="M512.709,429.489s19.569,4.681,23.244,9.889c0,0,3.346,2.846,0,8.026s-8.026,16.893-8.026,16.893-3.346,11.372-4.681,12.207-9.032,1.505-9.7-1.648c0,0,4.346-6.856,4.346-10.037s7.191-18.228,7.191-18.228-16.388-1.84-21.574-.67S505.852,427.649,512.709,429.489Z" transform="translate(-272.809 -240.178)"/>
    <path id="Path_31" data-name="Path 31" class="cls-5" d="M512.709,429.489s19.569,4.681,23.244,9.889c0,0,3.346,2.846,0,8.026s-8.026,16.893-8.026,16.893-3.346,11.372-4.681,12.207-9.032,1.505-9.7-1.648c0,0,4.346-6.856,4.346-10.037s7.191-18.228,7.191-18.228-16.388-1.84-21.574-.67S505.852,427.649,512.709,429.489Z" transform="translate(-272.809 -240.178)"/>
    <path id="Path_32" data-name="Path 32" class="cls-11" d="M467.166,434.128c-.038.972-.143,2.066-.291,3.241-1.071,8.515-4.56,21.178-4.56,21.178s-3.511,7.526-4.516,12.377-7.862,6.043-7.862,6.043-18.734,2.2-22.579,1.34-9.889,2.511-12.877,2.005-4.851-7.526-4.851-7.526a36.258,36.258,0,0,0,15.053-3.175c7.691-3.51,18.734-1.84,18.734-1.84a6.29,6.29,0,0,0,3.846-3.175c1.17-2.511,1.17-17.728.835-18.734-2.2-6.593-2.016-10.823-1.384-13.289a6.631,6.631,0,0,1,1.384-2.934Z" transform="translate(-231.282 -240.301)"/>
    <path id="Path_33" data-name="Path 33" class="cls-5" d="M497.6,434.106c-.038.972-.143,2.066-.291,3.241-1.681.132-6.395.258-9.889-1.9-3.3-2.022-8.092-2.708-10.251-2.923a6.631,6.631,0,0,1,1.384-2.934Z" transform="translate(-261.717 -240.278)"/>
    <path id="Path_34" data-name="Path 34" class="cls-9" d="M498.977,427.488c-.78,2.2-1.978,4.774-1.978,4.774s-6.186.835-10.537-1.84-11.372-3.011-11.372-3.011c1.137-.7,1.906-2.818,2.384-4.675a29.626,29.626,0,0,0,.626-3.186s20.569,4.181,21.426,4.851C499.845,424.665,499.5,425.994,498.977,427.488Z" transform="translate(-260.78 -235.754)"/>
    <path id="Path_35" data-name="Path 35" class="cls-10" d="M562.795,291.451l-24.947,15.058L535.37,308v-7.356l1.72-.824,21.025-10.048s1.005-18.228,3.681-15.383S562.795,291.451,562.795,291.451Z" transform="translate(-287.943 -170.207)"/>
    <path id="Path_36" data-name="Path 36" class="cls-5" d="M537.848,327.616l-2.478,1.494v-7.356l1.72-.824A54.134,54.134,0,0,0,537.848,327.616Z" transform="translate(-287.943 -191.314)"/>
    <path id="Path_37" data-name="Path 37" class="cls-12" d="M504.93,329.5l17.893-10.367s.335,10.037,2.34,11.537c0,0-7.356,2.2-10.2,6.856Z" transform="translate(-274.226 -190.503)"/>
    <path id="Path_38" data-name="Path 38" class="cls-5" d="M504.93,329.5l17.893-10.367s.335,10.037,2.34,11.537c0,0-7.356,2.2-10.2,6.856Z" transform="translate(-274.226 -190.503)"/>
    <path id="Path_39" data-name="Path 39" class="cls-10" d="M568.967,339.788a111.612,111.612,0,0,1-14.146,5.071,11.109,11.109,0,0,1-3.917.45c-3.846-.67,1.005-5.494,1.005-5.494l2.022-.313,10.856-1.692s1.17-16.723,3.175-15.383S568.967,339.788,568.967,339.788Z" transform="translate(-294.275 -191.954)"/>
    <path id="Path_40" data-name="Path 40" class="cls-10" d="M504.449,320.368s-7.191,5.351-4.516,12.042-13.883-4.016-13.883-4.016,5.351-8.026,6.521-14.048S504.449,320.368,504.449,320.368Z" transform="translate(-265.719 -187.588)"/>
    <path id="Path_41" data-name="Path 41" class="cls-5" d="M500.937,427.488a37.907,37.907,0,0,0-9.669-2.252,51.583,51.583,0,0,1-11.828-2.5,29.632,29.632,0,0,0,.626-3.186s20.569,4.181,21.426,4.851C501.805,424.665,501.464,425.994,500.937,427.488Z" transform="translate(-262.74 -235.754)"/>
    <path id="Path_42" data-name="Path 42" class="cls-5" d="M554.811,358.926a11.108,11.108,0,0,1-3.917.45c-3.846-.67,1.005-5.494,1.005-5.494l2.022-.313A5.9,5.9,0,0,1,554.811,358.926Z" transform="translate(-294.271 -206.022)"/>
    <path id="Path_43" data-name="Path 43" class="cls-12" d="M487.857,332.166S481.336,332,479,334.677s-1.84,9.889-1.84,9.889-.489,14.443,3.175,22.524a1.1,1.1,0,0,1,.038.83c-.038.1-.038.038-.038.038s-2.34,10.537-4.681,12.377,5.016,4.016,13.734,5.016,12.207,3.511,12.207,3.511,1.505-1.648,1.648-5.351-2.324-30.606-2.324-30.606,9.2,2.34,14.718-.5c0,0,2.511,1.34,4.851-2.34s-1.648-7.691-1.648-7.691-3.681,3.681-13.883-1.17S491.026,332,487.857,332.166Z" transform="translate(-260.834 -196.375)"/>
    <path id="Path_44" data-name="Path 44" class="cls-9" d="M405.565,509.35H403.56V512.2l2.005,4.516s2.675.5,2.846.5,2.34-.5,2.34-.5l.67-1.17S404.06,512.69,405.565,509.35Z" transform="translate(-228.547 -276.22)"/>
    <path id="Path_45" data-name="Path 45" class="cls-12" d="M519.2,513.99l-3.011,6.691,12.713,6.043,10.037.335s.835-2.34-2.511-3.511l-2.675-.5s-3.51-6.356-3.846-9.339c0,0-3.346.67-3.846,3.175A4.955,4.955,0,0,1,519.2,513.99Z" transform="translate(-279.301 -278.185)"/>
    <path id="Path_46" data-name="Path 46" class="cls-12" d="M399.946,508.13l-1.022.835-4.494,3.681L404.8,526.38s5.851,2.511,8.532,0c0,0,1.648-1.648-2.005-3.011,0,0-2.846.5-2.846-2.34s.67-5.851,1.648-6.521c0,0-2.511-.835-3.175-.165a10.616,10.616,0,0,0-1.34,1.84S399.611,513.816,399.946,508.13Z" transform="translate(-224.432 -275.671)"/>
    <path id="Path_47" data-name="Path 47" class="cls-5" d="M496.77,314.957a20.319,20.319,0,0,1-.67,2.505,8.7,8.7,0,0,0,11.136,4.785,13.834,13.834,0,0,1,1.412-1.269S497.94,308.936,496.77,314.957Z" transform="translate(-270.247 -187.862)"/>
    <path id="Path_48" data-name="Path 48" class="cls-5" d="M495.64,357s5.186,6.856,12.713,7.026" transform="translate(-270.04 -207.568)"/>
    <g id="Group_5" data-name="Group 5" class="cls-13" transform="translate(214.199 135.814)">
      <path id="Path_49" data-name="Path 49" d="M551.4,369.125a1.886,1.886,0,0,1-.308-.115q-.242.126-.494.236a3.126,3.126,0,0,0,.8-.121Z" transform="translate(-509.006 -348.793)"/>
      <path id="Path_50" data-name="Path 50" d="M551.7,351.45a8.3,8.3,0,0,0-.582-.67,6.23,6.23,0,0,1-3.813,1.308A9.23,9.23,0,0,0,551.7,351.45Z" transform="translate(-507.519 -340.578)"/>
      <path id="Path_51" data-name="Path 51" d="M524.71,369.92l.033.357a33.216,33.216,0,0,0,6.691.549A34.819,34.819,0,0,1,524.71,369.92Z" transform="translate(-497.339 -349.203)"/>
      <path id="Path_52" data-name="Path 52" d="M490.722,385.384c-8.7-1.005-16.053-3.175-13.734-5.016s4.681-12.377,4.681-12.377,0,.06.038-.038a1.1,1.1,0,0,0-.038-.83c-3.664-8.1-3.175-22.524-3.175-22.524s-.5-7.191,1.84-9.889c1.742-1.994,5.8-2.406,7.763-2.489a3.557,3.557,0,0,0-.549,0s-6.521-.165-8.861,2.511-1.84,9.889-1.84,9.889-.489,14.443,3.175,22.524a1.1,1.1,0,0,1,.038.83c-.038.1-.038.038-.038.038s-2.324,10.5-4.686,12.344,5.016,4.016,13.734,5.016,12.207,3.511,12.207,3.511a4.289,4.289,0,0,0,.461-.676A34.324,34.324,0,0,0,490.722,385.384Z" transform="translate(-474.888 -332.211)"/>
    </g>
    <circle id="Ellipse_4" data-name="Ellipse 4" class="cls-10" cx="8.697" cy="8.697" r="8.697" transform="translate(225.517 117.228)"/>
    <path id="Path_53" data-name="Path 53" class="cls-5" d="M499.4,298.605c-.72,1.8-2.868,2.483-4.752,2.95-2.692.659-5.593,1.308-8.169.286a1.786,1.786,0,0,0-1.1-.214,1.461,1.461,0,0,0-.725.632c-2.84,4.043-2.379,9.433-3.115,14.322a7.955,7.955,0,0,1-1.648,4.23c-2,2.2-5.774,2.115-7.614,4.45-1.214,1.538-1.225,3.675-1.214,5.637q0,3.137-.055,6.279a9.273,9.273,0,0,1-.72,4.016c-1.055,2.066-3.406,3.049-5.576,3.846a9.56,9.56,0,0,1-4.2.879,3.28,3.28,0,0,1-3.088-2.549c-.258-1.967,1.769-3.34,3.164-4.758a12.788,12.788,0,0,0,3.23-8.719,9.339,9.339,0,0,0-.549-3.774c-.511-1.247-1.423-2.3-1.972-3.527-1.692-3.791.4-8.175,2.9-11.493s5.571-6.554,6.1-10.669a14.8,14.8,0,0,1,.379-2.642c.385-1.2,1.3-4.5,2.3-5.263a11.96,11.96,0,0,1,5.494-2.285c1.544-.225,3.12-.143,4.653-.439,1.791-.346,3.456-1.2,5.247-1.516,3.873-.687,8.076,3.813,9.773,7.362C498.618,296.732,499.843,297.5,499.4,298.605Z" transform="translate(-252.812 -176.57)"/>
    <path id="Path_54" data-name="Path 54" class="cls-14" d="M499.4,298c-.72,1.8-2.868,2.483-4.752,2.95-2.692.659-5.593,1.308-8.169.286a1.786,1.786,0,0,0-1.1-.214,1.461,1.461,0,0,0-.725.632c-2.84,4.043-2.379,9.433-3.115,14.322a7.955,7.955,0,0,1-1.648,4.23c-2,2.2-5.774,2.115-7.614,4.45-1.214,1.538-1.225,3.675-1.214,5.637q0,3.137-.055,6.279a9.273,9.273,0,0,1-.72,4.016c-1.055,2.066-3.406,3.049-5.576,3.846a9.56,9.56,0,0,1-4.2.879,3.28,3.28,0,0,1-3.088-2.549c-.258-1.967,1.769-3.34,3.164-4.758a12.788,12.788,0,0,0,3.23-8.719,9.339,9.339,0,0,0-.549-3.774c-.511-1.247-1.423-2.3-1.972-3.527-1.692-3.791.4-8.175,2.9-11.493s5.571-6.554,6.1-10.669a14.8,14.8,0,0,1,.379-2.643c.385-1.2,1.3-4.5,2.3-5.263a11.959,11.959,0,0,1,5.494-2.285c1.544-.225,3.12-.143,4.653-.44,1.791-.346,3.456-1.2,5.247-1.516,3.873-.687,8.076,3.813,9.773,7.362C498.618,296.122,499.843,296.891,499.4,298Z" transform="translate(-252.812 -176.295)"/>
    <path id="Path_55" data-name="Path 55" class="cls-15" d="M585,276.09H729.579V420.658H585Z" transform="translate(-310.308 -171.108)"/>
    <path id="Path_56" data-name="Path 56" class="cls-16" d="M654.21,450.694l11.064-6.7c2.137,3.785,4.076,6.988,8.735,6.988,4.466,0,7.279-1.747,7.279-8.537v-46.2h13.586v46.384c0,14.07-8.241,20.475-20.283,20.475-10.867,0-17.174-5.631-20.376-12.421m48.037-1.456,11.059-6.406c2.912,4.758,6.7,8.241,13.394,8.241,5.631,0,9.219-2.813,9.219-6.7,0-4.659-3.686-6.307-9.889-9.026l-3.4-1.456c-9.8-4.17-16.305-9.411-16.305-20.475,0-10.191,7.763-17.954,19.893-17.954,8.636,0,14.833,3.011,19.311,10.867l-10.576,6.8c-2.329-4.175-4.851-5.823-8.735-5.823-3.977,0-6.5,2.522-6.5,5.823,0,4.076,2.522,5.724,8.345,8.241l3.4,1.456c11.537,4.944,18.052,9.993,18.052,21.349,0,12.229-9.609,18.926-22.524,18.926-12.636,0-20.766-6.043-24.722-13.877" transform="translate(-341.496 -224.899)"/>
    <path id="Path_57" data-name="Path 57" class="cls-17" d="M890.969,540.189s-5.642.4-9.125-5.648a20.259,20.259,0,0,0-2.4-3.412A11.537,11.537,0,0,1,877.757,525c.192-4.477-4.477-29-4.477-29s.582-9.339-4.087-15.179c-3.076-3.846-7.5-14.833-10.163-21.931a1.468,1.468,0,0,0,.626.33l-.11-.61h.11l-1.379-7.576a34.541,34.541,0,0,1-5.032-7.625l.313-.066,4.131-.868s6.713-9.543,7.142-14.234h1.324a161.516,161.516,0,0,1,18.6.972h0c0-.027-.044-.148-.1-.341h0a23.361,23.361,0,0,1-.6-2.873h.385l3.846-.253s13.234-14.789,8.367-17.514-9.927,12.262-9.927,12.262l-1.648.3-.445.082c.044-.066.088-.126.137-.187s-21.6-.967-24.936-6.23c0,0-9.537-7.592-9.927-12.636a5.708,5.708,0,0,0-3.428-4.856,7.482,7.482,0,0,0-3.785-.709l-4.466.308.313.549h-.126a15.031,15.031,0,0,1-.7-1.978h.093c-.033-.137-.06-.275-.088-.412a10.51,10.51,0,0,0,7.741-12.943,4.2,4.2,0,0,0,1.313-.038,3.849,3.849,0,0,0,2.851-3.675v-.39a5.647,5.647,0,0,0-2.17-4.34,31.713,31.713,0,0,1-2.747-2.093,20.6,20.6,0,0,1-2.236-3.461,10.273,10.273,0,0,0-5.274-4.1c-1.61-.549-3.587-.6-4.824.549-.637.6-1.005,1.467-1.72,1.972-1.027.736-2.423.516-3.681.665a7.021,7.021,0,0,0-5.29,3.961,9.125,9.125,0,0,0-.868,4.186,11.177,11.177,0,0,0,.352,2.939c.242.956.6,1.879.863,2.835.549,1.978.676,4.06,1.307,6.01a7.564,7.564,0,0,0,2.434,3.7l-.187.8c-.121,0-3.153.676-5.247,5.252-1.648,3.609-7.257,7.334-9.724,8.839a4.054,4.054,0,0,0-1.835,2.549,13.238,13.238,0,0,0-.313,3.236,22.4,22.4,0,0,0,2.329,9.708c4.28,9.339,7.395,13.427,7.395,13.427s.236,2.862.253,5.878a17.348,17.348,0,0,1-.643,5.6c-.407.945-.549,3.357-.516,6.115,0,5.285.516,12.18.516,12.18s1.489.286,3.791.621l1.434,25.227a12.13,12.13,0,0,1-2.747,8.427,18.647,18.647,0,0,1-3.456,3.3c-4.087,2.917-12.844,33.671-12.844,33.671a10.788,10.788,0,0,1,1.132.082l-2.692,7.51s10.757,8.241,17.3,5.988a6.341,6.341,0,0,1,2.2-.308c1.291,0,4.054-1.022,2.516-2.368a99.726,99.726,0,0,1-8.389-8.724,4.456,4.456,0,0,1,.6.357v-.06l.093.06a6.181,6.181,0,0,1,.071-.8l-.093-.033c.2-2.022.824-7.142,2.066-7.735,1.555-.78,13.042-23.552,13.042-23.552L843.3,476.165s9.147,15.767,16.932,18.487v6.592s4.28,19.464,5.84,21.6,0,10.7,0,10.7a5.336,5.336,0,0,0,1.049.923l-1.247,7.054s8.955-.39,24.134,4.28C890,545.831,895.837,543.3,890.969,540.189ZM855.161,438.4l-1.9.472-.374.093c-.038-.236-.066-.374-.066-.374a3.845,3.845,0,0,1-1.379.335,25.352,25.352,0,0,1-1.154-6.565,44.237,44.237,0,0,1-1.159-8.131,5.83,5.83,0,0,1,.769-3.351l.632.049.44.418.033.027.225.2h0l.236.209.038.033.253.225.044.038.258.22h0l.291.242.066.055.308.247h0l.3.242.071.055.335.253.071.049.319.236.055.038.363.258.088.06.385.264h.033l.374.247.088.06.4.258.088.055.374.231.071.044.429.253.1.06.445.247h.033l.434.231.1.055.461.231.093.044.429.2.082.038.483.209.115.049.5.2h0C856.754,430.435,855.161,438.4,855.161,438.4Z" transform="translate(-408.278 -210.408)"/>
    <path id="Path_58" data-name="Path 58" class="cls-18" d="M808.089,668.16l-3.609,10.07s9.889,7.581,16.316,6.01a17.959,17.959,0,0,1,2.95-.478c1.329-.1,3.62-1.071,2.2-2.3a121.543,121.543,0,0,1-10.641-11.4Z" transform="translate(-409.211 -347.784)"/>
    <path id="Path_59" data-name="Path 59" class="cls-18" d="M918.939,664.562l-1.709,9.691s8.741-.379,23.563,4.181c0,0,5.7-2.472.95-5.494,0,0-5.494.379-8.927-5.494s-5.494-5.131-5.494-5.131Z" transform="translate(-460.019 -345.136)"/>
    <path id="Path_60" data-name="Path 60" class="cls-19" d="M824.107,523.622l1.648,29.49a12.2,12.2,0,0,1-2.906,8.625,17.875,17.875,0,0,1-3.137,2.928c-3.988,2.851-12.542,32.869-12.542,32.869s9.691.549,12.35,2.472c0,0,.549-7.6,2.088-8.361s12.729-22.991,12.729-22.991l11.213-28.881s8.927,15.383,16.531,18.052v6.461s4.181,19,5.7,21.091,0,10.438,0,10.438,4.4,5.494,14.438-.379c0,0-3.23-3.609-3.038-7.982s-4.4-28.309-4.4-28.309.549-9.12-3.988-14.833-12.081-27.54-12.081-27.54l-5.23-11.251Z" transform="translate(-410.423 -274.494)"/>
    <g id="Group_6" data-name="Group 6" class="cls-13" transform="translate(396.884 231.031)">
      <path id="Path_61" data-name="Path 61" d="M809.129,597.534s8.548-30.018,12.542-32.869a18.122,18.122,0,0,0,3.3-3.12,12.086,12.086,0,0,0,2.747-8.427l-1.676-29.5,28.018-17.272-.379-.819-29.348,18.1,1.676,29.5a12.087,12.087,0,0,1-2.747,8.427,18.129,18.129,0,0,1-3.3,3.12c-3.983,2.846-12.542,32.864-12.542,32.864s9.691.549,12.35,2.472a5.812,5.812,0,0,1,.071-.775C816.1,597.946,809.129,597.534,809.129,597.534Z" transform="translate(-807.42 -505.53)"/>
      <path id="Path_62" data-name="Path 62" d="M902.082,623.913s1.522-8.361,0-10.438-5.7-21.091-5.7-21.091v-6.472c-7.6-2.659-16.531-18.052-16.531-18.052l-.659,1.725c2.577,4.087,9.449,14.229,15.487,16.338v6.461s4.181,19,5.7,21.091,0,10.438,0,10.438,2.121,2.67,6.8,2.307A7.446,7.446,0,0,1,902.082,623.913Z" transform="translate(-839.761 -533.617)"/>
    </g>
    <path id="Path_63" data-name="Path 63" class="cls-20" d="M952.327,464l-3.73.247-1.967.132v-4.752l2.582-.467,1.6-.291s4.944-14.63,9.691-11.971S952.327,464,952.327,464Z" transform="translate(-473.267 -247.931)"/>
    <path id="Path_64" data-name="Path 64" class="cls-20" d="M845.392,407s-2.472,9.5-3.23,15.383,17.668,1.143,17.668,1.143-7.032-8.548-3.038-13.108Z" transform="translate(-426.181 -230.099)"/>
    <path id="Path_65" data-name="Path 65" class="cls-9" d="M864.741,452.476l.379,3.609-5.889-.379-5.889-5.131-5.889-16.536-3.791-5.895-2.851-3.609,1.143-4.395s.522.456,1.4,1.126c2.9,2.2,9.68,6.818,14.641,5.543a5.911,5.911,0,0,0,.676-.214l7.411,12.729Z" transform="translate(-425.582 -236.02)"/>
    <path id="Path_66" data-name="Path 66" class="cls-5" d="M831.925,418.105s-3.038.549-5.131,5.131c-1.6,3.505-7.032,7.142-9.455,8.609a4.054,4.054,0,0,0-1.84,2.56c-.489,2.165-.676,6.2,1.983,12.009,4.181,9.12,7.219,13.108,7.219,13.108s.758,9.12-.379,11.779,0,17.289,0,17.289,19.948,3.8,26.6,0,5.7-18.432,5.7-18.432,6.268,13.3,8.548,13.679l-1.329-7.411s-7.411-7.982-7.79-18.239c0,0-2.28-9.312-.379-11.779,0,0,32.111,2.659,34.012.379,0,0-21.091-.95-24.321-6.082,0,0-9.312-7.411-9.691-12.35a5.461,5.461,0,0,0-2.851-4.477,7.438,7.438,0,0,0-4.258-.95l-4.291.3s7.411,13.108,7.032,14.833.379,15.58.379,15.58-8.576-18.432-12.35-20.519-8.175-10.68-8.175-10.68l.758-4.34" transform="translate(-414.044 -235.101)"/>
    <path id="Path_67" data-name="Path 67" class="cls-5" d="M864.741,452.476l.379,3.609-5.889-.379-5.889-5.131-5.889-16.536-3.791-5.895-2.851-3.609,1.143-4.395s.522.456,1.4,1.126l-.264,1.5s4.395,8.581,8.169,10.674,12.35,20.519,12.35,20.519-.758-13.872-.379-15.58c.258-1.159-3.071-7.565-5.236-11.57a5.909,5.909,0,0,0,.676-.214l7.411,12.729Z" transform="translate(-425.582 -236.02)"/>
    <path id="Path_68" data-name="Path 68" class="cls-5" d="M948.6,474.567l-1.967.132v-4.752l2.582-.467C948.311,470.672,948.344,472.782,948.6,474.567Z" transform="translate(-473.267 -258.254)"/>
    <path id="Path_69" data-name="Path 69" class="cls-19" d="M831.925,417.08s-3.038.549-5.131,5.131c-1.6,3.505-7.032,7.142-9.455,8.609a4.054,4.054,0,0,0-1.84,2.56c-.489,2.165-.676,6.2,1.983,12.009,4.181,9.12,7.219,13.108,7.219,13.108s.758,9.12-.379,11.779,0,17.289,0,17.289,19.948,3.8,26.6,0,5.7-18.432,5.7-18.432,6.263,13.278,8.548,13.685l-1.329-7.411s-7.411-7.982-7.79-18.239c0,0-2.28-9.312-.379-11.779,0,0,7.411,7.982,15.773,7.79a157.32,157.32,0,0,1,18.239.95s-1.9-6.082,0-8.362c0,0-21.091-.95-24.321-6.082,0,0-9.312-7.411-9.691-12.35a5.461,5.461,0,0,0-2.851-4.477,7.439,7.439,0,0,0-4.258-.95l-4.291.3s7.411,13.108,7.032,14.833.379,15.58.379,15.58-8.576-18.443-12.35-20.53-8.175-10.658-8.175-10.658l.758-4.34" transform="translate(-414.044 -234.641)"/>
    <path id="Path_70" data-name="Path 70" class="cls-5" d="M833.651,453.39s4.56,15.383,7.219,17.289,18.811,11.592,23.563,9.312c0,0,1.143,5.7-.549,7.032,0,0-17.717-.692-17.86-.758,0,0-11.592-1.522-13.493-7.219s-4.181-15.383-4.181-15.383Z" transform="translate(-419.967 -251.003)"/>
    <ellipse id="Ellipse_5" data-name="Ellipse 5" class="cls-21" cx="0.665" cy="0.95" rx="0.665" ry="0.95" transform="translate(437.357 217.874)"/>
    <ellipse id="Ellipse_6" data-name="Ellipse 6" class="cls-21" cx="0.665" cy="0.95" rx="0.665" ry="0.95" transform="translate(439.252 224.521)"/>
    <g id="Group_7" data-name="Group 7" class="cls-13" transform="translate(401.161 182.422)">
      <path id="Path_71" data-name="Path 71" d="M825.657,487.343s-1.143-14.63,0-17.289.379-11.779.379-11.779-3.038-3.988-7.219-13.108c-2.664-5.807-2.472-9.845-1.983-12.009a4.055,4.055,0,0,1,1.84-2.56c2.423-1.483,7.845-5.1,9.455-8.609a9.92,9.92,0,0,1,3.725-4.521l.071-.418s-3.038.549-5.131,5.131c-1.6,3.505-7.032,7.142-9.455,8.609a4.054,4.054,0,0,0-1.84,2.56c-.489,2.165-.676,6.2,1.983,12.009,4.181,9.12,7.219,13.108,7.219,13.108s.758,9.12-.379,11.779,0,17.289,0,17.289,14.251,2.714,22.678,1.258C838.49,489.809,825.657,487.343,825.657,487.343Z" transform="translate(-815.205 -417.05)"/>
      <path id="Path_72" data-name="Path 72" d="M875.142,441.16c-.258,1.17,0,8.054.214,12.273.917,1.873,1.494,3.12,1.494,3.12s-.758-13.872-.379-15.58c.363-1.648-6.312-13.548-6.977-14.723l-1.384.093S875.526,439.451,875.142,441.16Z" transform="translate(-839.045 -421.196)"/>
      <path id="Path_73" data-name="Path 73" d="M906.67,476.05c-8.362.192-15.773-7.79-15.773-7.79a3.044,3.044,0,0,0-.478,1.027c2.2,2.044,8.241,7.1,14.921,6.95a157.321,157.321,0,0,1,18.239.95s-.038-.126-.1-.341A151.276,151.276,0,0,0,906.67,476.05Z" transform="translate(-849.099 -440.126)"/>
      <path id="Path_74" data-name="Path 74" d="M893,511.49s.077,1.187.033,2.967c1.978,3.922,5.576,10.63,7.186,10.9l-.28-1.56C897.175,520.324,893,511.49,893,511.49Z" transform="translate(-850.261 -459.607)"/>
    </g>
    <path id="Path_75" data-name="Path 75" class="cls-20" d="M896.774,494.559l-4.038.852-3.186.67,1.709-4.752,1.192-.3,1.851-.461s2.659-13.3,7.982-12.35S896.774,494.559,896.774,494.559Z" transform="translate(-447.546 -262.17)"/>
    <path id="Path_76" data-name="Path 76" class="cls-5" d="M892.746,505.988l-3.186.67,1.709-4.752,1.192-.3A18.972,18.972,0,0,1,892.746,505.988Z" transform="translate(-447.55 -272.732)"/>
    <path id="Path_77" data-name="Path 77" class="cls-19" d="M833.651,452.7s4.56,15.383,7.219,17.289,18.811,11.592,23.563,9.312c0,0,1.143,5.7-.549,7.032,0,0-17.717-.692-17.86-.758,0,0-11.592-1.522-13.493-7.219s-4.181-15.383-4.181-15.383Z" transform="translate(-419.967 -250.692)"/>
    <path id="Path_78" data-name="Path 78" class="cls-5" d="M847.661,407.74s-.385,1.489-.9,3.653a10.257,10.257,0,0,0,11.323,5.219,5.9,5.9,0,0,1,.978-5.45Z" transform="translate(-428.263 -230.432)"/>
    <circle id="Ellipse_7" data-name="Ellipse 7" class="cls-20" cx="10.262" cy="10.262" r="10.262" transform="translate(417.118 165.524)"/>
    <path id="Path_79" data-name="Path 79" class="cls-5" d="M860.2,385.491a5.494,5.494,0,0,0,2.285.143,3.763,3.763,0,0,0,2.78-3.587,5.494,5.494,0,0,0-2.115-4.236c-.868-.725-1.906-1.236-2.7-2.044a20.981,20.981,0,0,1-2.2-3.379,10.026,10.026,0,0,0-5.148-4c-1.571-.549-3.5-.593-4.708.549-.621.588-.983,1.428-1.676,1.928-1.005.714-2.368.505-3.593.648a6.851,6.851,0,0,0-5.164,3.846,9.674,9.674,0,0,0-.505,6.593c.236.934.588,1.835.841,2.747.549,1.934.659,3.961,1.275,5.867s1.884,3.774,3.807,4.346a12.037,12.037,0,0,1,1.225-6.2,1.78,1.78,0,0,1,.868-.967,2.1,2.1,0,0,1,1.044,0,10.438,10.438,0,0,0,6.95-1.406c.731-.439,1.868-1.956,2.643-2.1C857.109,384.057,859.158,385.26,860.2,385.491Z" transform="translate(-423.911 -212.528)"/>
    <path id="Path_80" data-name="Path 80" class="cls-22" d="M860.2,384.8a5.494,5.494,0,0,0,2.285.143,3.763,3.763,0,0,0,2.78-3.587,5.494,5.494,0,0,0-2.115-4.236c-.868-.725-1.906-1.236-2.7-2.044a20.98,20.98,0,0,1-2.2-3.379,10.026,10.026,0,0,0-5.148-4c-1.571-.549-3.5-.593-4.708.549-.621.588-.983,1.428-1.676,1.928-1.005.714-2.368.505-3.593.648a6.851,6.851,0,0,0-5.164,3.846,9.674,9.674,0,0,0-.505,6.592c.236.934.588,1.835.841,2.747.549,1.934.659,3.961,1.275,5.867s1.884,3.774,3.807,4.346a12.037,12.037,0,0,1,1.236-6.2,1.78,1.78,0,0,1,.868-.967,2.1,2.1,0,0,1,1.044,0,10.438,10.438,0,0,0,6.95-1.406c.731-.439,1.868-1.956,2.642-2.1C857.109,383.367,859.158,384.57,860.2,384.8Z" transform="translate(-423.911 -212.217)"/>
    <path id="Path_81" data-name="Path 81" class="cls-23" d="M990.124,337.49l-8.372,93.778-37.632,10.438-37.528-10.438L898.23,337.49Z" transform="translate(-451.457 -198.776)"/>
    <path id="Path_82" data-name="Path 82" class="cls-24" d="M981.86,440.02l30.408-8.427,7.142-80.143H981.86Z" transform="translate(-489.143 -205.067)"/>
    <path id="Path_83" data-name="Path 83" class="cls-25" d="M941.93,383.894H958.2v-11.5H929.36l.275,3.087,2.829,31.7h25.744v-11.5H942.984Zm2.615,29.034H933.008l1.61,18.063,23.535,6.56h.055v-12h-.049l-12.811-3.461Z" transform="translate(-465.485 -214.503)"/>
    <path id="Path_84" data-name="Path 84" class="cls-16" d="M913.8,291.09h5.845v5.774h5.345V291.09h5.845v17.492h-5.845v-5.856h-5.345v5.856H913.8Zm24.722,5.8h-5.148v-5.8h16.141v5.8h-5.148v11.691h-5.84V296.891h0Zm13.559-5.8h6.1l3.752,6.148,3.747-6.148h6.1v17.492h-5.823v-8.669l-4.021,6.219h-.1l-4.027-6.219v8.669H952.08Zm22.6,0h5.845V302.8h8.241v5.779H974.7V291.09Z" transform="translate(-458.473 -177.867)"/>
    <path id="Path_85" data-name="Path 85" class="cls-16" d="M981.79,407.172h14.163l-1.335,14.921-12.828,3.461v11.993l23.585-6.538.17-1.945,2.7-30.287.28-3.087H981.79v11.5Zm0-23.31v.027h27.787l.231-2.588.549-5.834.275-3.087H981.79v11.476Z" transform="translate(-489.111 -214.498)"/>
    <path id="Path_86" data-name="Path 86" class="cls-26" d="M383.221,426.727c-1.071-3.137-2.615-7.142-3.846-8.054a1.148,1.148,0,0,0-.242-.148h-.154v-3.873l-2.89.461a27.616,27.616,0,0,1-1.049-4.291,1.994,1.994,0,0,0,2.17.434c-.049-.077-.088-.159-.132-.242l.132-.055a5.368,5.368,0,0,1-.7-2.632,9.58,9.58,0,0,1,.4-2.483c.516-1.785,1.39-3.456,1.879-5.247a12.758,12.758,0,0,0,.439-3.549,12.932,12.932,0,0,0-1.351-5.851,3.417,3.417,0,0,0-1.022-1.335,13.182,13.182,0,0,0-1.253-.61,6.763,6.763,0,0,1-1.818-1.813,16.339,16.339,0,0,0-7.895-5.268,4.62,4.62,0,0,0-2.522-.2c-1.939.549-2.648,2.928-4.219,4.186-1.39,1.1-3.3,1.225-5.032,1.6a8.559,8.559,0,0,0-4.686,2.456,5.087,5.087,0,0,0-1.258,3.4,3.412,3.412,0,0,0,1.39,3.033,4.356,4.356,0,0,0,3.681.522,12.52,12.52,0,0,0,9.477,15.74l.341.6h0a25.927,25.927,0,0,1,2.346,6.137c-2.659,1.511-5.565,2.923-7.318,3.055a12.34,12.34,0,0,1-.379,2.027,11.191,11.191,0,0,1-2.3,4.532c-2.384,2.681-13.114,22.953-13.114,22.953s-.341.808-.89,2.2c-6.664.819-17.536,2-20.574,1.39l-11.921-11.328s-3.846,2.939-3.516,6.51l-2.148-2.044s-11.328,8.642,6.56,14.284l27.216,3.159c-2.593,7.823-5.01,16.926-4.263,21.882h.225a10.287,10.287,0,0,0,1.555-.121l-.049.879-2.621,46.933s-.6,8.642,7.45,12.52c0,0,9.839,28.914,5.961,32.193,0,0,.461.242,1.236.582l-8.092,7.142s-5.961,1.489-9.241,1.192a2.368,2.368,0,0,0-2.615,1.763.386.386,0,0,1-.033.187v.577a.347.347,0,0,0,.038.192v.071a1.881,1.881,0,0,0,.066.2v.066c.027.066.06.132.093.2v.044c.038.066.077.132.121.2l.038.055a2.622,2.622,0,0,0,.159.209l.044.055c.06.071.126.137.2.209h.033l.22.187.049.038.269.192.066.044.313.181h.049l.335.165h.049l.39.159.082.033.434.143h.071l.467.121h.038l.549.1h.1l.549.082h.1l.632.06c1.225.093,2.879.126,4.791.121h0v.308a.347.347,0,0,0,.038.192v.071a1.886,1.886,0,0,0,.066.2v.066c.027.066.06.132.093.2v.044c.038.066.077.132.121.2l.038.055q.071.1.159.209l.044.055c.06.071.126.137.2.209h.027l.22.187.049.039.269.192.066.044.308.181h.049l.335.165h.049l.39.159.082.033.434.143H340l.467.121h.038l.549.1h.1l.549.082h.1l.632.06c7.752.6,32.49-1.192,32.49-1.192V597.3h0v-.088h0c.247-1.154,1.434-7.862-2.785-12.822q.19-.2.363-.412s-3.3-5.664-1.489-7.45-8.73-32.512-8.73-32.512-5.664-8.944-2.384-19.08-.3-21.162-.3-21.162,7.829-2.318,7.971-11.949v-.9a3.168,3.168,0,0,0,.494.033,2.321,2.321,0,0,0,.33,0s-1.489-5.367.3-9.241,5.664-.3,9.241-16.1c2.588-11.432,4.862-24.579,5.928-30.979A16.311,16.311,0,0,0,383.221,426.727ZM315.2,460.239l-2.719-2.582c.9.374,1.9.736,3.016,1.1l10.246,1.2c-4.571.412-8.839.643-10.543.3Z" transform="translate(-181.75 -218.781)"/>
    <path id="Path_87" data-name="Path 87" class="cls-10" d="M341.772,514.321s-21.085,2.928-25.48,2.049l-11.713-11.13s-11.13,8.493,6.444,14.059l32.8,3.807Z" transform="translate(-182.377 -274.368)"/>
    <path id="Path_88" data-name="Path 88" class="cls-27" d="M341.772,514.321s-21.085,2.928-25.48,2.049l-11.713-11.13s-11.13,8.493,6.444,14.059l32.8,3.807Z" transform="translate(-182.377 -274.368)"/>
    <path id="Path_89" data-name="Path 89" class="cls-28" d="M254.3,431.441l-45.565-12.636L198.58,304.92H310.153L299.989,418.789Z" transform="translate(-136.178 -184.099)"/>
    <path id="Path_90" data-name="Path 90" class="cls-29" d="M337.053,419.185l8.686-97.305h-45.6V429.4Z" transform="translate(-181.943 -191.742)"/>
    <path id="Path_91" data-name="Path 91" class="cls-25" d="M238.914,375.541l1.253,13.965h31.259V375.541ZM236.4,347.27l1.269,13.965H271.42V347.27H236.37Zm35.023,64.546h-.06l-15.558-4.2-.994-11.141H240.76l1.956,21.931,28.611,7.96h.066Z" transform="translate(-153.207 -203.183)"/>
    <path id="Path_92" data-name="Path 92" class="cls-16" d="M246.38,248.56H263.3v7.076H253.45v7.076H263.3v7.076H246.38Zm20.327,0h16.915v6.153h-9.867v1.231H283.6V270.1H266.679v-6.461h9.845V262.4h-9.845V248.56Zm20.327,0h16.915v6.153h-9.894v1.231H303.9V270.1H286.979v-6.461h9.845V262.4h-9.845V248.56Z" transform="translate(-157.718 -158.702)"/>
    <path id="Path_93" data-name="Path 93" class="cls-16" d="M332.49,375.541l2.522-28.271H300v13.965h19.684l-1.269,14.284H300v13.965h17.2l-1.648,18.129L300,411.827v14.531l28.633-7.938.209-2.362,3.3-36.775.341-3.752Z" transform="translate(-181.88 -203.183)"/>
    <path id="Path_94" data-name="Path 94" class="cls-30" d="M371,738.19l-10.251,9.076s-5.856,1.467-9.076,1.17-4.686,4.977,2.928,5.565,31.919-1.17,31.919-1.17,2.34-9.372-4.686-14.641Z" transform="translate(-203.986 -379.341)"/>
    <path id="Path_95" data-name="Path 95" class="cls-27" d="M371,738.19l-10.251,9.076s-5.856,1.467-9.076,1.17-4.686,4.977,2.928,5.565,31.919-1.17,31.919-1.17,2.34-9.372-4.686-14.641Z" transform="translate(-203.986 -379.341)"/>
    <path id="Path_96" data-name="Path 96" class="cls-31" d="M386.88,757.47a16.15,16.15,0,0,1-.368,3.175s-24.3,1.758-31.919,1.17c-3.664-.28-5.219-1.648-5.494-2.956-.335,1.505.994,3.489,5.494,3.846,7.614.588,31.919-1.17,31.919-1.17A16.921,16.921,0,0,0,386.88,757.47Z" transform="translate(-203.983 -388.029)"/>
    <path id="Path_97" data-name="Path 97" class="cls-10" d="M410.84,429.241s6.444,9.076,4.1,15.229,12.3-6.444,12.3-6.444S422.553,429.79,424.9,421Z" transform="translate(-231.827 -236.408)"/>
    <path id="Path_98" data-name="Path 98" class="cls-30" d="M389.649,744.59l-10.24,9.076s-5.856,1.467-9.076,1.17-4.686,4.977,2.928,5.565,31.919-1.17,31.919-1.17,2.34-9.372-4.686-14.641Z" transform="translate(-212.394 -382.225)"/>
    <path id="Path_99" data-name="Path 99" class="cls-11" d="M388.492,653.439a7.772,7.772,0,0,1-5.933,2.719c-5.12.242-10.757-2.719-10.757-2.719,3.807-3.219-5.856-31.628-5.856-31.628-7.906-3.807-7.323-12.3-7.323-12.3l2.56-46.093.648-11.581,8.2-4.977,6.461,4.944,6.131,4.7a24.646,24.646,0,0,1,.769,4.571c.714,10.762-7.8,13.295-7.8,13.295s3.516,10.834.291,20.794,2.34,18.745,2.34,18.745,10.543,30.457,8.79,32.215S388.492,653.439,388.492,653.439Z" transform="translate(-208.292 -293.123)"/>
    <path id="Path_100" data-name="Path 100" class="cls-27" d="M388.492,653.439a7.772,7.772,0,0,1-5.933,2.719c-5.12.242-10.757-2.719-10.757-2.719,3.807-3.219-5.856-31.628-5.856-31.628-7.906-3.807-7.323-12.3-7.323-12.3l2.56-46.093.648-11.581,8.2-4.977,6.461,4.944,6.131,4.7a24.646,24.646,0,0,1,.769,4.571c.714,10.762-7.8,13.295-7.8,13.295s3.516,10.834.291,20.794,2.34,18.745,2.34,18.745,10.543,30.457,8.79,32.215S388.492,653.439,388.492,653.439Z" transform="translate(-208.292 -293.123)"/>
    <path id="Path_101" data-name="Path 101" class="cls-11" d="M403.286,659.82c-4.977,6.148-16.69,0-16.69,0a1.868,1.868,0,0,0,.511-.8c2.148-5.84-7.246-33.759-7.246-33.759-7.906-3.807-8.79-12.883-8.79-12.883L369,565.454l-.269-6.076,12.322-4.7,3.785-1.445,12.608,9.664a22.838,22.838,0,0,1,.791,6.142c-.159,9.455-7.834,11.74-7.834,11.74s3.516,10.834.291,20.794,2.357,18.717,2.357,18.717,10.543,30.457,8.79,32.215S403.286,659.82,403.286,659.82Z" transform="translate(-212.851 -295.994)"/>
    <path id="Path_102" data-name="Path 102" class="cls-5" d="M395.786,566.17c-2.533-.363-7.658-3.412-10.29-5.065-1.005-.632-1.648-1.055-1.648-1.055s-2.637-7.323-9.664-1.758a26.31,26.31,0,0,1-7.636,4.318,17.869,17.869,0,0,1-3.258.819l.648-11.581,8.2-4.977,6.461,4.944,3.785-1.445,12.608,9.658a22.839,22.839,0,0,1,.791,6.142Z" transform="translate(-210.4 -293.128)"/>
    <path id="Path_103" data-name="Path 103" class="cls-32" d="M410.135,463.614c-1.044,6.285-3.3,19.228-5.823,30.43-3.516,15.52-7.323,12-9.076,15.811s-.291,9.076-.291,9.076c-2.928.291-12.592-6.148-12.592-6.148s-2.637-7.323-9.664-1.758-12.592,5.268-12.592,5.268c-1.467-9.664,9.372-35.435,9.372-35.435s10.543-19.915,12.883-22.524a10.988,10.988,0,0,0,2.263-4.45,12.113,12.113,0,0,0,.374-1.989c3.807-.291,13.185-6.735,13.185-6.735l7.323-1.17V447.8a1.1,1.1,0,0,1,.242.148c1.2.917,2.747,4.829,3.774,7.911A16.025,16.025,0,0,1,410.135,463.614Z" transform="translate(-208.9 -246.767)"/>
    <path id="Path_104" data-name="Path 104" class="cls-10" d="M353.959,515.116l-3.785-.439-29.013-3.368c-17.58-5.565-6.444-14.059-6.444-14.059l11.713,11.13c3.379.676,16.635-.9,22.574-1.648,1.78-.231,2.906-.385,2.906-.385Z" transform="translate(-186.945 -270.768)"/>
    <path id="Path_105" data-name="Path 105" class="cls-5" d="M413.526,457.075s-7.614-6.148-19.058,13.762-14.059,16.69-14.059,16.69,2.34,8.79,1.17,10.543c0,0,7.906-.588,10.834,0S413.5,475.814,413.5,475.814,422.9,462.931,413.526,457.075Z" transform="translate(-218.115 -252.26)"/>
    <path id="Path_106" data-name="Path 106" class="cls-5" d="M413.014,454.945s-7.614-6.148-19.036,13.762S379.92,485.4,379.92,485.4s9.076,9.955,12,10.542,21.085-22.255,21.085-22.255S422.387,460.8,413.014,454.945Z" transform="translate(-217.894 -251.3)"/>
    <path id="Path_107" data-name="Path 107" class="cls-5" d="M381.14,522.155a35.2,35.2,0,0,0-1.17-7.96c1.78-.231,2.906-.385,2.906-.385l2.049,8.79Z" transform="translate(-217.916 -278.23)"/>
    <path id="Path_108" data-name="Path 108" class="cls-32" d="M413.526,456.005s-7.614-6.148-19.058,13.767-14.059,16.69-14.059,16.69,2.34,8.79,1.17,10.543c0,0,7.906-.588,10.834,0S413.5,474.75,413.5,474.75,422.9,461.862,413.526,456.005Z" transform="translate(-218.115 -251.778)"/>
    <path id="Path_109" data-name="Path 109" class="cls-5" d="M425.451,422.09l-14.081,8.191a30.045,30.045,0,0,1,1.648,2.681,12.352,12.352,0,0,0,2.461.247c3.752,0,5.494-3.939,7.763-6.592C423.077,424.507,424.8,424.452,425.451,422.09Z" transform="translate(-232.066 -236.899)"/>
    <circle id="Ellipse_8" data-name="Ellipse 8" class="cls-10" cx="12.301" cy="12.301" r="12.301" transform="translate(170.811 171.138)"/>
    <path id="Path_110" data-name="Path 110" class="cls-5" d="M388.975,394.071a8.4,8.4,0,0,1,4.6-2.417c1.709-.368,3.582-.478,4.944-1.571,1.544-1.236,2.236-3.587,4.142-4.115a4.544,4.544,0,0,1,2.478.2,16.047,16.047,0,0,1,7.757,5.175,6.642,6.642,0,0,0,1.791,1.785,12.975,12.975,0,0,1,1.231.6,3.357,3.357,0,0,1,1,1.313,12.735,12.735,0,0,1,.89,8.938c-.478,1.763-1.335,3.4-1.846,5.159a6.8,6.8,0,0,0,.291,5.318,2.169,2.169,0,0,1-2.6-.961,10.307,10.307,0,0,1-1.033-2.846,10.85,10.85,0,0,0-3.175-4.944c-.923-.813-2.571-1.362-3.214-.313-.247.407-.231.928-.445,1.351a1.814,1.814,0,0,1-2.434.549,3.73,3.73,0,0,1-1.522-2.258c-1.2-4.082-3.263-6.647-7.625-4.906-1.648.648-3.543,1.1-5.109,0C387.09,398.653,387.491,395.736,388.975,394.071Z" transform="translate(-221.411 -220.581)"/>
    <path id="Path_111" data-name="Path 111" class="cls-33" d="M388.975,393.531a8.4,8.4,0,0,1,4.6-2.417c1.709-.368,3.582-.478,4.944-1.571,1.544-1.236,2.236-3.587,4.142-4.115a4.543,4.543,0,0,1,2.478.2A16.047,16.047,0,0,1,412.9,390.8a6.642,6.642,0,0,0,1.791,1.785,12.96,12.96,0,0,1,1.231.6,3.357,3.357,0,0,1,1,1.313,12.735,12.735,0,0,1,.89,8.938c-.478,1.763-1.335,3.4-1.846,5.159a6.8,6.8,0,0,0,.291,5.318,2.169,2.169,0,0,1-2.6-.961,10.307,10.307,0,0,1-1.033-2.846,10.85,10.85,0,0,0-3.175-4.944c-.923-.813-2.571-1.362-3.214-.313-.247.407-.231.928-.445,1.351a1.814,1.814,0,0,1-2.434.549,3.73,3.73,0,0,1-1.522-2.258c-1.2-4.082-3.263-6.647-7.625-4.906-1.648.648-3.543,1.1-5.109,0C387.09,398.118,387.491,395.2,388.975,393.531Z" transform="translate(-221.411 -220.338)"/>
    <path id="Path_112" data-name="Path 112" class="cls-27" d="M425.943,447.91h-5.95s-11.713,5.856-12,5.565c-.2-.2-2.011.143-3.159.379a12.11,12.11,0,0,0,.374-1.989c3.807-.291,13.185-6.735,13.185-6.735l7.323-1.17v3.807A1.1,1.1,0,0,1,425.943,447.91Z" transform="translate(-229.119 -246.754)"/>
    <path id="Path_113" data-name="Path 113" class="cls-31" d="M405.53,763.86a16.148,16.148,0,0,1-.368,3.175s-24.3,1.758-31.919,1.17c-3.664-.28-5.219-1.648-5.494-2.956-.335,1.505.994,3.489,5.494,3.846,7.614.588,31.919-1.17,31.919-1.17A16.923,16.923,0,0,0,405.53,763.86Z" transform="translate(-212.387 -390.909)"/>
    <g id="Group_8" data-name="Group 8" class="cls-34" transform="translate(151.264 201.002)">
      <path id="Path_114" data-name="Path 114" d="M370.07,563.774a25.064,25.064,0,0,1-9.74,4.944,4.1,4.1,0,0,0,.077.643s5.565.291,12.592-5.268a9.438,9.438,0,0,1,3.763-1.967C375.229,561.374,373.043,561.423,370.07,563.774Z" transform="translate(-360.33 -500.81)"/>
      <path id="Path_115" data-name="Path 115" d="M435.59,458.929c-1.049-3.082-2.571-6.988-3.774-7.911a1.1,1.1,0,0,0-.242-.148s-2.423.082-2.34.148c1.2.917,2.379,4.538,3.428,7.614a16.025,16.025,0,0,1,.637,7.779c-1.044,6.285-3.3,19.228-5.823,30.43-3.516,15.52-7.323,12-9.076,15.811-1.439,3.12-.72,7.219-.407,8.6a7.367,7.367,0,0,0,3.044.775s-1.467-5.268.291-9.076,5.565-.291,9.076-15.811c2.544-11.229,4.78-24.172,5.823-30.43a16.024,16.024,0,0,0-.637-7.779Z" transform="translate(-386.108 -450.87)"/>
    </g>
    <path id="Path_116" data-name="Path 116" class="cls-3" d="M495.585,556.764a6.411,6.411,0,0,0,2.1-3.175,2.819,2.819,0,0,0-1.472-3.236c-1.351-.516-2.8.418-3.89,1.368s-2.351,2.027-3.785,1.824a5.757,5.757,0,0,0,1.78-5.389,2.253,2.253,0,0,0-.494-1.1c-.753-.8-2.11-.456-3.011.176-2.857,2.011-3.653,5.889-3.67,9.383a17.99,17.99,0,0,1-.055-3.846,3.97,3.97,0,0,0-1.45-3.417,4.4,4.4,0,0,0-2.2-.522,4.574,4.574,0,0,0-3.593,1.022c-1.1,1.165-.808,3.126.143,4.4a14.3,14.3,0,0,0,3.719,2.978,8.24,8.24,0,0,1,2.659,2.533,2.51,2.51,0,0,1,.2.451h8.048A22.431,22.431,0,0,0,495.585,556.764Z" transform="translate(-260.805 -293.001)"/>
    <path id="Path_117" data-name="Path 117" class="cls-3" d="M516.537,741.554a8.748,8.748,0,0,0,2.857-4.307,3.837,3.837,0,0,0-1.994-4.4c-1.829-.7-3.791.549-5.274,1.851s-3.186,2.747-5.126,2.472a7.807,7.807,0,0,0,2.412-7.307,3.054,3.054,0,0,0-.67-1.483c-1.016-1.1-2.862-.621-4.076.236-3.846,2.747-4.944,7.982-4.972,12.718-.39-1.709-.06-3.489-.071-5.241s-.489-3.692-1.967-4.637a5.928,5.928,0,0,0-3-.7c-1.742-.066-3.681.11-4.867,1.385-1.478,1.582-1.1,4.236.192,5.977s3.241,2.835,5.038,4.038a11.174,11.174,0,0,1,3.6,3.434,3.391,3.391,0,0,1,.269.615H509.8a30.41,30.41,0,0,0,6.735-4.653Z" transform="translate(-266.974 -374.635)"/>
  </g>
</svg>
